<?xml version="1.0" encoding="iso-8859-1"?>
<!-- Generator: Adobe Illustrator 19.0.0, SVG Export Plug-In . SVG Version: 6.00 Build 0)  -->
<svg version="1.1" id="Layer_1" xmlns="http://www.w3.org/2000/svg" xmlns:xlink="http://www.w3.org/1999/xlink" x="0px" y="0px"
	 viewBox="0 0 512 512" style="enable-background:new 0 0 512 512;" xml:space="preserve">
<rect x="8.001" y="119.999" style="fill:#C8546F;" width="496.004" height="32.001"/>
<rect x="8.001" y="151.995" style="fill:#FEB860;" width="496.004" height="144"/>
<rect x="8.001" y="151.995" style="fill:#FEC986;" width="391.997" height="144"/>
<g>
	<rect x="48" y="143.999" style="fill:#FFFFFF;" width="16" height="16"/>
	<rect x="79.997" y="143.999" style="fill:#FFFFFF;" width="15.999" height="16"/>
</g>
<g>
	<path style="fill:#1D1D1B;" d="M0,111.998v192h512v-192C512,111.998,0,111.998,0,111.998z M16,287.998V159.999H32v-16H16v-15.999
		h479.998v15.999H112v16H496v127.999H16z"/>
	<rect x="136.004" y="184.002" style="fill:#1D1D1B;" width="336" height="16"/>
	<rect x="136.004" y="215.999" style="fill:#1D1D1B;" width="336" height="16"/>
	<rect x="136.004" y="247.995" style="fill:#1D1D1B;" width="336" height="16"/>
	<rect x="199.997" y="319.995" style="fill:#1D1D1B;" width="16" height="24"/>
	<rect x="232.004" y="335.999" style="fill:#1D1D1B;" width="16" height="48"/>
	<rect x="264" y="319.995" style="fill:#1D1D1B;" width="16" height="16"/>
	<rect x="264" y="352.002" style="fill:#1D1D1B;" width="16" height="48"/>
	<rect x="295.997" y="328.002" style="fill:#1D1D1B;" width="16" height="39.999"/>
	<rect x="328.004" y="319.995" style="fill:#1D1D1B;" width="16" height="16"/>
</g>
<g>
</g>
<g>
</g>
<g>
</g>
<g>
</g>
<g>
</g>
<g>
</g>
<g>
</g>
<g>
</g>
<g>
</g>
<g>
</g>
<g>
</g>
<g>
</g>
<g>
</g>
<g>
</g>
<g>
</g>
</svg>
