<?xml version="1.0" encoding="iso-8859-1"?>
<!-- Generator: Adobe Illustrator 19.0.0, SVG Export Plug-In . SVG Version: 6.00 Build 0)  -->
<svg version="1.1" id="Layer_1" xmlns="http://www.w3.org/2000/svg" xmlns:xlink="http://www.w3.org/1999/xlink" x="0px" y="0px"
	 viewBox="0 0 512 512" style="enable-background:new 0 0 512 512;" xml:space="preserve">
<rect x="114.204" y="7.854" style="fill:#C8546F;" width="283.598" height="133.924"/>
<rect x="82.692" y="291.452" style="fill:#9B4573;" width="55.143" height="102.412"/>
<rect x="169.342" y="7.854" style="fill:#FEB860;" width="31.512" height="133.924"/>
<rect x="82.692" y="322.954" style="fill:#C8546F;" width="55.143" height="70.899"/>
<rect x="311.592" y="7.854" style="fill:#FEB860;" width="31.512" height="133.924"/>
<rect x="374.165" y="291.452" style="fill:#9B4573;" width="55.143" height="102.412"/>
<rect x="374.165" y="322.954" style="fill:#C8546F;" width="55.143" height="70.899"/>
<rect x="137.841" y="346.591" style="fill:#FEB860;" width="235.016" height="157.55"/>
<rect x="137.841" y="346.591" style="fill:#FEC986;" width="149.674" height="157.55"/>
<rect x="169.342" y="378.103" style="fill:#C8546F;" width="173.311" height="31.512"/>
<rect x="137.841" y="141.778" style="fill:#FEB860;" width="236.325" height="204.823"/>
<rect x="137.841" y="141.778" style="fill:#FEC986;" width="149.674" height="204.823"/>
<rect x="185.125" y="212.678" style="fill:#FFFFFF;" width="15.709" height="31.512"/>
<rect x="169.342" y="204.823" style="fill:#1D1D1B;" width="173.311" height="15.709"/>
<g>
	<rect x="193" y="409.615" style="fill:#FFFFFF;" width="15.709" height="23.632"/>
	<rect x="193" y="307.203" style="fill:#FFFFFF;" width="15.709" height="15.751"/>
	<rect x="303.287" y="307.203" style="fill:#FFFFFF;" width="15.709" height="15.751"/>
</g>
<g>
	<path style="fill:#1D1D1B;" d="M161.492,480.489h189.017V370.248H161.492V480.489z M177.201,464.78v-47.312H334.8v47.312H177.201z
		 M334.8,385.957v15.802H177.201v-15.802H334.8z"/>
	<path style="fill:#1D1D1B;" d="M437.163,283.595H382.02V149.628h23.632V0H106.349v149.628h23.632v133.967H74.838v118.118h55.143
		V512H382.02V401.713h55.143V283.595z M421.454,299.304v15.801H382.02v-15.801H421.454z M389.943,133.919h-7.924h-31.197V15.709
		h39.12V133.919z M177.147,133.919V15.709h15.62v118.21H177.147z M208.475,15.709h94.815v118.21h-94.815L208.475,15.709
		L208.475,15.709z M318.999,15.709h16.115v118.21h-16.115V15.709z M122.058,133.919V15.709h39.38v118.21h-31.455H122.058z
		 M366.311,149.628v189.11h-220.62v-189.11H366.311z M129.982,299.304v15.801H90.547v-15.801H129.982z M90.547,386.003v-55.19
		h39.435v55.19H90.547z M145.691,496.291V354.447h220.62v141.844H145.691z M382.02,386.003v-55.19h39.435v55.19H382.02z"/>
	<rect x="51.205" y="322.954" style="fill:#1D1D1B;" width="15.709" height="23.632"/>
	<rect x="445.086" y="322.954" style="fill:#1D1D1B;" width="15.709" height="23.632"/>
</g>
<g>
</g>
<g>
</g>
<g>
</g>
<g>
</g>
<g>
</g>
<g>
</g>
<g>
</g>
<g>
</g>
<g>
</g>
<g>
</g>
<g>
</g>
<g>
</g>
<g>
</g>
<g>
</g>
<g>
</g>
</svg>
