<?xml version="1.0" encoding="iso-8859-1"?>
<!-- Generator: Adobe Illustrator 19.0.0, SVG Export Plug-In . SVG Version: 6.00 Build 0)  -->
<svg version="1.1" id="Layer_1" xmlns="http://www.w3.org/2000/svg" xmlns:xlink="http://www.w3.org/1999/xlink" x="0px" y="0px"
	 viewBox="0 0 512 512" style="enable-background:new 0 0 512 512;" xml:space="preserve">
<path style="fill:#FEB860;" d="M415.376,188h49.248c12.91,0,23.376,10.466,23.376,23.376V236h-96.001v-24.624
	C391.999,198.466,402.466,188,415.376,188z"/>
<path style="fill:#FEC986;" d="M391.999,236h-368v-22.319c0-9.765,7.918-17.681,17.681-17.681h350.319V236z"/>
<rect x="8" y="236.002" style="fill:#C8546F;" width="495.999" height="55.999"/>
<rect x="311.997" y="236.002" style="fill:#9B4573;" width="192.001" height="55.999"/>
<g>
	<path style="fill:#1D1D1B;" d="M512,228H0v72h32.001V332h16V300h415.998V332h16V300h32.001v-72H512z M495.999,284H16v-40h479.999
		V284z"/>
	<path style="fill:#1D1D1B;" d="M31.66,220H16.341c0-17.457,13.305-31.66,29.659-31.66h330v15.319H46
		C38.094,203.66,31.66,210.99,31.66,220z"/>
	<path style="fill:#1D1D1B;" d="M495.999,220h-16v-6.697c0-9.541-7.761-17.303-17.302-17.303h-45.394
		c-9.541,0-17.303,7.762-17.303,17.303V220h-16v-6.697c0-18.363,14.94-33.303,33.304-33.303h45.394
		c18.363,0,33.303,14.94,33.303,33.303V220H495.999z"/>
</g>
<g>
</g>
<g>
</g>
<g>
</g>
<g>
</g>
<g>
</g>
<g>
</g>
<g>
</g>
<g>
</g>
<g>
</g>
<g>
</g>
<g>
</g>
<g>
</g>
<g>
</g>
<g>
</g>
<g>
</g>
</svg>
