<?xml version="1.0" encoding="iso-8859-1"?>
<!-- Generator: Adobe Illustrator 19.0.0, SVG Export Plug-In . SVG Version: 6.00 Build 0)  -->
<svg version="1.1" id="Layer_1" xmlns="http://www.w3.org/2000/svg" xmlns:xlink="http://www.w3.org/1999/xlink" x="0px" y="0px"
	 viewBox="0 0 512.001 512.001" style="enable-background:new 0 0 512.001 512.001;" xml:space="preserve">
<rect x="15.837" y="159.845" style="fill:#FEC986;" width="200.141" height="120.082"/>
<path style="fill:#9B4573;" d="M159.935,239.903h-88.06v-23.35c0-9.211,7.466-16.677,16.677-16.677h54.705
	c9.211,0,16.677,7.466,16.677,16.677v23.35H159.935z"/>
<path style="fill:#C8546F;" d="M191.956,279.93H39.854v-23.026c0-9.39,7.612-17.002,17.002-17.002h118.099
	c9.39,0,17.002,7.612,17.002,17.002V279.93z"/>
<rect x="296.029" y="159.845" style="fill:#FEC986;" width="200.141" height="120.082"/>
<path style="fill:#C8546F;" d="M472.147,279.93H320.044v-19.091c0-11.562,9.374-20.936,20.936-20.936h110.23
	c11.562,0,20.936,9.374,20.936,20.936v19.091H472.147z"/>
<path style="fill:#9B4573;" d="M440.125,239.903h-88.06v-20.216c0-10.942,8.87-19.812,19.812-19.812h48.436
	c10.942,0,19.811,8.87,19.811,19.811v20.216H440.125z"/>
<g>
	<rect x="7.831" y="279.928" style="fill:#FEB860;" width="216.148" height="40.024"/>
	<rect x="288.02" y="279.928" style="fill:#FEB860;" width="216.148" height="40.024"/>
</g>
<g>
	<path style="fill:#1D1D1B;" d="M0,327.788h16.011v32.196h15.663v-32.196h168.463v32.196H215.8v-32.196h16.011v-55.69H0V327.788z
		 M15.663,287.761h200.484v24.364H15.663V287.761z"/>
	<path style="fill:#1D1D1B;" d="M512,272.098H280.191v55.69h16.011v32.196h15.663v-32.196h168.463v32.196h15.663v-32.196h16.011
		v-55.69H512z M496.337,312.125H295.854v-24.364h200.483V312.125z"/>
	<path style="fill:#1D1D1B;" d="M199.788,263.919h-15.663v-5.743c0-5.758-4.684-10.442-10.442-10.442H58.126
		c-5.758,0-10.442,4.684-10.442,10.442v5.743H32.021v-5.743c0-14.394,11.711-26.105,26.105-26.105h115.558
		c14.394,0,26.105,11.711,26.105,26.105v5.743H199.788z"/>
	<path style="fill:#1D1D1B;" d="M479.979,263.919h-15.663v-5.743c0-5.758-4.684-10.442-10.442-10.442H338.317
		c-5.758,0-10.442,4.684-10.442,10.442v5.743h-15.663v-5.743c0-14.394,11.711-26.105,26.105-26.105h115.558
		c14.394,0,26.105,11.711,26.105,26.105v5.743H479.979z"/>
	<polygon style="fill:#1D1D1B;" points="223.804,263.919 208.141,263.919 208.141,167.68 23.669,167.68 23.669,263.919 
		8.006,263.919 8.006,152.017 223.804,152.017 	"/>
	<path style="fill:#1D1D1B;" d="M167.767,223.891h-15.663v-9.936c0-3.446-2.804-6.248-6.248-6.248h-59.9
		c-3.446,0-6.248,2.804-6.248,6.248v9.936H64.044v-9.936c0-12.082,9.83-21.911,21.911-21.911h59.899
		c12.082,0,21.911,9.83,21.911,21.911v9.936H167.767z"/>
	<polygon style="fill:#1D1D1B;" points="503.995,263.919 488.332,263.919 488.332,167.68 303.859,167.68 303.859,263.919 
		288.196,263.919 288.196,152.017 503.995,152.017 	"/>
	<path style="fill:#1D1D1B;" d="M447.956,223.891h-15.663v-9.936c0-3.446-2.804-6.248-6.248-6.248h-59.899
		c-3.446,0-6.248,2.804-6.248,6.248v9.936h-15.663v-9.936c0-12.082,9.83-21.911,21.911-21.911h59.899
		c12.082,0,21.911,9.83,21.911,21.911V223.891z"/>
</g>
<g>
</g>
<g>
</g>
<g>
</g>
<g>
</g>
<g>
</g>
<g>
</g>
<g>
</g>
<g>
</g>
<g>
</g>
<g>
</g>
<g>
</g>
<g>
</g>
<g>
</g>
<g>
</g>
<g>
</g>
</svg>
