<?xml version="1.0" encoding="iso-8859-1"?>
<!-- Generator: Adobe Illustrator 19.0.0, SVG Export Plug-In . SVG Version: 6.00 Build 0)  -->
<svg version="1.1" id="Layer_1" xmlns="http://www.w3.org/2000/svg" xmlns:xlink="http://www.w3.org/1999/xlink" x="0px" y="0px"
	 viewBox="0 0 512 512" style="enable-background:new 0 0 512 512;" xml:space="preserve">
<path style="fill:#FEB860;" d="M32,355.998c0-123.712,100.288-224,224-224s224,100.288,224,224"/>
<path style="fill:#FEC986;" d="M416.001,363.998c0,0-2.176-157.867-160-236.308c0,0,216.23,6.153,224.493,236.308H416.001z"/>
<rect x="32" y="395.998" style="fill:#9B4573;" width="448.003" height="39.997"/>
<rect x="32" y="395.998" style="fill:#C8546F;" width="367.998" height="39.997"/>
<g>
	<rect x="23.999" y="395.998" style="fill:#1D1D1B;" width="16" height="39.997"/>
	<rect x="472.495" y="404.924" style="fill:#1D1D1B;" width="16" height="31.071"/>
	<rect y="428.002" style="fill:#1D1D1B;" width="512" height="16"/>
	<polygon style="fill:#1D1D1B;" points="248,109.776 264,109.776 264,83.998 284.888,83.998 284.888,67.998 227.112,67.998 
		227.112,83.998 248,83.998 	"/>
	<path style="fill:#1D1D1B;" d="M248,389.05H23.631v16h464.74v-16H264v-17.053h224.493v-19.816
		c0-62.101-24.184-120.485-68.096-164.398C376.486,143.872,318.102,119.688,256,119.688s-120.486,24.184-164.398,68.096
		S23.507,290.08,23.507,352.181v19.816H248L248,389.05L248,389.05z M39.508,352.183c0-119.374,97.118-216.492,216.492-216.492
		s216.492,97.118,216.492,216.492v3.815H39.508V352.183z"/>
</g>
<g>
	<path style="fill:#FFFFFF;" d="M323.424,186.142c-7.481-6.266-15.453-12.076-23.695-17.27l8.528-13.537
		c8.851,5.576,17.411,11.815,25.441,18.541L323.424,186.142z"/>
	<path style="fill:#FFFFFF;" d="M398.188,317.276c-7.224-44.578-27.933-85.191-59.887-117.448l11.366-11.261
		c34.315,34.639,56.553,78.26,64.315,126.149L398.188,317.276z"/>
</g>
<g>
</g>
<g>
</g>
<g>
</g>
<g>
</g>
<g>
</g>
<g>
</g>
<g>
</g>
<g>
</g>
<g>
</g>
<g>
</g>
<g>
</g>
<g>
</g>
<g>
</g>
<g>
</g>
<g>
</g>
</svg>
