<?xml version="1.0" encoding="iso-8859-1"?>
<!-- Generator: Adobe Illustrator 19.0.0, SVG Export Plug-In . SVG Version: 6.00 Build 0)  -->
<svg version="1.1" id="Layer_1" xmlns="http://www.w3.org/2000/svg" xmlns:xlink="http://www.w3.org/1999/xlink" x="0px" y="0px"
	 viewBox="0 0 512.005 512.005" style="enable-background:new 0 0 512.005 512.005;" xml:space="preserve">
<path style="fill:#FEC986;" d="M215.989,151.873L215.989,151.873c-22.1,0-40.013-17.915-40.013-40.013V39.835h80.027v72.025
	C256.002,133.959,238.088,151.873,215.989,151.873z"/>
<g>
	<rect x="127.962" y="383.952" style="fill:#FEB860;" width="40.014" height="104.03"/>
	<rect x="264.006" y="383.952" style="fill:#FEB860;" width="120.042" height="104.03"/>
</g>
<g>
	<rect x="182.309" y="7.823" style="fill:#9B4573;" width="65.693" height="32.011"/>
	<rect x="167.976" y="319.935" style="fill:#9B4573;" width="96.03" height="192.07"/>
</g>
<polygon style="fill:#C8546F;" points="127.958,167.879 127.958,319.932 127.958,351.944 167.971,351.944 167.971,319.932 
	264.006,319.932 264.006,351.944 304.019,351.944 304.019,319.932 304.019,167.879 "/>
<g>
	<path style="fill:#1D1D1B;" d="M215.989,151.694c-21.965,0-39.835-17.87-39.835-39.835V55.84h15.647v56.02
		c0,13.337,10.851,24.188,24.188,24.188c13.337,0,24.188-10.851,24.188-24.188V55.84h15.647v56.02
		C255.823,133.824,237.953,151.694,215.989,151.694z"/>
	<path style="fill:#1D1D1B;" d="M255.823,47.658h-79.668V0h79.668V47.658z M191.801,32.011h48.375V15.647h-48.375V32.011z"/>
	<polygon style="fill:#1D1D1B;" points="135.781,351.944 120.135,351.944 120.135,160.055 311.842,160.055 311.842,335.938 
		296.196,335.938 296.196,175.702 135.781,175.702 	"/>
	<polygon style="fill:#1D1D1B;" points="271.829,327.756 160.148,327.756 160.148,191.888 175.794,191.888 175.794,312.109 
		256.183,312.109 256.183,191.888 271.829,191.888 	"/>
	<rect x="160.153" y="335.937" style="fill:#1D1D1B;" width="15.647" height="176.058"/>
	<rect x="256.183" y="335.937" style="fill:#1D1D1B;" width="15.647" height="176.058"/>
</g>
<g>
	<rect x="208.168" y="183.881" style="fill:#FFFFFF;" width="15.647" height="16.006"/>
	<rect x="208.168" y="215.895" style="fill:#FFFFFF;" width="15.647" height="16.006"/>
	<rect x="208.168" y="247.908" style="fill:#FFFFFF;" width="15.647" height="16.006"/>
	<rect x="208.168" y="279.921" style="fill:#FFFFFF;" width="15.647" height="16.006"/>
</g>
<g>
	<polygon style="fill:#1D1D1B;" points="223.812,511.999 208.166,511.999 208.166,360.126 231.994,360.126 231.994,375.773 
		223.812,375.773 	"/>
	<polygon style="fill:#1D1D1B;" points="391.871,495.814 280.012,495.814 280.012,480.167 376.224,480.167 376.224,391.778 
		280.012,391.778 280.012,376.132 391.871,376.132 	"/>
	<polygon style="fill:#1D1D1B;" points="151.966,495.814 120.135,495.814 120.135,376.132 151.966,376.132 151.966,391.778 
		135.781,391.778 135.781,480.167 151.966,480.167 	"/>
	<polygon style="fill:#1D1D1B;" points="327.848,367.949 312.201,367.949 312.201,359.767 280.012,359.767 280.012,344.12 
		327.848,344.12 	"/>
</g>
<g>
</g>
<g>
</g>
<g>
</g>
<g>
</g>
<g>
</g>
<g>
</g>
<g>
</g>
<g>
</g>
<g>
</g>
<g>
</g>
<g>
</g>
<g>
</g>
<g>
</g>
<g>
</g>
<g>
</g>
</svg>
