<?xml version="1.0" encoding="iso-8859-1"?>
<!-- Generator: Adobe Illustrator 19.0.0, SVG Export Plug-In . SVG Version: 6.00 Build 0)  -->
<svg version="1.1" id="Layer_1" xmlns="http://www.w3.org/2000/svg" xmlns:xlink="http://www.w3.org/1999/xlink" x="0px" y="0px"
	 viewBox="0 0 512.001 512.001" style="enable-background:new 0 0 512.001 512.001;" xml:space="preserve">
<path style="fill:#C8546F;" d="M207.969,159.942h-54.542c-9.667,0-17.504-7.837-17.504-17.505v-6.511h54.542
	c9.667,0,17.504,7.837,17.504,17.505V159.942z"/>
<circle style="fill:#9B4573;" cx="95.899" cy="312.042" r="16.011"/>
<circle style="fill:#FEC986;" cx="247.998" cy="312.042" r="32.02"/>
<g>
	<rect x="288.02" y="104.065" style="fill:#1D1D1B;" width="56.036" height="15.678"/>
	<path style="fill:#1D1D1B;" d="M416.104,216.143c-16.854,0-32.704,4.377-46.481,12.043l-34.934-52.402h29.381
		c19.771,0,35.857-16.086,35.857-35.857c0-19.772-16.086-35.858-35.857-35.858h-12.007v15.678h12.007
		c11.127,0,20.179,9.053,20.179,20.18s-9.052,20.179-20.179,20.179H304.03v15.678h11.816l16.231,24.348H191.792v-32.352h32.021
		v-7.839c0-17.565-14.29-31.855-31.855-31.855h-71.881v7.839c0,17.565,14.29,31.855,31.855,31.855h24.182v37.162l-25.69,28.259
		c-15.492-10.748-34.286-17.058-54.528-17.058C43.018,216.143,0,259.162,0,312.04s43.018,95.895,95.895,95.895
		c41.152,0,76.33-26.058,89.909-62.539l54.306,5.717c0.016,0.002,0.03,0.005,0.045,0.008v17.121h-8.171v15.678h32.021v-15.678h-8.17
		v-17.121c17.442-3.493,30.8-18.404,31.933-36.578l60.292-90.437l8.53,12.796c-22.15,17.581-36.383,44.728-36.383,75.14
		c0,52.877,43.019,95.895,95.896,95.895s95.896-43.018,95.896-95.895S468.98,216.143,416.104,216.143z M137.785,143.765h54.174
		c6.077,0,11.383,3.37,14.147,8.338h-54.174C145.855,152.103,140.549,148.733,137.785,143.765z M185.804,278.683
		c-5.04-13.543-13.058-25.645-23.252-35.515l24.869-27.356h147.325l-51.617,77.425c-6.729-12.522-19.952-21.057-35.134-21.057
		L185.804,278.683z M176.114,312.04c0,5.617-0.586,11.099-1.69,16.393l-57.063-6.006c1.526-3.142,2.384-6.665,2.384-10.387
		s-0.858-7.246-2.384-10.387l57.063-6.007C175.528,300.941,176.114,306.422,176.114,312.04z M95.895,303.868
		c4.507,0,8.172,3.666,8.172,8.171s-3.666,8.17-8.172,8.17s-8.17-3.666-8.17-8.17C87.725,307.534,91.391,303.868,95.895,303.868z
		 M124.388,285.147l27.609-30.371c7.415,7.264,13.43,15.948,17.596,25.613L124.388,285.147z M95.895,392.257
		c-44.231,0-80.217-35.986-80.217-80.217c0-44.232,35.986-80.218,80.217-80.218c16.182,0,31.25,4.832,43.867,13.107l-38.805,42.686
		l-5.605,0.589c-12.9,0.291-23.305,10.867-23.305,23.836s10.405,23.543,23.305,23.836l74.242,7.815
		C157.29,372.225,128.892,392.257,95.895,392.257z M190.082,293.997l23.768-2.502c-3.626,6.003-5.716,13.034-5.716,20.544
		c0,7.51,2.09,14.54,5.716,20.543l-23.768-2.502c1.117-5.846,1.71-11.875,1.71-18.041
		C191.792,305.873,191.2,299.843,190.082,293.997z M255.834,334.909V312.04h-15.678v22.869
		c-9.497-3.264-16.343-12.279-16.343-22.869c0-11.487,8.054-21.123,18.81-23.573l5.705-0.601
		c13.18,0.181,23.848,10.952,23.848,24.174C272.175,322.63,265.33,331.645,255.834,334.909z M416.104,392.257
		c-44.232,0-80.218-35.986-80.218-80.217c0-24.978,11.479-47.321,29.434-62.044l44.262,66.393l13.044-8.696l-44.271-66.408
		c11.258-6.031,24.109-9.462,37.749-9.462c44.232,0,80.218,35.986,80.218,80.218C496.322,356.271,460.336,392.257,416.104,392.257z"
		/>
</g>
<g>
</g>
<g>
</g>
<g>
</g>
<g>
</g>
<g>
</g>
<g>
</g>
<g>
</g>
<g>
</g>
<g>
</g>
<g>
</g>
<g>
</g>
<g>
</g>
<g>
</g>
<g>
</g>
<g>
</g>
</svg>
