<?xml version="1.0" encoding="iso-8859-1"?>
<!-- Generator: Adobe Illustrator 19.0.0, SVG Export Plug-In . SVG Version: 6.00 Build 0)  -->
<svg version="1.1" id="Layer_1" xmlns="http://www.w3.org/2000/svg" xmlns:xlink="http://www.w3.org/1999/xlink" x="0px" y="0px"
	 viewBox="0 0 512 512" style="enable-background:new 0 0 512 512;" xml:space="preserve">
<path style="fill:#FEC986;" d="M279.703,160.212c-23.31,0-42.205-18.897-42.205-42.205c0-23.31,18.896-42.207,42.205-42.207h74.46
	l-0.242-20.924l-78.082-0.222c-35.243,0-63.815,28.571-63.815,63.815c0,35.244,28.571,63.816,63.815,63.816l79.545-0.641
	l-0.247-21.43h-75.435V160.212z"/>
<path style="fill:#C8546F;" d="M276.417,182.696c-35.409,0-64.113-28.704-64.113-64.113s28.704-64.112,64.113-64.112l81.079-0.95
	V7.913H155.961v496.175h201.534V182.696H276.417z"/>
<rect x="292.008" y="183.976" style="fill:#9B4573;" width="64.023" height="320.117"/>
<rect x="155.962" y="472.073" style="fill:#FEB860;" width="200.065" height="32.012"/>
<rect x="155.962" y="472.073" style="fill:#FEC986;" width="136.046" height="32.012"/>
<g>
	<rect x="171.967" y="464.161" style="fill:#1D1D1B;" width="168.056" height="15.825"/>
	<rect x="179.974" y="432.151" style="fill:#1D1D1B;" width="72.027" height="15.825"/>
	<rect x="179.974" y="408.139" style="fill:#1D1D1B;" width="72.027" height="15.825"/>
</g>
<rect x="179.974" y="384.137" style="fill:#FFFFFF;" width="32.012" height="15.825"/>
<rect x="300.016" y="7.913" style="fill:#9B4573;" width="56.022" height="48.018"/>
<g>
	<rect x="139.957" style="fill:#1D1D1B;" width="232.086" height="15.825"/>
	<path style="fill:#1D1D1B;" d="M276.003,87.851h87.941V23.919h-15.825v24.099h-72.116c-39.666,0-71.936,32.269-71.936,71.935
		s32.27,71.935,71.936,71.935h72.116v304.288H163.874V23.919h-15.825V512h215.896V152.054h-87.941
		c-17.701,0-32.102-14.4-32.102-32.101C243.902,102.251,258.302,87.851,276.003,87.851z M276.003,167.88h72.116v8.183h-72.116
		c-30.939,0-56.111-25.171-56.111-56.11s25.171-56.11,56.111-56.11h72.116v8.183h-72.116c-26.427,0-47.928,21.499-47.928,47.927
		C228.076,146.379,249.577,167.88,276.003,167.88z"/>
</g>
<g>
</g>
<g>
</g>
<g>
</g>
<g>
</g>
<g>
</g>
<g>
</g>
<g>
</g>
<g>
</g>
<g>
</g>
<g>
</g>
<g>
</g>
<g>
</g>
<g>
</g>
<g>
</g>
<g>
</g>
</svg>
