<?xml version="1.0" encoding="iso-8859-1"?>
<!-- Generator: Adobe Illustrator 19.0.0, SVG Export Plug-In . SVG Version: 6.00 Build 0)  -->
<svg version="1.1" id="Layer_1" xmlns="http://www.w3.org/2000/svg" xmlns:xlink="http://www.w3.org/1999/xlink" x="0px" y="0px"
	 viewBox="0 0 512 512" style="enable-background:new 0 0 512 512;" xml:space="preserve">
<path style="fill:#9B4573;" d="M120,347.999H24v-18.958C24,313.002,37.002,300,53.042,300h37.917
	C106.997,300,120,313.002,120,329.041V347.999z"/>
<path style="fill:#C8546F;" d="M480,347.999H120v-32h358.423c0.871,0,1.577,0.707,1.577,1.577V347.999z"/>
<path style="fill:#9B4573;" d="M120,140H24v-16.053c0-17.644,14.303-31.946,31.947-31.946h32.107
	c17.644,0,31.947,14.303,31.947,31.946C120,123.947,120,140,120,140z"/>
<path style="fill:#C8546F;" d="M480,140H120v-32h358.423c0.871,0,1.577,0.706,1.577,1.576V140z"/>
<g>
	<rect x="8" y="139.995" style="fill:#FEC986;" width="495.999" height="39.999"/>
	<rect x="8" y="348.001" style="fill:#FEC986;" width="495.999" height="40"/>
</g>
<g>
	<path style="fill:#1D1D1B;" d="M512,187.999H0V132h512V187.999z M16,172h480v-23.999H16V172z"/>
	<path style="fill:#1D1D1B;" d="M512,340H0v55.999h56v32h16v-32h368v32h16v-32h56L512,340L512,340z M496,379.999H16V356h480v23.999
		H496z"/>
	<rect x="55.996" y="196.001" style="fill:#1D1D1B;" width="16" height="88.001"/>
	<rect x="440.003" y="196.001" style="fill:#1D1D1B;" width="16" height="103.998"/>
	<path style="fill:#1D1D1B;" d="M128,332.001h-16v-6.697c0-9.541-7.762-17.304-17.303-17.304H49.303
		c-9.541,0-17.303,7.762-17.303,17.304v6.697H16v-6.697C16,306.939,30.94,292,49.303,292h45.394C113.06,292,128,306.939,128,325.303
		C128,325.303,128,332.001,128,332.001z"/>
	<path style="fill:#1D1D1B;" d="M128,124.001h-16v-6.698c0-9.54-7.762-17.303-17.303-17.303H49.303
		c-9.541,0-17.303,7.762-17.303,17.303v6.698H16v-6.698c0-18.363,14.94-33.302,33.303-33.302h45.394
		C113.06,84.001,128,98.94,128,117.303C128,117.303,128,124.001,128,124.001z"/>
	<path style="fill:#1D1D1B;" d="M488,332h-16c0-4.411-3.588-8-8-8H136v-16.001h328C477.233,307.998,488,318.765,488,332z"/>
	<path style="fill:#1D1D1B;" d="M488,124.001h-16c0-4.411-3.588-8-8-8H136V100h328C477.233,100,488,110.766,488,124.001z"/>
</g>
<g>
</g>
<g>
</g>
<g>
</g>
<g>
</g>
<g>
</g>
<g>
</g>
<g>
</g>
<g>
</g>
<g>
</g>
<g>
</g>
<g>
</g>
<g>
</g>
<g>
</g>
<g>
</g>
<g>
</g>
</svg>
