<?xml version="1.0" encoding="iso-8859-1"?>
<!-- Generator: Adobe Illustrator 19.0.0, SVG Export Plug-In . SVG Version: 6.00 Build 0)  -->
<svg version="1.1" id="Layer_1" xmlns="http://www.w3.org/2000/svg" xmlns:xlink="http://www.w3.org/1999/xlink" x="0px" y="0px"
	 viewBox="0 0 512 512" style="enable-background:new 0 0 512 512;" xml:space="preserve">
<path style="fill:#FEC986;" d="M296.038,91.845h80.075l-32.03,81.504c0,0-15.134-34.682-46.743-33.459L296.038,91.845z"/>
<rect x="7.766" y="388.359" style="fill:#9B4573;" width="496.471" height="31.794"/>
<polygon style="fill:#FEB860;" points="408.143,203.951 79.834,203.951 79.834,227.974 408.143,227.974 408.143,388.125 
	432.166,388.125 432.166,227.974 432.166,203.951 "/>
<rect x="87.838" y="268.008" style="fill:#FEC986;" width="320.298" height="72.068"/>
<g>
	<rect x="87.838" y="340.076" style="fill:#C8546F;" width="320.298" height="48.045"/>
	<rect x="87.838" y="227.977" style="fill:#C8546F;" width="320.298" height="48.045"/>
</g>
<path style="fill:#9B4573;" d="M247.992,227.974c0,17.69,14.34,32.031,32.031,32.031c17.69,0,32.03-14.341,32.03-32.031h32.03
	v-41.342c0-25.815-20.927-46.743-46.743-46.743l0,0c-27.253,0-49.348,22.095-49.348,49.348v30.728L247.992,227.974L247.992,227.974z
	"/>
<rect x="264.249" y="187.936" style="fill:#FFFFFF;" width="15.532" height="40.038"/>
<path style="fill:#1D1D1B;" d="M439.932,380.359V196.185h-88.083v-8.249c0-1.961-0.105-3.897-0.302-5.806L387.2,84.079h-98.929
	v48.597c-27.11,3.793-48.045,27.121-48.045,55.259v8.249H79.834v15.532h160.393v8.491H80.075v160.151H0v47.562h512v-47.562
	L439.932,380.359L439.932,380.359z M424.4,211.717v168.642h-8.491V220.208h-64.061v-8.491L424.4,211.717L424.4,211.717z
	 M95.607,288.826l24.265-12.132l32.031,16.016l32.03-16.015l32.031,16.015l32.031-16.016l32.031,16.016l32.03-16.015l32.031,16.015
	l32.031-16.016l24.265,12.132v46.696l-24.265-12.132l-32.034,16.015l-32.031-16.016l-32.03,16.015l-32.03-16.015l-32.031,16.016
	l-32.031-16.016l-32.029,16.015l-32.031-16.015l-24.265,12.132v-46.695H95.607z M95.607,352.886l24.265-12.132l32.031,16.016
	l32.03-16.015l32.031,16.015l32.031-16.016l32.031,16.016l32.03-16.015l32.031,16.015l32.031-16.016l24.265,12.132v27.473h-0.241
	H95.607V352.886z M365.025,99.611l-21.482,59.073c-8.547-13.83-22.958-23.66-39.74-26.008V99.611H365.025z M255.758,187.936
	c0-22.211,18.069-40.279,40.279-40.279c22.21,0,40.278,18.069,40.278,40.279v32.272h-32.031v7.766
	c0,13.379-10.885,24.265-24.264,24.265c-13.379,0-24.263-10.886-24.263-24.265V187.936z M240.993,235.74
	c3.623,18.238,19.743,32.031,39.03,32.031c19.286,0,35.412-13.791,39.035-32.031h25.026h7.766h48.529v35.72l-24.265-12.132
	l-32.03,16.016l-32.031-16.016l-32.03,16.015l-32.03-16.015l-32.031,16.016l-32.031-16.016l-32.029,16.015l-32.031-16.015
	L95.606,271.46v-35.72L240.993,235.74L240.993,235.74z M496.468,412.389H15.532v-16.498h64.543h7.766h312.295h15.773h80.559
	L496.468,412.389L496.468,412.389z"/>
<g>
</g>
<g>
</g>
<g>
</g>
<g>
</g>
<g>
</g>
<g>
</g>
<g>
</g>
<g>
</g>
<g>
</g>
<g>
</g>
<g>
</g>
<g>
</g>
<g>
</g>
<g>
</g>
<g>
</g>
</svg>
