<?xml version="1.0" encoding="iso-8859-1"?>
<!-- Generator: Adobe Illustrator 19.0.0, SVG Export Plug-In . SVG Version: 6.00 Build 0)  -->
<svg version="1.1" id="Layer_1" xmlns="http://www.w3.org/2000/svg" xmlns:xlink="http://www.w3.org/1999/xlink" x="0px" y="0px"
	 viewBox="0 0 512 512" style="enable-background:new 0 0 512 512;" xml:space="preserve">
<rect x="335.995" y="110.747" style="fill:#FEB860;" width="127.991" height="40.001"/>
<g>
	<rect x="335.995" y="78.744" style="fill:#FEC986;" width="127.991" height="31.997"/>
	<circle style="fill:#FEC986;" cx="391.992" cy="438.713" r="40.001"/>
</g>
<rect x="176.011" y="182.741" style="fill:#9B4573;" width="327.976" height="127.991"/>
<rect x="176.011" y="310.732" style="fill:#C8546F;" width="327.976" height="111.995"/>
<g>
	<rect x="176.011" y="238.738" style="fill:#FFFFFF;" width="79.992" height="87.993"/>
	<rect x="335.995" y="238.738" style="fill:#FFFFFF;" width="127.991" height="87.993"/>
</g>
<rect x="8.02" y="30.75" style="fill:#FEB860;" width="127.991" height="215.981"/>
<g>
	<rect x="383.994" y="438.713" style="fill:#1D1D1B;" width="15.998" height="15.999"/>
	<rect x="200.006" y="382.726" style="fill:#1D1D1B;" width="279.977" height="15.998"/>
	
		<rect x="391.985" y="256.101" transform="matrix(-0.7071 -0.7071 0.7071 -0.7071 485.7281 758.6494)" style="fill:#1D1D1B;" width="16" height="45.252"/>
	
		<rect x="408.013" y="283.407" transform="matrix(-0.7072 -0.707 0.707 -0.7072 501.8504 797.2706)" style="fill:#1D1D1B;" width="15.998" height="22.625"/>
	
		<rect x="208.025" y="275.415" transform="matrix(-0.7071 -0.7071 0.7071 -0.7071 166.0299 642.2275)" style="fill:#1D1D1B;" width="15.999" height="22.625"/>
	<rect x="96.009" y="374.728" style="fill:#1D1D1B;" width="15.999" height="15.998"/>
	<path style="fill:#1D1D1B;" d="M144.009,254.733H0.021V23.954h143.988V254.733z M16.02,238.734h111.991V39.951H16.02V238.734z"/>
</g>
<path style="fill:#FFFFFF;" d="M48.017,222.735H32.018V54.749h79.994v87.991H48.017V222.735z M48.017,126.743h47.996V70.747H48.017
	V126.743z"/>
<g>
	<path style="fill:#1D1D1B;" d="M511.979,430.718V174.739H168.007v239.981h-55.995V398.72H96.013v31.997h23.999v14.11
		l-13.082,26.165l-26.914-0.069V262.732h-16v208.15l-63.974-0.167L0,486.713l511.959,1.333L512,472.048l-85.313-0.222
		c8.229-8.62,13.298-20.279,13.298-33.109h-15.998c0,17.643-14.354,31.997-31.998,31.997c-17.643,0-31.997-14.354-31.997-31.997
		h-15.998c0,12.739,4.999,24.326,13.125,32.928l-207.97-0.542l-13.138-26.275v-14.11h375.968V430.718z M184.006,414.719v-79.994
		h79.993v-15.999h63.996v15.999h143.987v-15.999h23.999v95.992H184.006V414.719z M184.006,318.728v-71.996h63.994v71.996H184.006z
		 M343.993,318.728v-71.996h111.992v71.996H343.993z M495.981,190.737v111.992h-23.999v-71.995H327.995v71.995h-63.996v-71.995
		h-79.993v-39.997L495.981,190.737L495.981,190.737z M124.793,471.04l3.218-6.436l3.227,6.452L124.793,471.04z"/>
	<polygon style="fill:#1D1D1B;" points="495.981,142.742 200.005,142.742 200.005,158.74 224.002,158.74 224.002,166.74 
		240.002,166.74 240.002,158.74 455.985,158.74 455.985,166.74 471.982,166.74 471.982,158.74 495.981,158.74 	"/>
	<polygon style="fill:#1D1D1B;" points="343.993,118.742 383.99,118.742 383.99,102.745 343.993,102.745 343.993,86.746 
		455.985,86.746 455.985,102.745 415.987,102.745 415.987,118.742 455.985,118.742 455.985,134.742 471.982,134.742 471.982,70.747 
		327.995,70.747 327.995,134.742 343.993,134.742 	"/>
	<rect x="391.992" y="102.749" style="fill:#1D1D1B;" width="15.999" height="15.998"/>
</g>
<g>
</g>
<g>
</g>
<g>
</g>
<g>
</g>
<g>
</g>
<g>
</g>
<g>
</g>
<g>
</g>
<g>
</g>
<g>
</g>
<g>
</g>
<g>
</g>
<g>
</g>
<g>
</g>
<g>
</g>
</svg>
