<?xml version="1.0" encoding="iso-8859-1"?>
<!-- Generator: Adobe Illustrator 19.0.0, SVG Export Plug-In . SVG Version: 6.00 Build 0)  -->
<svg version="1.1" id="Layer_1" xmlns="http://www.w3.org/2000/svg" xmlns:xlink="http://www.w3.org/1999/xlink" x="0px" y="0px"
	 viewBox="0 0 512 512" style="enable-background:new 0 0 512 512;" xml:space="preserve">
<g>
	<path style="fill:#FEC986;" d="M168,295.951c0-13.255-10.745-24-24-24s-24,10.745-24,24v12.391h48.001v-12.391H168z"/>
	<rect x="391.996" y="335.95" style="fill:#FEC986;" width="24" height="71.996"/>
</g>
<rect x="360.001" y="327.954" style="fill:#9B4573;" width="32" height="87.999"/>
<rect x="87.999" y="399.95" style="fill:#FEB860;" width="248.004" height="32"/>
<rect x="87.999" y="311.951" style="fill:#C8546F;" width="248.004" height="87.999"/>
<g>
	<rect y="72.049" style="fill:#1D1D1B;" width="512" height="15.802"/>
	<path style="fill:#1D1D1B;" d="M151.902,265.041V95.95h-15.802v169.091c-13.781,3.525-24,16.045-24,30.91h15.802
		c0-8.877,7.222-16.099,16.098-16.099c8.877,0,16.099,7.222,16.099,16.099h15.802C175.901,281.087,165.683,268.566,151.902,265.041z
		"/>
</g>
<g>
	<rect x="111.997" y="392.049" style="fill:#FFFFFF;" width="16.001" height="15.802"/>
	<rect x="144.003" y="392.049" style="fill:#FFFFFF;" width="16.001" height="15.802"/>
	<rect x="175.997" y="392.049" style="fill:#FFFFFF;" width="16.001" height="15.802"/>
</g>
<g>
	<path style="fill:#1D1D1B;" d="M399.901,320.049h-32v-16.099h-15.802v136h15.802v-16.099h32V320.049z M384.099,408.049h-16.198
		v-72.197h16.198V408.049z"/>
	<rect x="408.093" y="335.95" style="fill:#1D1D1B;" width="15.802" height="71.996"/>
	<path style="fill:#1D1D1B;" d="M80.098,304.049v16.001H55.902V215.95H40.099v128h15.802v-8.099H80.1v104h263.802V304.049H80.098z
		 M95.901,424.05V319.852h232.197v72.197H207.999v15.802h120.099v16.198H95.901z"/>
</g>
<g>
</g>
<g>
</g>
<g>
</g>
<g>
</g>
<g>
</g>
<g>
</g>
<g>
</g>
<g>
</g>
<g>
</g>
<g>
</g>
<g>
</g>
<g>
</g>
<g>
</g>
<g>
</g>
<g>
</g>
</svg>
