<?xml version="1.0" encoding="iso-8859-1"?>
<!-- Generator: Adobe Illustrator 19.0.0, SVG Export Plug-In . SVG Version: 6.00 Build 0)  -->
<svg version="1.1" id="Layer_1" xmlns="http://www.w3.org/2000/svg" xmlns:xlink="http://www.w3.org/1999/xlink" x="0px" y="0px"
	 viewBox="0 0 512 512" style="enable-background:new 0 0 512 512;" xml:space="preserve">
<rect x="231.989" y="7.848" style="fill:#FEC986;" width="48.015" height="32.011"/>
<path style="fill:#9B4573;" d="M272.005,111.726V39.858h-32.009v71.868l0,0c-13.258,0-24.007,10.749-24.007,24.007v24.161h80.024
	v-24.161C296.012,122.475,285.264,111.726,272.005,111.726L272.005,111.726z"/>
<rect x="215.988" y="159.896" style="fill:#FEC986;" width="80.026" height="80.026"/>
<rect x="175.98" y="479.991" style="fill:#FEB860;" width="160.053" height="32.009"/>
<rect x="159.969" y="239.922" style="fill:#C8546F;" width="192.055" height="240.068"/>
<g>
	<rect x="175.98" y="496.149" style="fill:#1D1D1B;" width="160.053" height="15.698"/>
	<polygon style="fill:#1D1D1B;" points="359.878,487.839 152.122,487.839 152.122,255.923 167.82,255.923 167.82,472.142 
		344.18,472.142 344.18,255.923 359.878,255.923 	"/>
	<path style="fill:#1D1D1B;" d="M287.856,47.707h-63.712V0h63.712V47.707z M239.841,32.009h32.317V15.698h-32.317V32.009z"/>
	<path style="fill:#1D1D1B;" d="M279.854,105.01V55.862h-15.698v63.866h7.849c8.91,0,16.158,7.248,16.158,16.157v16.158h-64.326
		v-16.158c0-8.91,7.249-16.157,16.158-16.157h7.849V55.862h-15.698v49.147c-13.784,3.505-24.007,16.02-24.007,30.877v88.027h15.698
		v-56.171h64.327v56.171h15.698v-88.027C303.86,121.028,293.637,108.513,279.854,105.01z"/>
</g>
<g>
	<rect x="248.001" y="176.054" style="fill:#FFFFFF;" width="16.004" height="15.698"/>
	<rect x="231.989" y="200.061" style="fill:#FFFFFF;" width="48.015" height="15.698"/>
	<rect x="184.133" y="239.922" style="fill:#FFFFFF;" width="15.698" height="72.022"/>
	<rect x="208.14" y="327.944" style="fill:#FFFFFF;" width="15.698" height="16.004"/>
	<rect x="240.152" y="271.924" style="fill:#FFFFFF;" width="15.698" height="32.009"/>
	<rect x="280.16" y="359.956" style="fill:#FFFFFF;" width="15.698" height="56.019"/>
</g>
<polygon style="fill:#1D1D1B;" points="383.885,263.925 368.187,263.925 368.187,247.767 143.813,247.767 143.813,263.925 
	128.115,263.925 128.115,232.069 383.885,232.069 "/>
<g>
</g>
<g>
</g>
<g>
</g>
<g>
</g>
<g>
</g>
<g>
</g>
<g>
</g>
<g>
</g>
<g>
</g>
<g>
</g>
<g>
</g>
<g>
</g>
<g>
</g>
<g>
</g>
<g>
</g>
</svg>
