<?xml version="1.0" encoding="iso-8859-1"?>
<!-- Generator: Adobe Illustrator 19.0.0, SVG Export Plug-In . SVG Version: 6.00 Build 0)  -->
<svg version="1.1" id="Layer_1" xmlns="http://www.w3.org/2000/svg" xmlns:xlink="http://www.w3.org/1999/xlink" x="0px" y="0px"
	 viewBox="0 0 511.997 511.997" style="enable-background:new 0 0 511.997 511.997;" xml:space="preserve">
<rect y="24.228" style="fill:#C8546F;" width="511.997" height="24"/>
<rect x="24" y="208.232" style="fill:#FEC986;" width="464.001" height="216.002"/>
<rect x="104.001" y="272.227" style="fill:#FEB860;" width="72.001" height="16"/>
<g>
	<rect x="88.003" y="208.232" style="fill:#9B4573;" width="104.001" height="55.995"/>
	<path style="fill:#9B4573;" d="M144,424.229L144,424.229c-35.347,0-64.001-28.653-64.001-64v-24h128v24
		C207.999,395.576,179.345,424.229,144,424.229z"/>
</g>
<g>
	<rect x="8" y="424.234" style="fill:#C8546F;" width="495.998" height="64.005"/>
	<rect x="8" y="176.225" style="fill:#C8546F;" width="495.998" height="32"/>
</g>
<rect x="8" y="48.226" style="fill:#FEC986;" width="495.998" height="127.999"/>
<g>
	<circle style="fill:#C8546F;" cx="192.004" cy="120.23" r="16"/>
	<circle style="fill:#C8546F;" cx="127.999" cy="120.23" r="16"/>
	<circle style="fill:#C8546F;" cx="63.994" cy="120.23" r="16"/>
</g>
<g>
	<polygon style="fill:#1D1D1B;" points="199.853,272.081 80.147,272.081 80.147,224.229 95.852,224.229 95.852,256.376 
		184.147,256.376 184.147,224.229 199.853,224.229 	"/>
	<polygon style="fill:#1D1D1B;" points="279.999,240.376 223.853,240.376 223.853,232.229 208.147,232.229 208.147,264.229 
		223.853,264.229 223.853,256.082 279.999,256.082 	"/>
	<rect x="104.001" y="280.373" style="fill:#1D1D1B;" width="72.001" height="15.705"/>
	<polygon style="fill:#1D1D1B;" points="247.853,376.229 232.147,376.229 232.147,344.082 223.999,344.082 223.999,328.377 
		247.853,328.377 	"/>
</g>
<g>
	<rect x="216.002" y="448.379" style="fill:#FFFFFF;" width="16" height="15.705"/>
	<rect x="247.999" y="448.379" style="fill:#FFFFFF;" width="16" height="15.705"/>
	<rect x="279.996" y="448.379" style="fill:#FFFFFF;" width="16.001" height="15.705"/>
	<rect x="216.002" y="168.372" style="fill:#FFFFFF;" width="16" height="15.705"/>
	<rect x="247.999" y="168.372" style="fill:#FFFFFF;" width="16" height="15.705"/>
	<rect x="279.996" y="168.372" style="fill:#FFFFFF;" width="16.001" height="15.705"/>
	<rect x="464.001" y="72.381" style="fill:#FFFFFF;" width="16" height="15.705"/>
	<rect x="464.001" y="104.378" style="fill:#FFFFFF;" width="16" height="15.705"/>
	<rect x="464.001" y="136.375" style="fill:#FFFFFF;" width="16" height="15.705"/>
</g>
<g>
	<rect x="360" y="104.378" style="fill:#1D1D1B;" width="80.003" height="15.705"/>
	<rect x="360" y="72.381" style="fill:#1D1D1B;" width="80.003" height="15.705"/>
	<rect x="360" y="136.375" style="fill:#1D1D1B;" width="80.003" height="15.705"/>
	<path style="fill:#1D1D1B;" d="M511.852,216.082V40.376H0.148v175.705h16v200.294h-16v79.706h511.706v-79.706h-16V216.082H511.852z
		 M496.147,432.082v48.295H15.853v-48.295H496.147z M87.852,360.23v-16.147h112.295v16.147c0,30.96-25.187,56.147-56.147,56.147
		S87.852,391.189,87.852,360.23z M215.852,360.23v-31.853H72.147v31.853c0,22.706,10.598,42.97,27.093,56.147H31.853V216.082
		h448.295v200.294H188.759C205.255,403.2,215.852,382.934,215.852,360.23z M15.853,200.377v-16.295H200v-15.705H15.853V56.081
		h480.295v112.295H312v15.705h184.147v16.295H15.853z"/>
	<path style="fill:#1D1D1B;" d="M71.852,97.71V80.229H56.147V97.71c-9.305,3.254-16,12.116-16,22.518
		c0,13.153,10.701,23.852,23.852,23.852s23.852-10.701,23.852-23.852C87.852,109.827,81.157,100.965,71.852,97.71z M64,128.376
		c-4.493,0-8.147-3.654-8.147-8.147s3.654-8.147,8.147-8.147s8.147,3.654,8.147,8.147S68.492,128.376,64,128.376z"/>
	<path style="fill:#1D1D1B;" d="M135.853,97.71V80.229h-15.705V97.71c-9.306,3.254-16.001,12.116-16.001,22.518
		c0,13.153,10.701,23.852,23.853,23.852s23.852-10.701,23.852-23.852C151.853,109.827,145.158,100.965,135.853,97.71z M128,128.376
		c-4.493,0-8.148-3.654-8.148-8.147s3.655-8.147,8.148-8.147c4.493,0,8.147,3.654,8.147,8.147S132.493,128.376,128,128.376z"/>
	<path style="fill:#1D1D1B;" d="M199.853,97.71V80.229h-15.705V97.71c-9.305,3.254-16,12.116-16,22.518
		c0,13.153,10.701,23.852,23.852,23.852c13.152,0,23.852-10.701,23.852-23.852C215.852,109.827,209.158,100.965,199.853,97.71z
		 M192,128.376c-4.493,0-8.147-3.654-8.147-8.147s3.654-8.147,8.147-8.147c4.493,0,8.147,3.654,8.147,8.147
		S196.493,128.376,192,128.376z"/>
</g>
<rect x="367.131" y="365.611" transform="matrix(-0.7526 -0.6585 0.6585 -0.7526 409.4411 906.3184)" style="fill:#FFFFFF;" width="15.706" height="21.26"/>
<g>
	<polygon style="fill:#1D1D1B;" points="397.909,361.971 386.09,351.629 416.147,317.278 416.147,224.229 431.852,224.229 
		431.852,323.18 	"/>
	<rect y="15.915" style="fill:#1D1D1B;" width="511.997" height="15.705"/>
</g>
<g>
</g>
<g>
</g>
<g>
</g>
<g>
</g>
<g>
</g>
<g>
</g>
<g>
</g>
<g>
</g>
<g>
</g>
<g>
</g>
<g>
</g>
<g>
</g>
<g>
</g>
<g>
</g>
<g>
</g>
</svg>
