<?xml version="1.0" encoding="iso-8859-1"?>
<!-- Generator: Adobe Illustrator 19.0.0, SVG Export Plug-In . SVG Version: 6.00 Build 0)  -->
<svg version="1.1" id="Layer_1" xmlns="http://www.w3.org/2000/svg" xmlns:xlink="http://www.w3.org/1999/xlink" x="0px" y="0px"
	 viewBox="0 0 511.995 511.995" style="enable-background:new 0 0 511.995 511.995;" xml:space="preserve">
<path style="fill:#C8546F;" d="M250.831,503.995h-53.659c-47.033,0-85.161-38.128-85.161-85.162V200.021h223.982v218.813
	C335.991,465.867,297.863,503.995,250.831,503.995z"/>
<rect x="112.012" y="200.026" style="fill:#9B4573;" width="223.985" height="39.996"/>
<g>
	<path style="fill:#1D1D1B;" d="M257.888,511.995h-67.776c-47.477,0-86.103-38.626-86.103-86.103V192.021h239.982v233.872
		C343.991,473.369,305.365,511.995,257.888,511.995z M120.01,208.02v217.872c0,38.655,31.448,70.104,70.104,70.104h67.776
		c38.655,0,70.104-31.448,70.104-70.104V208.02H120.01z"/>
	<polygon style="fill:#1D1D1B;" points="407.986,384.006 351.991,384.006 351.991,368.006 391.986,368.006 391.986,208.02 
		351.991,208.02 351.991,192.021 407.986,192.021 	"/>
	<rect x="120.007" y="112.029" style="fill:#1D1D1B;" width="15.999" height="48.001"/>
	<rect x="160.003" y="32.034" style="fill:#1D1D1B;" width="15.999" height="87.997"/>
	<rect x="160.003" y="136.024" style="fill:#1D1D1B;" width="15.999" height="23.995"/>
	<rect x="199.998" y="64.028" style="fill:#1D1D1B;" width="15.999" height="71.997"/>
	<rect x="240.004" y="120.024" style="fill:#1D1D1B;" width="15.999" height="39.996"/>
	
		<rect x="240.278" y="0.042" transform="matrix(-1 -0.0053 0.0053 -1 496.275 105.3972)" style="fill:#1D1D1B;" width="15.999" height="103.999"/>
	<rect x="280" y="80.028" style="fill:#1D1D1B;" width="15.999" height="63.991"/>
	<rect x="311.991" y="144.03" style="fill:#1D1D1B;" width="15.999" height="15.999"/>
</g>
<g>
	<rect x="136.007" y="232.016" style="fill:#FFFFFF;" width="71.997" height="15.999"/>
	<rect x="224.004" y="232.016" style="fill:#FFFFFF;" width="39.996" height="15.999"/>
</g>
<g>
</g>
<g>
</g>
<g>
</g>
<g>
</g>
<g>
</g>
<g>
</g>
<g>
</g>
<g>
</g>
<g>
</g>
<g>
</g>
<g>
</g>
<g>
</g>
<g>
</g>
<g>
</g>
<g>
</g>
</svg>
