<?xml version="1.0" encoding="iso-8859-1"?>
<!-- Generator: Adobe Illustrator 19.0.0, SVG Export Plug-In . SVG Version: 6.00 Build 0)  -->
<svg version="1.1" id="Layer_1" xmlns="http://www.w3.org/2000/svg" xmlns:xlink="http://www.w3.org/1999/xlink" x="0px" y="0px"
	 viewBox="0 0 512.001 512.001" style="enable-background:new 0 0 512.001 512.001;" xml:space="preserve">
<rect x="111.876" y="264.009" style="fill:#FEC986;" width="24.01" height="240.103"/>
<rect x="143.894" y="23.898" style="fill:#C8546F;" width="24.01" height="224.1"/>
<rect x="102.68" y="7.891" style="fill:#9B4573;" width="41.213" height="256.117"/>
<rect x="287.956" y="7.891" style="fill:#FEB860;" width="32.014" height="496.221"/>
<g>
	<path style="fill:#1D1D1B;" d="M327.863,512h-47.797V0h135.948v15.782H295.849v480.435h16.232V247.997
		c0-13.177,10.72-23.898,23.898-23.898h80.035v15.782h-80.035c-4.475,0-8.115,3.64-8.115,8.115V512z"/>
	<rect x="311.966" y="32.014" style="fill:#1D1D1B;" width="104.048" height="15.782"/>
	<rect x="311.966" y="64.028" style="fill:#1D1D1B;" width="104.048" height="15.782"/>
	<rect x="311.966" y="96.041" style="fill:#1D1D1B;" width="104.048" height="15.782"/>
	<rect x="311.966" y="128.059" style="fill:#1D1D1B;" width="104.048" height="15.782"/>
	<rect x="311.966" y="160.065" style="fill:#1D1D1B;" width="104.048" height="15.782"/>
	<rect x="311.966" y="192.083" style="fill:#1D1D1B;" width="104.048" height="15.782"/>
	<rect x="231.939" y="16.007" style="fill:#1D1D1B;" width="16.007" height="15.782"/>
	<rect x="231.939" y="48.022" style="fill:#1D1D1B;" width="16.007" height="15.782"/>
	<rect x="231.939" y="80.038" style="fill:#1D1D1B;" width="16.007" height="15.782"/>
	<rect x="231.939" y="112.045" style="fill:#1D1D1B;" width="16.007" height="15.782"/>
	<rect x="231.939" y="144.062" style="fill:#1D1D1B;" width="16.007" height="15.782"/>
	<rect x="231.939" y="176.079" style="fill:#1D1D1B;" width="16.007" height="15.782"/>
	<rect x="231.939" y="208.097" style="fill:#1D1D1B;" width="16.007" height="15.782"/>
	<rect x="231.939" y="240.103" style="fill:#1D1D1B;" width="16.007" height="15.782"/>
	<path style="fill:#1D1D1B;" d="M223.93,31.789V16.007h-48.133v-0.112h-15.782v0.112h-8.228V0H95.987v271.896h8.003v240.105h39.731
		V271.896h8.066v-16.008h8.228V256h15.782v-0.113h48.133v-15.782h-48.133v-16.232h48.133v-15.782h-48.133V191.86h48.133v-15.782
		h-48.133v-16.232h48.133v-15.782h-48.133v-16.232h48.133v-15.782h-48.133V95.817h48.133V80.035h-48.133V63.804h48.133V48.022
		h-48.133V31.789H223.93z M111.769,15.782h24.234v240.331h-24.234V15.782z M127.938,496.218h-8.166V271.896h8.166V496.218z
		 M160.014,240.106h-8.228V31.789h8.228V240.106z"/>
</g>
<g>
</g>
<g>
</g>
<g>
</g>
<g>
</g>
<g>
</g>
<g>
</g>
<g>
</g>
<g>
</g>
<g>
</g>
<g>
</g>
<g>
</g>
<g>
</g>
<g>
</g>
<g>
</g>
<g>
</g>
</svg>
