<?xml version="1.0" encoding="iso-8859-1"?>
<!-- Generator: Adobe Illustrator 19.0.0, SVG Export Plug-In . SVG Version: 6.00 Build 0)  -->
<svg version="1.1" id="Layer_1" xmlns="http://www.w3.org/2000/svg" xmlns:xlink="http://www.w3.org/1999/xlink" x="0px" y="0px"
	 viewBox="0 0 512.001 512.001" style="enable-background:new 0 0 512.001 512.001;" xml:space="preserve">
<rect x="64.057" y="8.32" style="fill:#9B4573;" width="383.876" height="215.93"/>
<rect x="64.057" y="8.32" style="fill:#C8546F;" width="303.906" height="215.93"/>
<circle style="fill:#FEB860;" cx="391.954" cy="64.296" r="23.992"/>
<circle style="fill:#FEC986;" cx="343.97" cy="64.296" r="23.992"/>
<rect x="64.057" y="288.231" style="fill:#9B4573;" width="383.876" height="215.93"/>
<rect x="64.057" y="288.231" style="fill:#C8546F;" width="303.906" height="215.93"/>
<rect x="64.057" y="328.222" style="fill:#FEB860;" width="383.876" height="47.985"/>
<rect x="64.057" y="328.222" style="fill:#FEC986;" width="295.912" height="47.985"/>
<path style="fill:#1D1D1B;" d="M455.777,232.089H56.224V0h399.553v232.089H455.777z M71.898,216.414h368.204V15.674H71.898V216.414z
	"/>
<rect x="96.053" y="112.448" style="fill:#FFFFFF;" width="159.952" height="15.674"/>
<rect x="96.053" y="144.434" style="fill:#1D1D1B;" width="55.978" height="15.674"/>
<g>
	<rect x="96.053" y="176.431" style="fill:#FFFFFF;" width="31.989" height="15.674"/>
	<rect x="144.038" y="176.431" style="fill:#FFFFFF;" width="31.989" height="15.674"/>
	<rect x="192.022" y="176.431" style="fill:#FFFFFF;" width="31.99" height="15.674"/>
	<rect x="240.007" y="176.431" style="fill:#FFFFFF;" width="31.989" height="15.674"/>
	<rect x="287.991" y="176.431" style="fill:#FFFFFF;" width="31.99" height="15.674"/>
</g>
<g>
	<path style="fill:#1D1D1B;" d="M391.958,32.472c-9.566,0-18.153,4.247-23.992,10.949c-5.839-6.701-14.427-10.949-23.992-10.949
		c-17.551,0-31.829,14.278-31.829,31.829s14.278,31.829,31.829,31.829c9.566,0,18.153-4.248,23.992-10.949
		c5.839,6.701,14.427,10.949,23.992,10.949c17.551,0,31.829-14.279,31.829-31.829S409.509,32.472,391.958,32.472z M343.972,80.458
		c-8.907,0-16.155-7.248-16.155-16.155s7.248-16.155,16.155-16.155c8.908,0,16.155,7.248,16.155,16.155
		C360.128,73.21,352.88,80.458,343.972,80.458z M391.958,80.458c-8.907,0-16.155-7.248-16.155-16.155s7.248-16.155,16.155-16.155
		s16.155,7.248,16.155,16.155C408.113,73.21,400.865,80.458,391.958,80.458z"/>
	<path style="fill:#1D1D1B;" d="M56.224,279.911v232.09h399.553v-232.09H56.224z M440.103,295.586v24.796H71.898v-24.796H440.103z
		 M440.103,336.056v32.31H71.898v-32.31H440.103z M71.898,496.326V384.04h368.204v112.285H71.898z"/>
</g>
<rect x="327.982" y="400.355" style="fill:#FFFFFF;" width="87.975" height="15.674"/>
<g>
	<rect x="287.991" y="400.355" style="fill:#1D1D1B;" width="23.992" height="15.674"/>
	<rect x="248.001" y="400.355" style="fill:#1D1D1B;" width="23.992" height="15.674"/>
	<rect x="96.053" y="456.334" style="fill:#1D1D1B;" width="15.995" height="15.674"/>
</g>
<rect x="120.046" y="456.334" style="fill:#FFFFFF;" width="15.995" height="15.674"/>
<rect x="144.038" y="456.334" style="fill:#1D1D1B;" width="15.995" height="15.674"/>
<rect x="168.03" y="456.334" style="fill:#FFFFFF;" width="15.995" height="15.674"/>
<g>
</g>
<g>
</g>
<g>
</g>
<g>
</g>
<g>
</g>
<g>
</g>
<g>
</g>
<g>
</g>
<g>
</g>
<g>
</g>
<g>
</g>
<g>
</g>
<g>
</g>
<g>
</g>
<g>
</g>
</svg>
