<?xml version="1.0" encoding="iso-8859-1"?>
<!-- Generator: Adobe Illustrator 19.0.0, SVG Export Plug-In . SVG Version: 6.00 Build 0)  -->
<svg version="1.1" id="Layer_1" xmlns="http://www.w3.org/2000/svg" xmlns:xlink="http://www.w3.org/1999/xlink" x="0px" y="0px"
	 viewBox="0 0 512 512" style="enable-background:new 0 0 512 512;" xml:space="preserve">
<circle style="fill:#C8546F;" cx="256.001" cy="256.001" r="248.189"/>
<path style="fill:#9B4573;" d="M256,504.188C118.93,504.188,7.812,393.07,7.812,256S118.93,7.812,256,7.812"/>
<circle style="fill:#FEB860;" cx="256.001" cy="256.001" r="200.149"/>
<path style="fill:#FEC986;" d="M256,456.151c-110.541,0-200.151-89.61-200.151-200.151c0-110.54,89.61-200.151,200.151-200.151"/>
<g>
	<path style="fill:#1D1D1B;" d="M256,512c-68.38,0-132.667-26.628-181.019-74.981S0,324.38,0,256S26.628,123.332,74.981,74.981
		C123.333,26.628,187.62,0,256,0s132.667,26.628,181.019,74.981C485.372,123.332,512,187.619,512,255.999
		s-26.628,132.667-74.981,181.019C388.668,485.372,324.38,512,256,512z M256,15.624c-64.207,0-124.57,25.003-169.971,70.405
		C40.628,131.43,15.624,191.793,15.624,256s25.003,124.569,70.405,169.971S191.794,496.376,256,496.376
		s124.57-25.003,169.971-70.405c45.401-45.401,70.405-105.765,70.405-169.972s-25.003-124.57-70.405-169.971
		S320.206,15.624,256,15.624z"/>
	<path style="fill:#1D1D1B;" d="M256,45.956c-115.819,0-210.044,94.226-210.044,210.043c0,115.819,94.226,210.044,210.044,210.044
		s210.044-94.226,210.044-210.044C466.044,140.181,371.819,45.956,256,45.956z M263.812,450.249v-18.116h-15.624v18.116
		C144.593,446.134,61.58,360.586,61.58,256c0-0.066,0.002-0.128,0.002-0.194h18.285v-15.624H62.226
		c7.87-97.268,87.642-174.525,185.962-178.432v18.117h15.624V61.75c98.32,3.907,178.092,81.164,185.961,178.432h-17.64v15.624
		h18.285c0,0.066,0.002,0.128,0.002,0.194C450.42,360.586,367.407,446.134,263.812,450.249z"/>
</g>
<g>
	<path style="fill:#FFFFFF;" d="M208.601,249.37c1.696-2.401,2.549-4.723,2.549-6.966c0-2.235-0.735-4.111-2.212-5.621
		c-1.47-1.501-3.362-2.252-5.669-2.252c-4.222,0-8.225,3.011-12.009,9.031l-12.009-7.114c3.143-4.863,6.583-8.546,10.328-11.048
		c3.746-2.495,8.523-3.745,14.316-3.745s10.891,1.845,15.278,5.528c4.386,3.683,6.583,8.693,6.583,15.035
		c0,3.455-0.883,6.771-2.643,9.944c-1.767,3.168-5.011,7.217-9.757,12.151l-12.103,12.588h26.52v13.447h-47.364v-11.141
		l19.695-20.179C204.074,254.992,206.904,251.77,208.601,249.37z"/>
	<path style="fill:#FFFFFF;" d="M263.408,261.332v-11.719h14.409v11.719h7.592v12.971h-7.592v16.043h-14.409v-16.043h-26.997
		v-11.432l23.924-39.678h16.333l-22.767,38.137h9.507V261.332z"/>
	<path style="fill:#FFFFFF;" d="M322.757,245.579h9.992v44.768h-9.992v-17.615h-17.81v17.615h-9.984v-44.768h9.984v18.701h17.811
		v-18.701H322.757z"/>
</g>
<g>
	<path style="fill:#1D1D1B;" d="M384.096,210.986l-39.491,39.489l11.048,11.049l20.632-20.63v15.106
		c0,66.326-53.959,120.285-120.284,120.285s-120.285-53.96-120.285-120.285c0-10.079,1.248-20.09,3.708-29.756l-15.142-3.853
		c-2.78,10.925-4.19,22.234-4.19,33.61c0,74.94,60.969,135.91,135.91,135.91c74.94,0,135.909-60.969,135.909-135.91v-15.106
		l20.632,20.63l11.047-11.049L384.096,210.986z"/>
	<path style="fill:#1D1D1B;" d="M256,135.716h16.012v-15.624H256c-3.227,0-6.485,0.114-9.685,0.34l1.098,15.586
		C250.249,135.818,253.138,135.716,256,135.716z"/>
	<path style="fill:#1D1D1B;" d="M232.524,138.004l-3.03-15.328c-11.116,2.197-21.937,5.796-32.16,10.695l6.752,14.09
		C213.127,143.129,222.694,139.947,232.524,138.004z"/>
	<path style="fill:#1D1D1B;" d="M158.431,185.638l-12.664-9.151c-6.649,9.202-12.121,19.206-16.267,29.732l14.538,5.725
		C147.704,202.631,152.548,193.78,158.431,185.638z"/>
	<path style="fill:#1D1D1B;" d="M190.979,154.786l-8.457-13.138c-9.513,6.125-18.255,13.434-25.981,21.728l11.432,10.651
		C174.815,166.681,182.557,160.208,190.979,154.786z"/>
</g>
<g>
</g>
<g>
</g>
<g>
</g>
<g>
</g>
<g>
</g>
<g>
</g>
<g>
</g>
<g>
</g>
<g>
</g>
<g>
</g>
<g>
</g>
<g>
</g>
<g>
</g>
<g>
</g>
<g>
</g>
</svg>
