<?xml version="1.0" encoding="iso-8859-1"?>
<!-- Generator: Adobe Illustrator 19.0.0, SVG Export Plug-In . SVG Version: 6.00 Build 0)  -->
<svg version="1.1" id="Layer_1" xmlns="http://www.w3.org/2000/svg" xmlns:xlink="http://www.w3.org/1999/xlink" x="0px" y="0px"
	 viewBox="0 0 512 512" style="enable-background:new 0 0 512 512;" xml:space="preserve">
<path style="fill:#FEB860;" d="M376.053,504.109H199.976h-64.028v-320.14V71.919V23.898V7.891h240.106v64.028H254.666l0,0
	c-29.373,1.222-52.738,27.231-52.738,56.905c0,30.455,24.689,55.144,55.144,55.144c30.455,0,55.144-24.689,55.144-55.144
	c0-0.296-0.018-0.587-0.022-0.881h63.858v376.165"/>
<g>
	<rect x="135.949" y="472.095" style="fill:#FEC986;" width="240.103" height="32.014"/>
	<circle style="fill:#FEC986;" cx="256.001" cy="376.053" r="80.038"/>
</g>
<g>
	<path style="fill:#1D1D1B;" d="M383.944,512H128.056V0h255.888v79.811H256c-13.683,0-26.767,5.855-35.896,16.064
		c-9.252,10.348-13.487,23.725-11.923,37.667c2.441,21.755,19.965,39.482,41.669,42.154c14.01,1.725,27.486-2.403,37.949-11.62
		c10.325-9.094,16.277-22.192,16.333-35.934l0.032-7.831l79.779-0.287V512H383.944z M143.838,496.218h224.323V135.864l-48.761,0.176
		c-1.96,15.325-9.44,29.55-21.168,39.881c-13.695,12.063-32.031,17.692-50.31,15.442c-28.869-3.553-52.179-27.13-55.425-56.059
		c-2.041-18.198,3.733-36.404,15.841-49.946c12.119-13.554,29.49-21.327,47.661-21.327h112.163V15.782H143.838V496.218z"/>
	<path style="fill:#1D1D1B;" d="M318.172,313.879c-34.283-34.283-90.064-34.283-124.347,0s-34.283,90.065,0,124.347
		c16.607,16.607,38.687,25.753,62.173,25.753s45.566-9.145,62.173-25.753C352.455,403.944,352.455,348.162,318.172,313.879z
		 M204.986,325.039c14.066-14.066,32.537-21.097,51.013-21.097c15.995,0,31.989,5.284,45.122,15.828L199.717,421.174
		C176.994,392.873,178.743,351.282,204.986,325.039z M307.013,427.066c-26.243,26.243-67.834,27.992-96.136,5.268L312.281,330.93
		C335.005,359.232,333.256,400.823,307.013,427.066z"/>
</g>
<g>
</g>
<g>
</g>
<g>
</g>
<g>
</g>
<g>
</g>
<g>
</g>
<g>
</g>
<g>
</g>
<g>
</g>
<g>
</g>
<g>
</g>
<g>
</g>
<g>
</g>
<g>
</g>
<g>
</g>
</svg>
