<?xml version="1.0" encoding="iso-8859-1"?>
<!-- Generator: Adobe Illustrator 19.0.0, SVG Export Plug-In . SVG Version: 6.00 Build 0)  -->
<svg version="1.1" id="Layer_1" xmlns="http://www.w3.org/2000/svg" xmlns:xlink="http://www.w3.org/1999/xlink" x="0px" y="0px"
	 viewBox="0 0 512 512" style="enable-background:new 0 0 512 512;" xml:space="preserve">
<rect x="216.524" y="7.891" style="fill:#9B4573;" width="202.204" height="400.179"/>
<rect x="346.708" y="7.891" style="fill:#FEC986;" width="40.014" height="400.179"/>
<rect x="90.591" y="103.933" style="fill:#C8546F;" width="208.097" height="400.179"/>
<path style="fill:#1D1D1B;" d="M302.81,512H82.703V97.298H302.81V512z M98.485,496.218h188.542V113.08H98.485V496.218z"/>
<g>
	<path style="fill:#FFFFFF;" d="M236.471,203.371c0-26.299-21.396-47.695-47.695-47.695c-26.3,0-47.696,21.396-47.696,47.695
		c0,23.3,16.8,42.739,38.919,46.872v30.082h15.782v-29.778C218.771,247.148,236.471,227.289,236.471,203.371z M188.776,235.283
		c-17.597,0-31.913-14.316-31.913-31.912s14.316-31.912,31.913-31.912c17.596,0,31.912,14.316,31.912,31.912
		S206.373,235.283,188.776,235.283z"/>
	<rect x="180.003" y="290.05" style="fill:#FFFFFF;" width="15.782" height="155.678"/>
	<polygon style="fill:#FFFFFF;" points="244.43,434.162 207.35,434.162 207.35,418.38 228.648,418.38 228.648,375.784 
		207.35,375.784 207.35,360.001 244.43,360.001 	"/>
</g>
<path style="fill:#1D1D1B;" d="M209.189,0v85.729h15.782V15.782h110.704V398.92h-21.298v15.782h114.919V0H209.189z M351.458,15.782
	h23.136V398.92h-23.136V15.782z M413.515,398.92h-23.137V15.782h23.137V398.92z"/>
<rect x="246.269" y="48.652" style="fill:#FFFFFF;" width="68.108" height="15.782"/>
<g>
</g>
<g>
</g>
<g>
</g>
<g>
</g>
<g>
</g>
<g>
</g>
<g>
</g>
<g>
</g>
<g>
</g>
<g>
</g>
<g>
</g>
<g>
</g>
<g>
</g>
<g>
</g>
<g>
</g>
</svg>
