<?xml version="1.0" encoding="iso-8859-1"?>
<!-- Generator: Adobe Illustrator 19.0.0, SVG Export Plug-In . SVG Version: 6.00 Build 0)  -->
<svg version="1.1" id="Layer_1" xmlns="http://www.w3.org/2000/svg" xmlns:xlink="http://www.w3.org/1999/xlink" x="0px" y="0px"
	 viewBox="0 0 512 512" style="enable-background:new 0 0 512 512;" xml:space="preserve">
<path style="fill:#C8546F;" d="M376.084,502.082H199.602h-63.506V184.553V73.416V25.787V9.911h238.148v63.505H253.847l0,0
	c-29.134,1.212-52.308,27.009-52.308,56.441c0,30.207,24.488,54.694,54.694,54.694c30.208,0,54.695-24.488,54.695-54.694
	c0-0.293-0.019-0.582-0.022-0.873h63.337L376.084,502.082"/>
<polygon style="fill:#9B4573;" points="376.084,502.082 136.096,502.082 136.096,455.563 375.845,455.563 "/>
<path style="fill:#1D1D1B;" d="M383.911,512H128.089V0H383.91v79.699h-127.91c-13.706,0-26.811,5.865-35.955,16.091
	c-9.267,10.365-13.509,23.764-11.943,37.729c2.444,21.79,19.998,39.548,41.738,42.223c14.025,1.726,27.53-2.405,38.012-11.639
	c10.341-9.109,16.304-22.228,16.359-35.993l0.031-7.767l79.667-0.287L383.911,512L383.911,512z M143.743,496.346h224.514v-360.58
	l-48.898,0.175c-1.947,15.334-9.425,29.572-21.158,39.908c-13.685,12.053-32.008,17.679-50.272,15.429
	c-28.848-3.551-52.138-27.109-55.381-56.015c-2.04-18.184,3.73-36.375,15.829-49.907c12.11-13.544,29.468-21.311,47.624-21.311
	h112.256V15.654H143.743V496.346z"/>
<g>
	<rect x="175.948" y="352.251" style="fill:#FFFFFF;" width="160.107" height="15.654"/>
	<rect x="175.948" y="416.286" style="fill:#FFFFFF;" width="160.107" height="15.654"/>
	<rect x="175.948" y="448.313" style="fill:#FFFFFF;" width="160.107" height="15.654"/>
	<rect x="175.948" y="384.268" style="fill:#FFFFFF;" width="48.036" height="15.654"/>
</g>
<g>
</g>
<g>
</g>
<g>
</g>
<g>
</g>
<g>
</g>
<g>
</g>
<g>
</g>
<g>
</g>
<g>
</g>
<g>
</g>
<g>
</g>
<g>
</g>
<g>
</g>
<g>
</g>
<g>
</g>
</svg>
