<?xml version="1.0" encoding="iso-8859-1"?>
<!-- Generator: Adobe Illustrator 19.0.0, SVG Export Plug-In . SVG Version: 6.00 Build 0)  -->
<svg version="1.1" id="Layer_1" xmlns="http://www.w3.org/2000/svg" xmlns:xlink="http://www.w3.org/1999/xlink" x="0px" y="0px"
	 viewBox="0 0 512 512" style="enable-background:new 0 0 512 512;" xml:space="preserve">
<rect x="39.998" y="128.003" style="fill:#9B4573;" width="432.006" height="175.999"/>
<g>
	<path style="fill:#FEB860;" d="M240,240H120v-37.057c0-10.462,8.481-18.943,18.943-18.943h82.114
		c10.463,0,18.943,8.481,18.943,18.943V240H240z"/>
	<path style="fill:#FEB860;" d="M392,240H272v-33.392C272,194.122,282.123,184,294.608,184h80.725
		c9.205,0,16.667,7.462,16.667,16.666V240H392z"/>
</g>
<path style="fill:#FEC986;" d="M440.001,304H72v-34.964C72,253,85,240,101.036,240h314.767c13.364,0,24.198,10.834,24.198,24.198
	V304z"/>
<rect x="8" y="304.003" style="fill:#C8546F;" width="495.997" height="39.998"/>
<g>
	<path style="fill:#1D1D1B;" d="M512,296H0v56h64v39.999h16V352h352v39.999h16V352h64L512,296L512,296z M496.001,336.001H16v-24.002
		h480V336.001z"/>
	<path style="fill:#1D1D1B;" d="M448,288h-16v-16.692C432,258.456,421.544,248,408.691,248H103.309
		C90.456,248,80,258.456,80,271.309V288H64v-16.692C64,249.634,81.634,232,103.309,232h305.382C430.366,232,448,249.634,448,271.309
		L448,288L448,288z"/>
	<polygon style="fill:#1D1D1B;" points="480,288 464.001,288 464.001,136 48,136 48,288 32,288 32,120.001 480,120.001 	"/>
	<path style="fill:#1D1D1B;" d="M248,224h-16v-19.92c0-6.662-5.419-12.081-12.08-12.081h-79.838
		c-6.662,0-12.081,5.419-12.081,12.081V224h-16v-19.92c0-15.484,12.597-28.08,28.081-28.08h79.838
		c15.483,0,28.08,12.596,28.08,28.08L248,224L248,224z"/>
	<path style="fill:#1D1D1B;" d="M400,224h-16v-19.92c0-6.662-5.419-12.081-12.081-12.081H292.08c-6.661,0-12.08,5.419-12.08,12.081
		V224h-16v-19.92c0-15.484,12.597-28.08,28.08-28.08h79.838c15.484,0,28.081,12.596,28.081,28.08V224z"/>
</g>
<g>
</g>
<g>
</g>
<g>
</g>
<g>
</g>
<g>
</g>
<g>
</g>
<g>
</g>
<g>
</g>
<g>
</g>
<g>
</g>
<g>
</g>
<g>
</g>
<g>
</g>
<g>
</g>
<g>
</g>
</svg>
