<?xml version="1.0" encoding="iso-8859-1"?>
<!-- Generator: Adobe Illustrator 19.0.0, SVG Export Plug-In . SVG Version: 6.00 Build 0)  -->
<svg version="1.1" id="Layer_1" xmlns="http://www.w3.org/2000/svg" xmlns:xlink="http://www.w3.org/1999/xlink" x="0px" y="0px"
	 viewBox="0 0 511.996 511.996" style="enable-background:new 0 0 511.996 511.996;" xml:space="preserve">
<g>
	<rect x="71.999" y="183.993" style="fill:#FEB860;" width="39.997" height="143.997"/>
	<rect x="400.001" y="183.993" style="fill:#FEB860;" width="39.997" height="143.997"/>
</g>
<g>
	<rect x="32" y="199.994" style="fill:#9B4573;" width="39.997" height="111.996"/>
	<rect x="439.998" y="199.994" style="fill:#9B4573;" width="39.997" height="111.996"/>
</g>
<g>
	<rect x="111.996" y="168.003" style="fill:#C8546F;" width="48.001" height="175.999"/>
	<rect x="351.998" y="168.003" style="fill:#C8546F;" width="48.001" height="175.999"/>
</g>
<g>
	<path style="fill:#1D1D1B;" d="M168,351.998h-63.999v-192H168V351.998z M120,335.999h32.001V175.998H120
		C120,175.998,120,335.999,120,335.999z"/>
	<polygon style="fill:#1D1D1B;" points="96,335.998 64,335.998 64,175.999 96,175.999 96,191.998 80,191.998 80,319.998 96,319.998 
			"/>
	<polygon style="fill:#1D1D1B;" points="56.001,319.997 24,319.997 24,191.999 56.001,191.999 56.001,207.998 39.999,207.998 
		39.999,303.998 56.001,303.998 	"/>
	<rect y="240.001" style="fill:#1D1D1B;" width="16" height="32.033"/>
	<path style="fill:#1D1D1B;" d="M408.001,351.998h-63.999v-192h63.999V351.998z M360,335.999h32.001V175.998H360V335.999z"/>
	<polygon style="fill:#1D1D1B;" points="448.001,335.998 416.001,335.998 416.001,319.998 432.001,319.998 432.001,191.998 
		416.001,191.998 416.001,175.999 448.001,175.999 	"/>
	<polygon style="fill:#1D1D1B;" points="488,319.997 456,319.997 456,303.998 472.001,303.998 472.001,207.998 456,207.998 
		456,191.999 488,191.999 	"/>
	<rect x="495.996" y="240.001" style="fill:#1D1D1B;" width="16" height="32.033"/>
	<rect x="175.999" y="247.996" style="fill:#1D1D1B;" width="159.998" height="16"/>
</g>
<g>
</g>
<g>
</g>
<g>
</g>
<g>
</g>
<g>
</g>
<g>
</g>
<g>
</g>
<g>
</g>
<g>
</g>
<g>
</g>
<g>
</g>
<g>
</g>
<g>
</g>
<g>
</g>
<g>
</g>
</svg>
