<?xml version="1.0" encoding="iso-8859-1"?>
<!-- Generator: Adobe Illustrator 19.0.0, SVG Export Plug-In . SVG Version: 6.00 Build 0)  -->
<svg version="1.1" id="Layer_1" xmlns="http://www.w3.org/2000/svg" xmlns:xlink="http://www.w3.org/1999/xlink" x="0px" y="0px"
	 viewBox="0 0 512 512" style="enable-background:new 0 0 512 512;" xml:space="preserve">
<rect x="8.536" y="7.842" style="fill:#FEC986;" width="495.585" height="495.585"/>
<rect x="48.506" y="167.712" style="fill:#C8546F;" width="167.859" height="335.719"/>
<polygon style="fill:#FFFFFF;" points="421.447,130.6 291.334,130.6 307.117,114.818 295.976,103.678 261.175,138.477 
	295.976,173.279 307.117,162.138 291.334,146.355 421.447,146.355 "/>
<g>
	<path style="fill:#1D1D1B;" d="M512,511.306H0.669L0,0.694h512V511.306z M16.404,495.55h479.841V16.45H15.777L16.404,495.55z"/>
	<polygon style="fill:#1D1D1B;" points="224.24,487.441 208.484,487.441 208.484,175.587 56.381,175.587 56.381,487.441 
		40.625,487.441 40.625,159.831 224.24,159.831 	"/>
	<rect x="168.521" y="311.592" style="fill:#1D1D1B;" width="15.756" height="47.96"/>
</g>
<g>
</g>
<g>
</g>
<g>
</g>
<g>
</g>
<g>
</g>
<g>
</g>
<g>
</g>
<g>
</g>
<g>
</g>
<g>
</g>
<g>
</g>
<g>
</g>
<g>
</g>
<g>
</g>
<g>
</g>
</svg>
