<?xml version="1.0" encoding="iso-8859-1"?>
<!-- Generator: Adobe Illustrator 19.0.0, SVG Export Plug-In . SVG Version: 6.00 Build 0)  -->
<svg version="1.1" id="Layer_1" xmlns="http://www.w3.org/2000/svg" xmlns:xlink="http://www.w3.org/1999/xlink" x="0px" y="0px"
	 viewBox="0 0 504.881 504.881" style="enable-background:new 0 0 504.881 504.881;" xml:space="preserve">
<g>
	<path style="fill:#874771;" d="M138.037,497.028L138.037,497.028c-54.468,0-98.625-44.155-98.625-98.625V106.477
		c0-54.468,44.155-98.625,98.624-98.625l0,0c54.468,0,98.624,44.155,98.624,98.625v291.927
		C236.66,452.873,192.505,497.028,138.037,497.028z"/>
	<path style="fill:#874771;" d="M368.069,497.028L368.069,497.028c-54.468,0-98.625-44.155-98.625-98.625V106.477
		c0-54.468,44.156-98.625,98.625-98.625l0,0c54.468,0,98.624,44.155,98.624,98.625v291.927
		C466.692,452.873,422.538,497.028,368.069,497.028z"/>
</g>
<g>
	<polygon style="fill:#EBB665;" points="362.9,134.092 362.9,189.321 297.162,282.337 297.162,226.117 	"/>
	<polygon style="fill:#EBB665;" points="370.789,134.092 370.789,189.321 440.135,282.337 441.797,236.661 	"/>
	<polygon style="fill:#EBB665;" points="132.502,134.092 132.502,189.321 66.764,282.337 66.764,226.117 	"/>
	<polygon style="fill:#EBB665;" points="140.392,134.092 140.392,189.321 209.739,282.337 211.401,236.661 	"/>
</g>
<g>
	<path style="fill:#222221;" d="M137.05,504.881c-60.887,0-110.422-49.536-110.422-110.422V110.422
		C26.628,49.535,76.163,0,137.049,0c60.887,0,110.422,49.535,110.422,110.421v284.038
		C247.472,455.346,197.937,504.881,137.05,504.881z M137.05,15.705c-52.227,0-94.717,42.49-94.717,94.716v284.038
		c0,52.228,42.49,94.717,94.716,94.717l0,0c52.227,0,94.716-42.49,94.716-94.717V110.422
		C231.767,58.194,189.277,15.705,137.05,15.705z"/>
	<path style="fill:#222221;" d="M367.83,504.881c-60.886,0-110.422-49.536-110.422-110.422V110.422
		C257.408,49.535,306.943,0,367.83,0s110.422,49.535,110.422,110.421v284.038C478.251,455.346,428.716,504.881,367.83,504.881z
		 M367.83,15.705c-52.227,0-94.717,42.49-94.717,94.716v284.038c0,52.228,42.491,94.717,94.717,94.717l0,0
		c52.228,0,94.717-42.49,94.717-94.717V110.422C462.546,58.194,420.057,15.705,367.83,15.705z"/>
	<path style="fill:#222221;" d="M200.207,203.634l-55.305-79.885v-21.254h15.818V86.791h-47.339v15.705h15.816v21.254
		l-55.305,79.885v-14.312H58.188V307.67h15.705v-21.217l63.157-91.227l63.157,91.227v21.217h15.705V189.321h-15.705v14.312H200.207z
		 M73.893,258.862v-27.638l55.305-79.885v27.639L73.893,258.862z M144.902,178.978v-27.639l55.305,79.885v27.638L144.902,178.978z"
		/>
	<path style="fill:#222221;" d="M304.673,203.634v-14.312h-15.705V307.67h15.705v-21.217l63.156-91.227l63.157,91.227v21.217h15.705
		V189.321h-15.705v14.312l-55.305-79.885v-21.254h15.817V86.791h-47.339v15.705h15.817v21.254L304.673,203.634z M304.673,258.862
		v-27.638l55.304-79.885v27.639L304.673,258.862z M375.683,178.978v-27.639l55.305,79.885v27.638L375.683,178.978z"/>
</g>
<g>
</g>
<g>
</g>
<g>
</g>
<g>
</g>
<g>
</g>
<g>
</g>
<g>
</g>
<g>
</g>
<g>
</g>
<g>
</g>
<g>
</g>
<g>
</g>
<g>
</g>
<g>
</g>
<g>
</g>
</svg>
