<?xml version="1.0" encoding="iso-8859-1"?>
<!-- Generator: Adobe Illustrator 19.0.0, SVG Export Plug-In . SVG Version: 6.00 Build 0)  -->
<svg version="1.1" id="Layer_1" xmlns="http://www.w3.org/2000/svg" xmlns:xlink="http://www.w3.org/1999/xlink" x="0px" y="0px"
	 viewBox="0 0 512 512" style="enable-background:new 0 0 512 512;" xml:space="preserve">
<g>
	<rect x="115.937" y="111.94" style="fill:#FEB860;" width="96.037" height="32.014"/>
	<rect x="83.921" y="360.043" style="fill:#FEB860;" width="160.069" height="80.04"/>
</g>
<g>
	<rect x="83.921" y="440.083" style="fill:#C8546F;" width="160.069" height="64.029"/>
	<rect x="83.921" y="143.946" style="fill:#C8546F;" width="160.069" height="216.097"/>
</g>
<polygon style="fill:#FEC986;" points="428.077,207.978 308.023,272.006 308.023,135.946 428.077,135.946 "/>
<polygon style="fill:#9B4573;" points="428.077,504.112 308.023,504.112 308.023,272.006 428.077,207.978 "/>
<g>
	<rect x="115.937" y="112.045" style="fill:#1D1D1B;" width="96.037" height="15.777"/>
	<polygon style="fill:#1D1D1B;" points="227.872,23.896 212.095,23.896 212.095,15.777 139.948,15.777 139.948,0 227.872,0 	"/>
	<path style="fill:#1D1D1B;" d="M76.035,136.062V512h175.848V136.062H76.035z M236.106,151.838v200.32H91.811v-200.32H236.106z
		 M236.106,367.934v64.26H91.811v-64.26H236.106z M91.811,496.223v-48.252h144.295v48.252H91.811z"/>
	<polygon style="fill:#1D1D1B;" points="179.966,88.04 171.847,88.04 171.847,23.896 156.07,23.896 156.07,88.04 147.951,88.04 
		147.951,103.816 179.966,103.816 	"/>
</g>
<g>
	<rect x="107.933" y="384.171" style="fill:#FFFFFF;" width="112.045" height="15.777"/>
	<rect x="139.949" y="408.183" style="fill:#FFFFFF;" width="48.022" height="15.777"/>
</g>
<g>
	<path style="fill:#1D1D1B;" d="M300.135,128.058V512h135.83V128.058H300.135z M420.189,143.834v59.413l-104.277,55.612V143.834
		H420.189z M315.912,496.223V276.739l104.277-55.614v275.098H315.912z"/>
	<rect x="332.034" y="160.069" style="fill:#1D1D1B;" width="24.011" height="15.777"/>
</g>
<g>
	<rect x="332.034" y="368.163" style="fill:#FFFFFF;" width="72.036" height="15.777"/>
	<rect x="332.034" y="392.175" style="fill:#FFFFFF;" width="72.036" height="15.777"/>
	<rect x="348.042" y="416.187" style="fill:#FFFFFF;" width="40.02" height="15.777"/>
</g>
<g>
</g>
<g>
</g>
<g>
</g>
<g>
</g>
<g>
</g>
<g>
</g>
<g>
</g>
<g>
</g>
<g>
</g>
<g>
</g>
<g>
</g>
<g>
</g>
<g>
</g>
<g>
</g>
<g>
</g>
</svg>
