<?xml version="1.0" encoding="iso-8859-1"?>
<!-- Generator: Adobe Illustrator 19.0.0, SVG Export Plug-In . SVG Version: 6.00 Build 0)  -->
<svg version="1.1" id="Layer_1" xmlns="http://www.w3.org/2000/svg" xmlns:xlink="http://www.w3.org/1999/xlink" x="0px" y="0px"
	 viewBox="0 0 512.001 512.001" style="enable-background:new 0 0 512.001 512.001;" xml:space="preserve">
<path style="fill:#FEC986;" d="M261.459,503.028H219.6c-9.745,0-17.645-7.901-17.645-17.645v-2.673
	c0-9.744,7.9-17.645,17.645-17.645h71.201v8.622C290.801,489.891,277.665,503.028,261.459,503.028z"/>
<path style="fill:#9B4573;" d="M296,176L296,176c-8.836,0-16-7.164-16-16.001V8h32v152C312.001,168.837,304.837,176,296,176z"/>
<rect x="280.005" y="8" style="fill:#FEB860;" width="32" height="32"/>
<path style="fill:#1D1D1B;" d="M304,182.575c9.319-3.358,16.001-12.283,16.001-22.744V0h-48.34v159.83
	c0,10.587,6.845,19.6,16.34,22.86v273.31h-67.999c-15.44,0-28,12.561-28,28s12.561,27.999,28,27.999h36c26.467,0,48-21.533,48-48
	V182.575H304z M256.001,496h-36C213.385,496,208,490.617,208,484s5.383-12,12.001-12h66.987
	C283.428,485.786,270.884,496,256.001,496z M304.001,159.83c0,4.504-3.666,8.17-8.171,8.17s-8.171-3.666-8.171-8.17V48h16.341
	L304.001,159.83L304.001,159.83z M304.001,32H287.66V16h16.341V32z"/>
<g>
</g>
<g>
</g>
<g>
</g>
<g>
</g>
<g>
</g>
<g>
</g>
<g>
</g>
<g>
</g>
<g>
</g>
<g>
</g>
<g>
</g>
<g>
</g>
<g>
</g>
<g>
</g>
<g>
</g>
</svg>
