<?xml version="1.0" encoding="iso-8859-1"?>
<!-- Generator: Adobe Illustrator 19.0.0, SVG Export Plug-In . SVG Version: 6.00 Build 0)  -->
<svg version="1.1" id="Layer_1" xmlns="http://www.w3.org/2000/svg" xmlns:xlink="http://www.w3.org/1999/xlink" x="0px" y="0px"
	 viewBox="0 0 512 512" style="enable-background:new 0 0 512 512;" xml:space="preserve">
<g>
	<path style="fill:#9B4573;" d="M380.298,41.266l-3.21-3.21l-16.786-16.788l-8.393-8.393c-7.727-7.727-20.252-7.727-27.977,0
		s-7.727,20.252,0,27.978l8.393,8.392l-33.574,33.574l33.574,33.574l47.975-47.976C387.797,60.922,387.797,48.765,380.298,41.266z"
		/>
	<path style="fill:#9B4573;" d="M424.24,85.207l3.211,3.21l16.786,16.788l8.393,8.393c7.727,7.727,7.727,20.253,0,27.977
		c-7.726,7.727-20.252,7.727-27.977,0l-8.393-8.393l-33.573,33.574l-33.574-33.574l47.975-47.975
		C404.585,77.709,416.742,77.71,424.24,85.207z"/>
</g>
<circle style="fill:#C8546F;" cx="247.937" cy="488.368" r="15.827"/>
<polygon style="fill:#FEB860;" points="73.841,266.796 187.413,150.675 299.326,262.588 184.63,377.584 "/>
<circle style="fill:#9B4573;" cx="116.235" cy="448.804" r="55.393"/>
<path style="fill:#C8546F;" d="M113.408,393.411c15.264,0,29.084,6.176,39.103,16.161l35.925-36.094L76.524,261.564L13.948,324.14
	l74.329,75.305C95.821,395.596,104.356,393.411,113.408,393.411z"/>
<circle style="fill:#FEC986;" cx="116.235" cy="448.804" r="31.654"/>
<g>
	
		<rect x="68.151" y="310.747" transform="matrix(-0.7071 -0.7071 0.7071 -0.7071 -0.8344 636.75)" style="fill:#1D1D1B;" width="126.615" height="15.601"/>
	<path style="fill:#1D1D1B;" d="M116.23,485.3c-9.748,0-18.912-3.796-25.806-10.689c-6.893-6.892-10.689-16.056-10.689-25.806
		c0-9.75,3.796-18.913,10.689-25.806c14.229-14.23,37.382-14.229,51.611-0.001c6.892,6.893,10.69,16.057,10.69,25.807
		c0,9.749-3.796,18.913-10.69,25.806v-0.001C135.143,481.503,125.979,485.3,116.23,485.3z M116.23,427.922
		c-5.351,0-10.7,2.035-14.774,6.109c-3.946,3.946-6.12,9.193-6.12,14.774c0,5.581,2.174,10.827,6.12,14.773
		c3.946,3.947,9.193,6.121,14.774,6.121s10.828-2.174,14.774-6.12v-0.001c3.946-3.946,6.12-9.192,6.12-14.773
		c0-5.581-2.174-10.828-6.12-14.774C126.932,429.958,121.58,427.922,116.23,427.922z"/>
	<polygon style="fill:#1D1D1B;" points="316.017,256.929 305.018,245.865 355.508,195.688 437.859,195.688 437.859,211.289 
		361.941,211.289 	"/>
</g>
<g>
	
		<rect x="157.68" y="221.21" transform="matrix(-0.7071 -0.7071 0.7071 -0.7071 215.3141 547.2071)" style="fill:#FFFFFF;" width="126.615" height="15.601"/>
	
		<rect x="106.887" y="439.333" transform="matrix(-0.7071 -0.7071 0.7071 -0.7071 -120.4677 844.5927)" style="fill:#FFFFFF;" width="15.601" height="15.826"/>
</g>
<g>
	<path style="fill:#1D1D1B;" d="M247.938,512c-13.029,0-23.628-10.599-23.628-23.628s10.599-23.627,23.628-23.627
		c13.028,0,23.627,10.598,23.627,23.627S260.966,512,247.938,512z M247.938,480.347c-4.426,0-8.027,3.601-8.027,8.026
		c0,4.426,3.601,8.027,8.027,8.027c4.425,0,8.026-3.601,8.026-8.027C255.963,483.948,252.363,480.347,247.938,480.347z"/>
	<path style="fill:#1D1D1B;" d="M187.413,139.644L2.917,324.14l74.677,74.678c-2.098,1.624-4.125,3.378-6.048,5.302
		c-24.639,24.64-24.639,64.731,0,89.372c12.319,12.319,28.503,18.48,44.685,18.48s32.365-6.16,44.685-18.48
		c23.307-23.307,24.554-60.429,3.77-85.231l35.621-35.621l39.831,39.83v44.25h15.601v-50.712l-44.4-44.399l99.019-99.019
		L187.413,139.644z M24.98,324.14l162.434-162.435l100.882,100.882L153.273,397.61c-18.131-13.134-41.71-15.443-61.768-6.943
		L24.98,324.14z M149.884,482.459c-18.558,18.558-48.752,18.56-67.308,0c-18.557-18.557-18.557-48.75,0-67.307
		c9.278-9.279,21.467-13.918,33.654-13.918s24.376,4.639,33.654,13.918C168.441,433.709,168.441,463.903,149.884,482.459z"/>
	<path style="fill:#1D1D1B;" d="M386.391,36.456l-28.39-28.39c-10.756-10.754-28.254-10.754-39.01,0
		c-5.21,5.211-8.079,12.137-8.079,19.505c0,7.369,2.87,14.296,8.079,19.505l2.879,2.878l-33.574,33.574l16.788,16.786
		l-72.824,72.825l11.032,11.032l72.825-72.825l16.786,16.788l53.491-53.491c5.099-5.1,7.909-11.882,7.909-19.093
		C394.299,48.338,391.49,41.556,386.391,36.456z M375.358,63.61L332.9,106.07l-22.543-22.543l33.574-33.574l-13.91-13.91
		c-2.263-2.263-3.509-5.271-3.509-8.472c0-3.2,1.246-6.21,3.51-8.472c4.672-4.672,12.274-4.672,16.946,0l28.39,28.39
		C379.804,51.933,379.804,59.166,375.358,63.61z"/>
	<path style="fill:#1D1D1B;" d="M458.723,108.788l-28.391-28.39c-5.099-5.099-11.879-7.909-19.091-7.909c0,0,0,0-0.001,0
		c-7.212,0-13.993,2.808-19.092,7.909l-53.49,53.492l16.786,16.786l-72.824,72.824l11.032,11.032l72.824-72.824l16.786,16.786
		l33.574-33.573l2.878,2.878c5.211,5.21,12.137,8.079,19.505,8.079c7.369,0,14.296-2.87,19.504-8.079
		c5.211-5.21,8.08-12.136,8.08-19.505C466.801,120.925,463.931,113.997,458.723,108.788z M447.69,136.766
		c-2.263,2.263-5.271,3.509-8.472,3.509c-3.2,0-6.21-1.246-8.473-3.51l-13.909-13.908l-33.574,33.573l-22.542-22.542l42.459-42.459
		c4.443-4.446,11.677-4.446,16.122,0l28.39,28.39c2.264,2.263,3.51,5.272,3.51,8.472C451.2,131.494,449.954,134.502,447.69,136.766z
		"/>
	<rect x="445.776" y="195.686" style="fill:#1D1D1B;" width="63.307" height="15.601"/>
</g>
<g>
</g>
<g>
</g>
<g>
</g>
<g>
</g>
<g>
</g>
<g>
</g>
<g>
</g>
<g>
</g>
<g>
</g>
<g>
</g>
<g>
</g>
<g>
</g>
<g>
</g>
<g>
</g>
<g>
</g>
</svg>
