<?xml version="1.0" encoding="iso-8859-1"?>
<!-- Generator: Adobe Illustrator 19.0.0, SVG Export Plug-In . SVG Version: 6.00 Build 0)  -->
<svg version="1.1" id="Layer_1" xmlns="http://www.w3.org/2000/svg" xmlns:xlink="http://www.w3.org/1999/xlink" x="0px" y="0px"
	 viewBox="0 0 512.001 512.001" style="enable-background:new 0 0 512.001 512.001;" xml:space="preserve">
<polygon style="fill:#9B4573;" points="244.152,274.641 268.808,274.676 256,294.236 "/>
<circle style="fill:#FEB860;" cx="256.005" cy="135.884" r="128.039"/>
<circle style="fill:#FEC986;" cx="280.011" cy="111.878" r="88.03"/>
<circle style="fill:#FEB860;" cx="296.014" cy="95.875" r="48.015"/>
<g>
	<rect x="216.143" y="31.851" style="fill:#FFFFFF;" width="15.69" height="16.006"/>
	<rect x="248.16" y="63.857" style="fill:#FFFFFF;" width="15.69" height="16.005"/>
	<rect x="312.174" y="63.857" style="fill:#FFFFFF;" width="15.69" height="16.005"/>
	<rect x="184.136" y="63.857" style="fill:#FFFFFF;" width="15.69" height="16.005"/>
	<rect x="312.174" y="127.882" style="fill:#FFFFFF;" width="15.69" height="16.006"/>
	<rect x="184.136" y="127.882" style="fill:#FFFFFF;" width="15.69" height="16.006"/>
	<rect x="312.174" y="191.906" style="fill:#FFFFFF;" width="15.69" height="16.006"/>
	<rect x="184.136" y="191.906" style="fill:#FFFFFF;" width="15.69" height="16.006"/>
	<rect x="280.167" y="31.851" style="fill:#FFFFFF;" width="15.69" height="16.006"/>
	<rect x="216.143" y="95.875" style="fill:#FFFFFF;" width="15.69" height="16.005"/>
	<rect x="248.16" y="127.882" style="fill:#FFFFFF;" width="15.69" height="16.006"/>
	<rect x="280.167" y="95.875" style="fill:#FFFFFF;" width="15.69" height="16.005"/>
	<rect x="344.182" y="95.875" style="fill:#FFFFFF;" width="15.69" height="16.005"/>
	<rect x="344.182" y="159.889" style="fill:#FFFFFF;" width="15.69" height="16.006"/>
	<rect x="152.129" y="95.875" style="fill:#FFFFFF;" width="15.69" height="16.005"/>
	<rect x="152.129" y="159.889" style="fill:#FFFFFF;" width="15.69" height="16.006"/>
	<rect x="216.143" y="159.889" style="fill:#FFFFFF;" width="15.69" height="16.006"/>
	<rect x="248.16" y="191.906" style="fill:#FFFFFF;" width="15.69" height="16.006"/>
	<rect x="280.167" y="159.889" style="fill:#FFFFFF;" width="15.69" height="16.006"/>
	<rect x="216.143" y="223.913" style="fill:#FFFFFF;" width="15.69" height="16.005"/>
	<rect x="280.167" y="223.913" style="fill:#FFFFFF;" width="15.69" height="16.005"/>
</g>
<path style="fill:#1D1D1B;" d="M391.885,135.884C391.885,60.957,330.927,0,256,0S120.116,60.957,120.116,135.884
	c0,59.141,37.982,109.569,90.83,128.198h-26.968v15.69h32.01c17.737,0,32.167,14.43,32.167,32.168v200.062h15.69V311.939
	c0-17.738,14.43-32.168,32.168-32.168h32.01v-15.69h-26.969C353.903,245.452,391.885,195.024,391.885,135.884z M256,285.729
	c-1.383-2.106-2.919-4.101-4.608-5.958h9.217C258.92,281.628,257.384,283.623,256,285.729z M256,256.078
	c-66.274,0-120.194-53.919-120.194-120.195C135.806,69.609,189.725,15.69,256,15.69c66.276,0,120.195,53.919,120.195,120.194
	C376.195,202.159,322.276,256.078,256,256.078z"/>
<g>
</g>
<g>
</g>
<g>
</g>
<g>
</g>
<g>
</g>
<g>
</g>
<g>
</g>
<g>
</g>
<g>
</g>
<g>
</g>
<g>
</g>
<g>
</g>
<g>
</g>
<g>
</g>
<g>
</g>
</svg>
