<?xml version="1.0" encoding="iso-8859-1"?>
<!-- Generator: Adobe Illustrator 19.0.0, SVG Export Plug-In . SVG Version: 6.00 Build 0)  -->
<svg version="1.1" id="Layer_1" xmlns="http://www.w3.org/2000/svg" xmlns:xlink="http://www.w3.org/1999/xlink" x="0px" y="0px"
	 viewBox="0 0 511.999 511.999" style="enable-background:new 0 0 511.999 511.999;" xml:space="preserve">
<polygon style="fill:#C8546F;" points="504.111,119.938 336.035,119.938 336.035,95.927 448.085,63.914 504.111,63.914 "/>
<rect x="464.208" y="63.914" style="fill:#FFFFFF;" width="15.777" height="24.01"/>
<rect x="7.888" y="392.064" style="fill:#FEB860;" width="496.224" height="32.014"/>
<polygon style="fill:#9B4573;" points="504.111,392.882 7.888,392.882 7.888,368.05 504.111,344.04 "/>
<g>
	<rect x="32.014" y="384.06" style="fill:#FFFFFF;" width="15.777" height="16.007"/>
	<rect x="64.029" y="384.06" style="fill:#FFFFFF;" width="15.777" height="16.007"/>
	<rect x="96.039" y="384.06" style="fill:#FFFFFF;" width="15.777" height="16.007"/>
</g>
<g>
	<rect x="296.016" y="104.042" style="fill:#1D1D1B;" width="24.011" height="15.777"/>
	<path style="fill:#1D1D1B;" d="M511.999,128.733V56.026H446.98l-23.022,6.578V55.91h-15.777v11.201l-16.238,4.639v-7.836h-15.777
		v12.343l-16.238,4.639v-8.979h-15.777v13.486l-16.007,4.574v38.755h128.058V342.55L0,360.465v71.498h40.017v24.126h15.777v-24.126
		h400.409v24.126h15.777v-24.126h40.017v-91.604l-40.017,1.571V128.733C471.98,128.733,511.999,128.733,511.999,128.733z
		 M496.222,356.767v27.404h-368.28v15.777h368.28v16.238H15.777v-40.552L496.222,356.767z M343.924,112.956v-11.079L449.19,71.802
		h47.032v41.153H343.924V112.956z"/>
</g>
<g>
</g>
<g>
</g>
<g>
</g>
<g>
</g>
<g>
</g>
<g>
</g>
<g>
</g>
<g>
</g>
<g>
</g>
<g>
</g>
<g>
</g>
<g>
</g>
<g>
</g>
<g>
</g>
<g>
</g>
</svg>
