<?xml version="1.0" encoding="iso-8859-1"?>
<!-- Generator: Adobe Illustrator 19.0.0, SVG Export Plug-In . SVG Version: 6.00 Build 0)  -->
<svg version="1.1" id="Layer_1" xmlns="http://www.w3.org/2000/svg" xmlns:xlink="http://www.w3.org/1999/xlink" x="0px" y="0px"
	 viewBox="0 0 512 512" style="enable-background:new 0 0 512 512;" xml:space="preserve">
<g>
	<path style="fill:#FEB860;" d="M272.014,295.44v104.683h80.067V256.001h-14.409C323.314,277.874,299.488,292.963,272.014,295.44z"
		/>
	<path style="fill:#FEB860;" d="M175.933,207.96c0-45.941,35.18-83.648,80.067-87.695v-0.378H55.831V231.98h123.445
		C177.114,224.341,175.933,216.291,175.933,207.96z"/>
</g>
<rect x="456.168" y="183.939" style="fill:#9B4573;" width="48.036" height="64.055"/>
<g>
	<rect x="272.012" y="400.123" style="fill:#C8546F;" width="80.064" height="32.027"/>
	<rect x="7.79" y="119.883" style="fill:#C8546F;" width="48.036" height="112.092"/>
</g>
<circle style="fill:#FEC986;" cx="264.002" cy="207.957" r="88.073"/>
<circle style="fill:#C8546F;" cx="264.002" cy="231.985" r="32.028"/>
<g>
	<path style="fill:#1D1D1B;" d="M264.006,271.798c-21.956,0-39.818-17.862-39.818-39.818h15.583
		c0,13.363,10.873,24.235,24.235,24.235c13.363,0,24.235-10.873,24.235-24.235h15.583
		C303.824,253.935,285.962,271.798,264.006,271.798z"/>
	<rect x="207.956" y="192.166" style="fill:#1D1D1B;" width="112.092" height="15.583"/>
	<rect x="223.975" y="168.138" style="fill:#1D1D1B;" width="80.064" height="15.583"/>
</g>
<g>
	<rect x="247.994" y="144.12" style="fill:#FFFFFF;" width="32.027" height="15.583"/>
	<rect x="256.211" y="223.976" style="fill:#FFFFFF;" width="15.583" height="16.013"/>
</g>
<path style="fill:#1D1D1B;" d="M359.874,439.94l-0.002-231.981c0-52.861-43.005-95.865-95.866-95.865L0,112.091v127.68h173.574
	c13.149,37.271,48.718,64.053,90.433,64.053c0.072,0,0.144-0.003,0.216-0.003v136.118h64.053v16.229h15.583v-16.229h16.016V439.94z
	 M15.583,127.674h32.457v96.514H15.583V127.674z M151.697,224.189V183.94h-15.583v40.249h-8.438V183.94h-15.583v40.249h-8.438
	V183.94H88.073v40.249H63.622v-96.514l148.055,0.002c-26.192,17.131-43.536,46.718-43.536,80.283c0,5.531,0.477,10.952,1.381,16.229
	L151.697,224.189L151.697,224.189z M183.724,207.96c0-44.267,36.015-80.282,80.282-80.282c44.268,0,80.283,36.015,80.283,80.282
	s-36.015,80.282-80.283,80.282S183.724,252.227,183.724,207.96z M344.29,260.289l0.002,132.042h-64.486v-89.815
	C306.737,298.031,329.905,282.282,344.29,260.289z M279.805,407.912h64.486v16.445h-64.486V407.912z"/>
<g>
	<rect x="288.239" y="312.049" style="fill:#FFFFFF;" width="15.583" height="16.014"/>
	<rect x="288.239" y="336.068" style="fill:#FFFFFF;" width="15.583" height="16.014"/>
	<rect x="288.239" y="360.086" style="fill:#FFFFFF;" width="15.583" height="16.014"/>
</g>
<path style="fill:#1D1D1B;" d="M512,176.148h-24.02V47.825c0-17.541-14.27-31.812-31.811-31.812h-24.02
	c-17.541,0-31.812,14.271-31.812,31.812v416.35c0,8.949-7.28,16.229-16.229,16.229h-24.02c-8.949,0-16.229-7.28-16.229-16.229
	h-15.583c0,17.541,14.271,31.812,31.812,31.812h24.02c17.541,0,31.812-14.271,31.812-31.812V47.825
	c0-8.949,7.28-16.229,16.229-16.229h24.02c8.948,0,16.228,7.28,16.228,16.229v128.323h-24.02v79.637h8.006v32.242h15.583v-32.241
	h16.444v32.242h15.583v-32.242h8.006v-79.637H512z M463.96,191.731h32.457v48.472H463.96V191.731z"/>
<g>
</g>
<g>
</g>
<g>
</g>
<g>
</g>
<g>
</g>
<g>
</g>
<g>
</g>
<g>
</g>
<g>
</g>
<g>
</g>
<g>
</g>
<g>
</g>
<g>
</g>
<g>
</g>
<g>
</g>
</svg>
