<?xml version="1.0" encoding="iso-8859-1"?>
<!-- Generator: Adobe Illustrator 19.0.0, SVG Export Plug-In . SVG Version: 6.00 Build 0)  -->
<svg version="1.1" id="Layer_1" xmlns="http://www.w3.org/2000/svg" xmlns:xlink="http://www.w3.org/1999/xlink" x="0px" y="0px"
	 viewBox="0 0 512.005 512.005" style="enable-background:new 0 0 512.005 512.005;" xml:space="preserve">
<path style="fill:#FEB860;" d="M448.039,223.946c0-106.059-85.978-192.037-192.035-192.037S63.967,117.887,63.967,223.946H448.039"
	/>
<g>
	<path style="fill:#C8546F;" d="M360.022,223.946h88.016C433.683,45.444,264.005,31.91,264.005,31.91
		S359.573,67.069,360.022,223.946z"/>
	<path style="fill:#C8546F;" d="M151.983,223.362h104.019V31.91C256.003,31.91,153.84,39.871,151.983,223.362z"/>
</g>
<path style="fill:#FEB860;" d="M167.986,423.984H63.967V411.88c0-15.411,12.493-27.904,27.903-27.904h48.212
	c15.411,0,27.904,12.493,27.904,27.904L167.986,423.984L167.986,423.984z"/>
<path style="fill:#FEC986;" d="M440.038,431.986H183.99v-27.7c0-11.216,9.092-20.309,20.309-20.309h233.142
	c1.434,0,2.598,1.163,2.598,2.597v45.413H440.038z"/>
<rect x="55.963" y="423.989" style="fill:#9B4573;" width="400.077" height="24.005"/>
<g>
	<rect x="247.997" y="463.993" style="fill:#1D1D1B;" width="16.004" height="48.012"/>
	<rect x="247.997" y="239.953" style="fill:#1D1D1B;" width="16.004" height="128.023"/>
	<path style="fill:#1D1D1B;" d="M464.043,415.982H47.963v40.008h24.005V512h16.004v-56.011h336.649V512h16.004v-56.011h23.417
		v-40.008H464.043z M448.039,439.987H63.967v-8.002h384.072V439.987z"/>
	<path style="fill:#1D1D1B;" d="M171.987,407.981h-16.004v-2.873c0-7.239-5.889-13.129-13.128-13.129H89.098
		c-7.239,0-13.128,5.89-13.128,13.129v2.873H59.965v-2.873c0-16.064,13.069-29.132,29.132-29.132h53.757
		c16.064,0,29.132,13.068,29.132,29.132v2.873H171.987z"/>
	<path style="fill:#1D1D1B;" d="M452.04,407.981h-16.004v-2.873c0-7.239-5.889-13.129-13.128-13.129H209.121
		c-7.239,0-13.128,5.89-13.128,13.129v2.873h-16.004v-2.873c0-16.064,13.069-29.132,29.132-29.132h213.787
		c16.064,0,29.132,13.068,29.132,29.132V407.981z"/>
	<path style="fill:#1D1D1B;" d="M256.003,23.908c-110.301,0-200.037,89.736-200.037,200.037v8.002h400.076v-8.002
		C456.041,113.644,366.304,23.908,256.003,23.908z M72.14,215.944c3.616-84.07,63.902-153.706,143.531-171.579
		c-5.65,4.314-11.558,9.481-17.463,15.662c-15.845,16.583-28.446,37.078-37.455,60.914c-10.358,27.406-15.959,59.336-16.685,95.003
		H72.14z M248.001,215.944h-87.918c1.337-61.696,18.197-111.412,48.988-144.116c14.693-15.607,29.521-24.101,38.931-28.378v172.493
		H248.001z M264.005,215.944V43.408c9.21,4.166,23.65,12.422,38.222,27.675c31.245,32.702,48.35,82.676,49.697,144.863h-87.919
		V215.944z M367.937,215.944c-0.726-35.667-6.324-67.598-16.684-95.003c-9.009-23.836-21.61-44.331-37.455-60.914
		c-5.905-6.18-11.814-11.348-17.463-15.662c79.629,17.874,139.915,87.51,143.531,171.579H367.937z"/>
	<rect x="247.607" style="fill:#1D1D1B;" width="16.203" height="16.207"/>
</g>
<g>
</g>
<g>
</g>
<g>
</g>
<g>
</g>
<g>
</g>
<g>
</g>
<g>
</g>
<g>
</g>
<g>
</g>
<g>
</g>
<g>
</g>
<g>
</g>
<g>
</g>
<g>
</g>
<g>
</g>
</svg>
