<?xml version="1.0" encoding="iso-8859-1"?>
<!-- Generator: Adobe Illustrator 19.0.0, SVG Export Plug-In . SVG Version: 6.00 Build 0)  -->
<svg version="1.1" id="Layer_1" xmlns="http://www.w3.org/2000/svg" xmlns:xlink="http://www.w3.org/1999/xlink" x="0px" y="0px"
	 viewBox="0 0 512 512" style="enable-background:new 0 0 512 512;" xml:space="preserve">
<g>
	<rect x="103.871" y="284.022" style="fill:#C8546F;" width="64.048" height="24.017"/>
	<rect x="344.069" y="284.022" style="fill:#C8546F;" width="64.058" height="24.017"/>
</g>
<g>
	<rect x="111.884" y="308.039" style="fill:#FEC986;" width="48.044" height="80.073"/>
	<rect x="352.081" y="308.039" style="fill:#FEC986;" width="48.044" height="80.073"/>
</g>
<g>
	<path style="fill:#1D1D1B;" d="M95.868,347.864h-36.03C26.843,347.864,0,321.021,0,288.026s26.843-59.837,59.838-59.837h196.163
		c26.606,0,48.253-21.646,48.253-48.253s-21.646-48.253-48.253-48.253s-48.253,21.646-48.253,48.253H192.16
		c0-35.202,28.639-63.841,63.841-63.841s63.841,28.639,63.841,63.841s-28.639,63.841-63.841,63.841H59.838
		c-24.399,0-44.249,19.85-44.249,44.248c0,24.4,19.85,44.249,44.249,44.249h36.03C95.868,332.276,95.868,347.864,95.868,347.864z"/>
	<rect x="175.931" y="332.274" style="fill:#1D1D1B;" width="160.135" height="15.588"/>
	<path style="fill:#1D1D1B;" d="M452.163,347.864h-36.03v-15.588h36.03c24.399,0,44.248-19.85,44.248-44.249
		c0-24.399-19.85-44.248-44.248-44.248H304.04V228.19h148.123c32.995,0,59.837,26.842,59.837,59.837
		S485.158,347.864,452.163,347.864z"/>
	<path style="fill:#1D1D1B;" d="M167.715,395.904h-63.629v-95.655h63.629V395.904z M119.675,380.315h32.452v-64.478h-32.452
		C119.675,315.837,119.675,380.315,119.675,380.315z"/>
	<path style="fill:#1D1D1B;" d="M407.914,395.904h-63.627v-95.655h63.628v95.655H407.914z M359.875,380.315h32.451v-64.478h-32.451
		V380.315z"/>
	<rect x="103.871" y="276.228" style="fill:#1D1D1B;" width="64.048" height="15.588"/>
	<rect x="344.069" y="276.228" style="fill:#1D1D1B;" width="64.058" height="15.588"/>
</g>
<g>
</g>
<g>
</g>
<g>
</g>
<g>
</g>
<g>
</g>
<g>
</g>
<g>
</g>
<g>
</g>
<g>
</g>
<g>
</g>
<g>
</g>
<g>
</g>
<g>
</g>
<g>
</g>
<g>
</g>
</svg>
