<?xml version="1.0" encoding="iso-8859-1"?>
<!-- Generator: Adobe Illustrator 19.0.0, SVG Export Plug-In . SVG Version: 6.00 Build 0)  -->
<svg version="1.1" id="Layer_1" xmlns="http://www.w3.org/2000/svg" xmlns:xlink="http://www.w3.org/1999/xlink" x="0px" y="0px"
	 viewBox="0 0 511.995 511.995" style="enable-background:new 0 0 511.995 511.995;" xml:space="preserve">
<g>
	<rect x="396.055" y="112.038" style="fill:#9B4573;" width="24.013" height="80.028"/>
	<rect x="83.934" y="112.038" style="fill:#9B4573;" width="24.013" height="80.028"/>
	<rect x="332.029" y="480.174" style="fill:#9B4573;" width="40.014" height="24.013"/>
</g>
<polygon style="fill:#C8546F;" points="372.041,480.174 332.027,480.174 324.023,392.142 380.045,392.142 "/>
<rect x="316.017" y="352.131" style="fill:#9B4573;" width="72.027" height="40.014"/>
<path style="fill:#FEB860;" d="M151.962,272.098L151.962,272.098c-11.05,0-20.008-8.958-20.008-20.007V52.02
	c0-11.049,8.958-20.007,20.008-20.007l0,0c11.049,0,20.007,8.958,20.007,20.007v200.072
	C171.969,263.141,163.012,272.098,151.962,272.098z"/>
<path style="fill:#FEC986;" d="M191.976,272.098L191.976,272.098c-11.049,0-20.007-8.958-20.007-20.007V52.02
	c0-11.049,8.958-20.007,20.007-20.007l0,0c11.049,0,20.007,8.958,20.007,20.007v200.072
	C211.983,263.141,203.026,272.098,191.976,272.098z"/>
<path style="fill:#FEB860;" d="M231.99,272.098L231.99,272.098c-11.049,0-20.007-8.958-20.007-20.007V52.02
	c0-11.049,8.958-20.007,20.007-20.007l0,0c11.05,0,20.007,8.958,20.007,20.007v200.072
	C251.997,263.141,243.041,272.098,231.99,272.098z"/>
<path style="fill:#FEC986;" d="M272.006,272.098L272.006,272.098c-11.05,0-20.008-8.958-20.008-20.007V52.02
	c0-11.049,8.958-20.007,20.008-20.007l0,0c11.049,0,20.007,8.958,20.007,20.007v200.072
	C292.013,263.141,283.055,272.098,272.006,272.098z"/>
<path style="fill:#FEB860;" d="M312.02,272.098L312.02,272.098c-11.049,0-20.007-8.958-20.007-20.007V52.02
	c0-11.049,8.958-20.007,20.007-20.007l0,0c11.049,0,20.007,8.958,20.007,20.007v200.072
	C332.027,263.141,323.069,272.098,312.02,272.098z"/>
<path style="fill:#FEC986;" d="M372.041,352.128V52.02c0-11.049-8.957-20.007-20.007-20.007l0,0
	c-11.049,0-20.007,8.958-20.007,20.007v300.109H372.041z"/>
<g>
	<polygon style="fill:#1D1D1B;" points="419.869,384.139 404.242,384.139 404.242,356.894 420.248,340.889 420.248,288.105 
		435.874,288.105 435.874,347.36 419.869,363.367 	"/>
	<path style="fill:#1D1D1B;" d="M395.859,344.315h-16.006V52.02c0-15.341-12.479-27.82-27.82-27.82
		c-7.07,0-13.528,2.655-18.442,7.015c-4.118-4.319-9.924-7.015-16.363-7.015h-10.418c-5.662,0-10.832,2.086-14.798,5.523
		c-3.967-3.438-9.137-5.523-14.799-5.523h-10.418c-5.661,0-10.831,2.086-14.798,5.523c-3.967-3.438-9.137-5.523-14.798-5.523
		h-10.418c-5.661,0-10.831,2.086-14.798,5.523c-3.967-3.438-9.137-5.523-14.798-5.523h-10.418c-5.661,0-10.831,2.086-14.798,5.523
		c-3.967-3.438-9.137-5.523-14.798-5.523h-10.418c-12.489,0-22.612,10.124-22.612,22.611V257.3
		c0,12.488,10.124,22.611,22.612,22.611h10.418c5.661,0,10.831-2.086,14.798-5.523c3.967,3.438,9.137,5.523,14.798,5.523h10.418
		c5.661,0,10.831-2.086,14.798-5.523c3.967,3.438,9.137,5.523,14.798,5.523H237.2c5.661,0,10.831-2.086,14.798-5.523
		c3.967,3.438,9.137,5.523,14.798,5.523h10.418c5.662,0,10.832-2.086,14.799-5.523c3.967,3.438,9.137,5.523,14.798,5.523h10.418
		c2.439,0,4.785-0.391,6.985-1.105v65.508h-16.006v55.64h8.541l8.003,112.041h54.564l8.003-112.041h8.541v-55.639H395.859z
		 M151.962,264.285c-6.735,0-12.195-5.459-12.195-12.194V52.02c0-6.735,5.46-12.194,12.195-12.194
		c6.734,0,12.194,5.459,12.194,12.194v200.072C164.156,258.826,158.696,264.285,151.962,264.285z M191.976,264.285
		c-6.735,0-12.194-5.459-12.194-12.194V52.02c0-6.735,5.459-12.194,12.194-12.194s12.194,5.459,12.194,12.194v200.072
		C204.17,258.826,198.711,264.285,191.976,264.285z M231.99,264.285c-6.735,0-12.194-5.459-12.194-12.194V52.02
		c0-6.735,5.459-12.194,12.194-12.194c6.735,0,12.194,5.459,12.194,12.194v200.072C244.184,258.826,238.725,264.285,231.99,264.285z
		 M272.005,264.285c-6.735,0-12.194-5.459-12.194-12.194V52.02c0-6.735,5.459-12.194,12.194-12.194S284.2,45.285,284.2,52.02
		v200.072C284.2,258.826,278.739,264.285,272.005,264.285z M312.02,264.285c-6.735,0-12.194-5.459-12.194-12.194V52.02
		c0-6.735,5.459-12.194,12.194-12.194s12.194,5.459,12.194,12.194v200.072C324.214,258.826,318.755,264.285,312.02,264.285z
		 M339.84,257.3V52.02c0-6.724,5.47-12.194,12.194-12.194c6.724,0,12.194,5.47,12.194,12.194v292.295H339.84L339.84,257.3
		L339.84,257.3z M323.834,359.942h56.4v24.388h-56.4V359.942z M339.301,496.37l-0.598-8.383h26.661l-0.598,8.383H339.301z
		 M366.481,472.361h-28.894l-5.172-72.405h39.239L366.481,472.361z"/>
	
		<rect x="243.918" y="144.246" transform="matrix(-5.300000e-004 -1 1 -5.300000e-004 244.1242 548.1131)" style="fill:#1D1D1B;" width="304.11" height="15.626"/>
	<rect x="100.134" y="0.001" style="fill:#1D1D1B;" width="15.626" height="304.11"/>
	<rect x="412.244" y="112.038" style="fill:#1D1D1B;" width="15.626" height="80.028"/>
	<rect x="76.121" y="112.038" style="fill:#1D1D1B;" width="15.626" height="80.028"/>
</g>
<g>
</g>
<g>
</g>
<g>
</g>
<g>
</g>
<g>
</g>
<g>
</g>
<g>
</g>
<g>
</g>
<g>
</g>
<g>
</g>
<g>
</g>
<g>
</g>
<g>
</g>
<g>
</g>
<g>
</g>
</svg>
