<?xml version="1.0" encoding="iso-8859-1"?>
<!-- Generator: Adobe Illustrator 19.0.0, SVG Export Plug-In . SVG Version: 6.00 Build 0)  -->
<svg version="1.1" id="Layer_1" xmlns="http://www.w3.org/2000/svg" xmlns:xlink="http://www.w3.org/1999/xlink" x="0px" y="0px"
	 viewBox="0 0 512 512" style="enable-background:new 0 0 512 512;" xml:space="preserve">
<rect x="112.004" y="279.994" style="fill:#9B4573;" width="287.999" height="128.002"/>
<rect x="112.004" y="279.994" style="fill:#C8546F;" width="240.006" height="128.002"/>
<rect x="143.999" y="312" style="fill:#FFFFFF;" width="223.998" height="64.001"/>
<rect x="112.004" y="407.996" style="fill:#FEC986;" width="287.999" height="95.996"/>
<path style="fill:#9B4573;" d="M184,416c0-39.765,32.236-72,72-72s72,32.236,72,72"/>
<rect x="352" y="407.996" style="fill:#FEB860;" width="48" height="95.996"/>
<rect x="183.999" y="391.999" style="fill:#C8546F;" width="143.999" height="32"/>
<rect x="216.004" y="447.995" style="fill:#FFFFFF;" width="79.999" height="56"/>
<rect x="112.004" y="39.999" style="fill:#FEB860;" width="287.999" height="240.006"/>
<rect x="112.004" y="39.999" style="fill:#FEC986;" width="240.006" height="240.006"/>
<g>
	<rect x="143.999" y="71.999" style="fill:#FFFFFF;" width="32" height="56"/>
	<rect x="208" y="71.999" style="fill:#FFFFFF;" width="32" height="56"/>
	<rect x="272.001" y="71.999" style="fill:#FFFFFF;" width="32" height="56"/>
	<rect x="336.002" y="71.999" style="fill:#FFFFFF;" width="32" height="56"/>
	<rect x="143.999" y="192.002" style="fill:#FFFFFF;" width="32" height="56"/>
	<rect x="208" y="192.002" style="fill:#FFFFFF;" width="32" height="56"/>
	<rect x="272.001" y="192.002" style="fill:#FFFFFF;" width="32" height="56"/>
	<rect x="336.002" y="192.002" style="fill:#FFFFFF;" width="32" height="56"/>
</g>
<rect x="112.004" y="7.999" style="fill:#C8546F;" width="287.999" height="32"/>
<rect x="349.596" y="7.999" style="fill:#9B4573;" width="50.396" height="32"/>
<g>
	<path style="fill:#1D1D1B;" d="M335.837,431.837H176.163V416c0-44.022,35.814-79.837,79.837-79.837s79.837,35.814,79.837,79.837
		v15.837H335.837z M191.837,416.163h128.327V416c0-35.38-28.783-64.163-64.163-64.163S191.838,380.62,191.838,416v0.163H191.837z"/>
	<rect x="223.998" y="384.162" style="fill:#1D1D1B;" width="64.001" height="15.674"/>
	<rect x="128.002" y="400.159" style="fill:#1D1D1B;" width="39.999" height="15.674"/>
	<rect x="343.996" y="400.159" style="fill:#1D1D1B;" width="39.999" height="15.674"/>
	<path style="fill:#1D1D1B;" d="M407.837,496.163v-496H104.163v496.001H0v15.674h512v-15.674H407.837V496.163z M119.837,15.836
		h272.326v480.328h-64.327V440h-15.674v56.164h-8.326v-56h-95.674v56h-8.326V440h-15.674v56.164h-64.327V15.836H119.837z
		 M288.163,496.163h-64.327v-40.326h64.327V496.163z"/>
	<rect x="128.002" y="32.163" style="fill:#1D1D1B;" width="256.004" height="15.674"/>
	<path style="fill:#1D1D1B;" d="M183.837,135.837h-47.674V64.162h47.674V135.837z M151.837,120.163h16.327V79.836h-16.327V120.163z"
		/>
	<path style="fill:#1D1D1B;" d="M247.837,135.837h-47.673V64.162h47.674v71.675H247.837z M215.837,120.163h16.327V79.836h-16.327
		V120.163z"/>
	<path style="fill:#1D1D1B;" d="M311.837,135.837h-47.674V64.162h47.674V135.837z M279.837,120.163h16.327V79.836h-16.327V120.163z"
		/>
	<path style="fill:#1D1D1B;" d="M375.837,135.837h-47.674V64.162h47.674V135.837z M343.837,120.163h16.327V79.836h-16.327V120.163z"
		/>
	<rect x="128.002" y="152.16" style="fill:#1D1D1B;" width="256.004" height="15.674"/>
	<path style="fill:#1D1D1B;" d="M183.837,255.836h-47.674v-71.674h47.674V255.836z M151.837,240.162h16.327v-40.326h-16.327V240.162
		z"/>
	<path style="fill:#1D1D1B;" d="M247.837,255.836h-47.673v-71.674h47.674v71.674H247.837z M215.837,240.162h16.327v-40.326h-16.327
		V240.162z"/>
	<path style="fill:#1D1D1B;" d="M311.837,255.836h-47.674v-71.674h47.674V255.836z M279.837,240.162h16.327v-40.326h-16.327V240.162
		z"/>
	<path style="fill:#1D1D1B;" d="M375.837,255.836h-47.674v-71.674h47.674V255.836z M343.837,240.162h16.327v-40.326h-16.327V240.162
		z"/>
	<rect x="128.002" y="272.157" style="fill:#1D1D1B;" width="256.004" height="15.674"/>
	<polygon style="fill:#1D1D1B;" points="375.837,383.837 336,383.837 336,368.163 360.164,368.163 360.164,319.836 151.837,319.836 
		151.837,368.163 176,368.163 176,383.837 136.164,383.837 136.164,304.162 375.837,304.162 	"/>
	
		<rect x="168.162" y="332.688" transform="matrix(-0.7071 -0.7071 0.7071 -0.7071 57.203 711.6985)" style="fill:#1D1D1B;" width="15.674" height="22.627"/>
	
		<rect x="328.161" y="332.687" transform="matrix(-0.7071 -0.7071 0.7071 -0.7071 330.3384 824.8311)" style="fill:#1D1D1B;" width="15.674" height="22.627"/>
</g>
<g>
</g>
<g>
</g>
<g>
</g>
<g>
</g>
<g>
</g>
<g>
</g>
<g>
</g>
<g>
</g>
<g>
</g>
<g>
</g>
<g>
</g>
<g>
</g>
<g>
</g>
<g>
</g>
<g>
</g>
</svg>
