<?xml version="1.0" encoding="iso-8859-1"?>
<!-- Generator: Adobe Illustrator 19.0.0, SVG Export Plug-In . SVG Version: 6.00 Build 0)  -->
<svg version="1.1" id="Layer_1" xmlns="http://www.w3.org/2000/svg" xmlns:xlink="http://www.w3.org/1999/xlink" x="0px" y="0px"
	 viewBox="0 0 512 512" style="enable-background:new 0 0 512 512;" xml:space="preserve">
<rect x="256" y="116.001" style="fill:#9B4573;" width="104.001" height="32"/>
<path style="fill:#C8546F;" d="M408,300.597l-304-0.596v-12.182c0-41.873,33.945-75.819,75.819-75.819H408V300.597z"/>
<rect x="48.001" y="300.005" style="fill:#FEC986;" width="415.995" height="95.995"/>
<rect x="48.001" y="364.005" style="fill:#FEB860;" width="415.995" height="32"/>
<rect y="388.099" style="fill:#1D1D1B;" width="512" height="15.802"/>
<g>
	<rect x="344.093" y="211.996" style="fill:#FFFFFF;" width="15.802" height="24"/>
	<rect x="368.103" y="211.996" style="fill:#FFFFFF;" width="15.802" height="24"/>
</g>
<g>
	<path style="fill:#1D1D1B;" d="M367.901,155.901H248.099v-47.802h119.803V155.901z M263.901,140.099h88.198v-16.198h-88.198
		V140.099z"/>
	<polygon style="fill:#1D1D1B;" points="391.901,124.099 391.901,116 376.099,116 376.099,148 391.901,148 391.901,139.902 
		400.099,139.902 400.099,196.001 415.901,196.001 415.901,124.099 	"/>
	<polygon style="fill:#1D1D1B;" points="224.099,124.099 200.099,124.099 200.099,196.001 215.902,196.001 215.902,139.902 
		224.099,139.902 224.099,148 239.901,148 239.901,116 224.099,116 	"/>
	<rect x="128" y="268.095" style="fill:#1D1D1B;" width="263.996" height="15.802"/>
	<polygon style="fill:#1D1D1B;" points="471.902,380 456.099,380 456.099,307.902 424,307.902 424,292.1 471.902,292.1 	"/>
	<polygon style="fill:#1D1D1B;" points="55.902,380 40.099,380 40.099,292.1 88,292.1 88,307.902 55.902,307.902 	"/>
</g>
<g>
	<rect x="71.996" y="324.099" style="fill:#FFFFFF;" width="16.001" height="15.802"/>
	<rect x="104.001" y="324.099" style="fill:#FFFFFF;" width="16.001" height="15.802"/>
	<rect x="135.996" y="324.099" style="fill:#FFFFFF;" width="16.001" height="15.802"/>
</g>
<g>
	<rect x="384" y="356.104" style="fill:#1D1D1B;" width="56.004" height="15.802"/>
	<path style="fill:#1D1D1B;" d="M96,307.902h319.901V204.1h-239.9c-44.057,0-79.901,35.843-79.901,79.901L96,307.902z
		 M400.099,292.1H111.84V284h0.061c0-35.345,28.754-64.099,64.099-64.099H400.1V292.1H400.099z"/>
</g>
<g>
</g>
<g>
</g>
<g>
</g>
<g>
</g>
<g>
</g>
<g>
</g>
<g>
</g>
<g>
</g>
<g>
</g>
<g>
</g>
<g>
</g>
<g>
</g>
<g>
</g>
<g>
</g>
<g>
</g>
</svg>
