<?xml version="1.0" encoding="iso-8859-1"?>
<!-- Generator: Adobe Illustrator 19.0.0, SVG Export Plug-In . SVG Version: 6.00 Build 0)  -->
<svg version="1.1" id="Layer_1" xmlns="http://www.w3.org/2000/svg" xmlns:xlink="http://www.w3.org/1999/xlink" x="0px" y="0px"
	 viewBox="0 0 512.001 512.001" style="enable-background:new 0 0 512.001 512.001;" xml:space="preserve">
<path style="fill:#FEC986;" d="M256.001,7.821C118.935,7.821,7.822,118.934,7.822,256.001
	c0,137.065,111.113,248.179,248.179,248.179c137.065,0,248.179-111.114,248.179-248.179
	C504.179,118.934,393.065,7.821,256.001,7.821z M256.001,392.098c-75.165,0-136.098-60.933-136.098-136.098
	s60.933-136.098,136.098-136.098c75.165,0,136.098,60.933,136.098,136.098S331.166,392.098,256.001,392.098z"/>
<path style="fill:#FEB860;" d="M256.001,95.885c-88.429,0-160.116,71.686-160.116,160.116c0,88.428,71.686,160.116,160.116,160.116
	s160.115-71.686,160.115-160.116S344.429,95.885,256.001,95.885z M256.001,384.092c-70.744,0-128.093-57.349-128.093-128.093
	s57.349-128.093,128.093-128.093s128.093,57.349,128.093,128.093S326.744,384.092,256.001,384.092z"/>
<path style="fill:#C8546F;" d="M384.093,296.029h120.087V215.97H384.093C384.093,215.971,398.361,245.8,384.093,296.029z"/>
<path style="fill:#9B4573;" d="M384.094,296.029h32.022c0,0,6.483-16.056,6.483-40.032c0-23.183-6.483-40.025-6.483-40.025h-32.022
	C384.094,215.971,397.728,245.484,384.094,296.029z"/>
<path style="fill:#C8546F;" d="M296.029,127.901V7.814h-80.057v120.087C215.972,127.901,245.802,113.632,296.029,127.901z"/>
<path style="fill:#9B4573;" d="M296.029,127.901V95.878c0,0-16.056-6.482-40.032-6.482c-23.183,0-40.025,6.482-40.025,6.482v32.023
	C215.972,127.901,245.485,114.265,296.029,127.901z"/>
<path style="fill:#C8546F;" d="M127.902,215.964H7.816v80.057h120.087C127.902,296.021,113.633,266.191,127.902,215.964z"/>
<path style="fill:#9B4573;" d="M127.902,215.964H95.879c0,0-6.483,16.056-6.483,40.032c0,23.183,6.483,40.025,6.483,40.025h32.023
	C127.902,296.021,114.266,266.508,127.902,215.964z"/>
<path style="fill:#C8546F;" d="M215.965,384.092v120.087h80.058V384.092C296.022,384.092,266.193,398.36,215.965,384.092z"/>
<path style="fill:#9B4573;" d="M215.965,384.092v32.023c0,0,16.056,6.483,40.032,6.483c23.183,0,40.025-6.483,40.025-6.483v-32.023
	C296.022,384.092,266.51,397.727,215.965,384.092z"/>
<path style="fill:#1D1D1B;" d="M437.02,74.981C388.668,26.628,324.38,0,256.001,0c-68.38,0-132.668,26.628-181.02,74.981
	S0.001,187.62,0.001,256.001s26.628,132.668,74.981,181.02s112.639,74.981,181.02,74.981c68.379,0,132.668-26.628,181.019-74.981
	c48.352-48.352,74.981-112.639,74.981-181.02S485.372,123.333,437.02,74.981z M208.15,400.628
	c-45.746-15.095-81.683-51.033-96.778-96.777h12.858c14.159,38.868,45.051,69.76,83.919,83.919V400.628z M208.15,124.231
	c-38.868,14.159-69.76,45.051-83.919,83.919h-12.86c15.095-45.747,51.031-81.683,96.778-96.778v12.858H208.15z M131.46,256.001
	c0-68.672,55.868-124.541,124.541-124.541s124.54,55.868,124.54,124.541S324.672,380.54,256.001,380.54
	S131.46,324.672,131.46,256.001z M303.851,111.372c45.746,15.094,81.683,51.031,96.777,96.776H387.77
	c-14.158-38.868-45.051-69.76-83.919-83.919V111.372z M303.851,387.769c38.868-14.159,69.761-45.051,83.919-83.919h12.858
	c-15.094,45.747-51.03,81.683-96.777,96.778V387.769z M392.444,288.207c2.441-10.345,3.74-21.127,3.74-32.208
	c0-11.08-1.298-21.863-3.74-32.208h101.771c1.41,10.591,2.143,21.342,2.143,32.208s-0.733,21.616-2.143,32.208H392.444z
	 M491.617,208.15h-74.601c-16.13-54.423-58.74-97.034-113.165-113.164V20.384c45.958,9.235,88.206,31.756,122.108,65.657
	C459.861,119.944,482.382,162.191,491.617,208.15z M288.208,17.786v101.77c-10.345-2.441-21.127-3.74-32.208-3.74
	c-11.08,0-21.863,1.298-32.208,3.74V17.786c10.591-1.41,21.343-2.143,32.209-2.143C266.866,15.643,277.616,16.376,288.208,17.786z
	 M86.042,86.041c33.901-33.901,76.15-56.423,122.108-65.658v74.602c-54.425,16.13-97.033,58.739-113.164,113.164H20.384
	C29.62,162.191,52.14,119.944,86.042,86.041z M17.787,223.793h101.77c-2.441,10.345-3.74,21.127-3.74,32.208
	c0,11.08,1.298,21.863,3.74,32.208H17.787c-1.41-10.591-2.143-21.343-2.143-32.208C15.643,245.136,16.377,234.384,17.787,223.793z
	 M20.384,303.85h74.602c16.129,54.421,58.74,97.034,113.164,113.164v74.601c-45.959-9.235-88.206-31.756-122.108-65.658
	S29.62,349.809,20.384,303.85z M223.793,494.214v-101.77c10.345,2.441,21.127,3.74,32.208,3.74c11.08,0,21.863-1.298,32.208-3.74
	v101.77c-10.591,1.41-21.342,2.143-32.208,2.143S234.384,495.624,223.793,494.214z M425.958,425.959
	c-33.901,33.901-76.15,56.423-122.108,65.658v-74.602c54.425-16.13,97.034-58.739,113.165-113.163h74.601
	C482.382,349.809,459.861,392.056,425.958,425.959z"/>
<g>
</g>
<g>
</g>
<g>
</g>
<g>
</g>
<g>
</g>
<g>
</g>
<g>
</g>
<g>
</g>
<g>
</g>
<g>
</g>
<g>
</g>
<g>
</g>
<g>
</g>
<g>
</g>
<g>
</g>
</svg>
