<?xml version="1.0" encoding="iso-8859-1"?>
<!-- Generator: Adobe Illustrator 19.0.0, SVG Export Plug-In . SVG Version: 6.00 Build 0)  -->
<svg version="1.1" id="Layer_1" xmlns="http://www.w3.org/2000/svg" xmlns:xlink="http://www.w3.org/1999/xlink" x="0px" y="0px"
	 viewBox="0 0 512 512" style="enable-background:new 0 0 512 512;" xml:space="preserve">
<rect x="39.927" y="64.02" style="fill:#9B4573;" width="432.152" height="440.152"/>
<polygon style="fill:#FEC986;" points="424.059,432.152 392.048,384.135 392.048,296.104 344.032,296.104 344.032,384.135 
	312.02,432.152 344.032,432.152 344.032,496.174 392.048,496.174 392.048,432.152 "/>
<rect x="39.927" y="64.02" style="fill:#C8546F;" width="224.081" height="440.152"/>
<g>
	<polygon style="fill:#FEC986;" points="199.98,296.104 175.972,296.104 111.95,296.104 87.941,296.104 87.941,400.141 
		111.95,400.141 111.95,504.177 175.972,504.177 175.972,400.141 199.98,400.141 	"/>
	<path style="fill:#FEC986;" d="M143.961,264.092L143.961,264.092c-8.841,0-16.006-7.165-16.006-16.005v-40.014
		c0-8.84,7.166-16.006,16.006-16.006l0,0c8.84,0,16.006,7.167,16.006,16.006v40.014
		C159.967,256.927,152.801,264.092,143.961,264.092z"/>
	<path style="fill:#FEC986;" d="M368.039,264.092L368.039,264.092c-8.84,0-16.006-7.165-16.006-16.005v-40.014
		c0-8.84,7.167-16.006,16.006-16.006l0,0c8.841,0,16.006,7.167,16.006,16.006v40.014
		C384.045,256.927,376.88,264.092,368.039,264.092z"/>
</g>
<g>
	<rect x="159.967" y="64.198" style="fill:#1D1D1B;" width="192.071" height="15.645"/>
	<polygon style="fill:#1D1D1B;" points="104.477,44.427 115.54,55.49 136.138,34.891 136.138,160.057 151.784,160.057 
		151.784,34.891 172.382,55.49 183.446,44.427 143.961,4.943 	"/>
	<polygon style="fill:#1D1D1B;" points="396.46,112.569 375.862,133.168 375.862,0 360.216,0 360.216,133.168 339.618,112.569 
		328.555,123.632 368.039,163.116 407.524,123.632 	"/>
	<path style="fill:#1D1D1B;" d="M143.961,271.916c-13.14,0-23.829-10.69-23.829-23.829v-40.014
		c0-13.139,10.689-23.829,23.829-23.829c13.139,0,23.828,10.69,23.828,23.829v40.014C167.789,261.226,157.1,271.916,143.961,271.916
		z M143.961,199.889c-4.512,0-8.183,3.671-8.183,8.183v40.014c0,4.512,3.671,8.184,8.183,8.184c4.511,0,8.182-3.671,8.182-8.184
		v-40.014C152.143,203.561,148.473,199.889,143.961,199.889z"/>
	<polygon style="fill:#1D1D1B;" points="207.803,400.141 192.158,400.141 192.158,303.927 95.763,303.927 95.763,400.141 
		80.118,400.141 80.118,288.282 207.803,288.282 	"/>
	<rect x="127.957" y="392.319" style="fill:#1D1D1B;" width="32.01" height="15.645"/>
	<path style="fill:#1D1D1B;" d="M368.089,271.916c-13.139,0-23.828-10.69-23.828-23.829v-40.014
		c0-13.139,10.689-23.829,23.828-23.829c13.14,0,23.829,10.69,23.829,23.829v40.014
		C391.918,261.226,381.229,271.916,368.089,271.916z M368.089,199.889c-4.511,0-8.182,3.671-8.182,8.183v40.014
		c0,4.512,3.671,8.184,8.182,8.184c4.512,0,8.184-3.671,8.184-8.184v-40.014C376.273,203.561,372.601,199.889,368.089,199.889z"/>
	<polygon style="fill:#1D1D1B;" points="417.551,436.491 384.226,386.504 384.226,303.927 351.855,303.927 351.855,386.504 
		318.529,436.491 305.511,427.812 336.209,381.766 336.209,288.282 399.871,288.282 399.871,381.766 430.569,427.812 	"/>
	<polygon style="fill:#1D1D1B;" points="384.047,64.203 384.047,79.848 464.253,79.848 464.253,496.355 399.871,496.355 
		399.871,432.152 384.226,432.152 384.226,496.355 351.855,496.355 351.855,432.152 336.209,432.152 336.209,496.355 
		183.795,496.355 183.795,336.118 168.15,336.118 168.15,496.355 151.784,496.355 151.784,432.152 136.138,432.152 136.138,496.355 
		119.772,496.355 119.772,336.118 104.127,336.118 104.127,496.355 47.747,496.355 47.747,79.848 127.956,79.848 127.956,64.203 
		32.102,64.203 32.102,512 479.898,512 479.898,64.203 	"/>
</g>
<g>
</g>
<g>
</g>
<g>
</g>
<g>
</g>
<g>
</g>
<g>
</g>
<g>
</g>
<g>
</g>
<g>
</g>
<g>
</g>
<g>
</g>
<g>
</g>
<g>
</g>
<g>
</g>
<g>
</g>
</svg>
