<?xml version="1.0" encoding="iso-8859-1"?>
<!-- Generator: Adobe Illustrator 19.0.0, SVG Export Plug-In . SVG Version: 6.00 Build 0)  -->
<svg version="1.1" id="Layer_1" xmlns="http://www.w3.org/2000/svg" xmlns:xlink="http://www.w3.org/1999/xlink" x="0px" y="0px"
	 viewBox="0 0 512 512" style="enable-background:new 0 0 512 512;" xml:space="preserve">
<rect x="384.054" y="103.883" style="fill:#C8546F;" width="120.049" height="280.118"/>
<circle style="fill:#9B4573;" cx="440.072" cy="255.948" r="16.006"/>
<g>
	<rect x="408.066" y="311.976" style="fill:#FEB860;" width="72.025" height="32.013"/>
	<rect x="7.899" y="103.883" style="fill:#FEB860;" width="376.156" height="280.118"/>
</g>
<rect x="39.911" y="143.903" style="fill:#FFFFFF;" width="264.11" height="200.078"/>
<path style="fill:#1D1D1B;" d="M311.918,351.882H32.013V136.003h279.905v215.879H311.918z M47.81,336.085h248.31V151.8H47.81
	V336.085z"/>
<g>
	<rect x="400.168" y="135.899" style="fill:#FFFFFF;" width="15.797" height="16.006"/>
	<rect x="400.168" y="167.915" style="fill:#FFFFFF;" width="15.797" height="16.007"/>
	<rect x="400.168" y="199.92" style="fill:#FFFFFF;" width="15.797" height="16.007"/>
</g>
<g>
	<rect x="432.068" y="136.004" style="fill:#1D1D1B;" width="56.028" height="15.797"/>
	<rect x="432.068" y="168.02" style="fill:#1D1D1B;" width="56.028" height="15.797"/>
	<rect x="432.068" y="200.025" style="fill:#1D1D1B;" width="56.028" height="15.797"/>
	<path style="fill:#1D1D1B;" d="M487.99,351.882h-87.828v-47.81h87.828V351.882z M415.961,336.085h56.233v-16.215h-56.233V336.085z"
		/>
	<path style="fill:#1D1D1B;" d="M512,95.987H0v295.911h24.01v24.114h15.797v-24.114h432.386v24.114h15.797v-24.114H512V95.987z
		 M15.797,111.785h360.356v264.317H15.797V111.785z M496.203,376.1H391.951V111.785h104.252V376.1z"/>
	<polygon style="fill:#1D1D1B;" points="360.042,151.8 360.042,136.003 328.03,136.003 328.03,151.8 336.138,151.8 336.138,336.085 
		328.03,336.085 328.03,351.882 360.042,351.882 360.042,336.085 351.935,336.085 351.935,151.8 	"/>
	<path style="fill:#1D1D1B;" d="M440.075,279.853c10.414,0,19.287-6.696,22.558-16.007h17.459v-15.797h-17.459
		c-3.269-9.311-12.144-16.006-22.558-16.006c-13.181,0-23.905,10.724-23.905,23.905C416.17,269.129,426.894,279.853,440.075,279.853
		z M440.075,247.84c4.471,0,8.107,3.637,8.107,8.107c0,4.471-3.637,8.108-8.107,8.108s-8.107-3.638-8.107-8.108
		S435.604,247.84,440.075,247.84z"/>
	
		<rect x="164.085" y="170.381" transform="matrix(-0.7071 -0.7071 0.7071 -0.7071 121.0968 538.0573)" style="fill:#1D1D1B;" width="15.797" height="147.135"/>
	
		<rect x="214.102" y="226.812" transform="matrix(-0.7071 -0.7071 0.7071 -0.7071 196.5903 597.3049)" style="fill:#1D1D1B;" width="15.797" height="62.251"/>
	
		<rect x="104.048" y="217.308" transform="matrix(-0.7071 -0.7071 0.7071 -0.7071 21.4384 488.7684)" style="fill:#1D1D1B;" width="15.797" height="45.273"/>
</g>
<g>
</g>
<g>
</g>
<g>
</g>
<g>
</g>
<g>
</g>
<g>
</g>
<g>
</g>
<g>
</g>
<g>
</g>
<g>
</g>
<g>
</g>
<g>
</g>
<g>
</g>
<g>
</g>
<g>
</g>
</svg>
