<?xml version="1.0" encoding="iso-8859-1"?>
<!-- Generator: Adobe Illustrator 19.0.0, SVG Export Plug-In . SVG Version: 6.00 Build 0)  -->
<svg version="1.1" id="Layer_1" xmlns="http://www.w3.org/2000/svg" xmlns:xlink="http://www.w3.org/1999/xlink" x="0px" y="0px"
	 viewBox="0 0 512 512" style="enable-background:new 0 0 512 512;" xml:space="preserve">
<rect x="7.764" y="94.393" style="fill:#FEC986;" width="252.175" height="299.465"/>
<rect x="31.405" y="118.038" style="fill:#9B4573;" width="204.895" height="252.175"/>
<rect x="31.405" y="118.038" style="fill:#C8546F;" width="165.494" height="252.175"/>
<rect x="236.294" y="70.748" style="fill:#FEC986;" width="267.931" height="346.744"/>
<rect x="259.939" y="102.271" style="fill:#FFFFFF;" width="204.895" height="283.698"/>
<g>
	<rect x="322.985" y="212.597" style="fill:#9B4573;" width="31.521" height="63.044"/>
	<rect x="354.509" y="330.811" style="fill:#9B4573;" width="31.522" height="55.168"/>
</g>
<g>
	<rect x="299.34" y="330.811" style="fill:#C8546F;" width="31.522" height="55.168"/>
	<rect x="409.666" y="330.811" style="fill:#C8546F;" width="31.522" height="55.168"/>
	<rect x="291.462" y="212.597" style="fill:#C8546F;" width="31.522" height="63.044"/>
	<rect x="330.864" y="102.271" style="fill:#C8546F;" width="141.849" height="70.924"/>
</g>
<g>
	<rect x="252.175" y="173.196" style="fill:#1D1D1B;" width="15.529" height="23.642"/>
	<rect x="252.175" y="204.719" style="fill:#1D1D1B;" width="15.529" height="78.803"/>
	<rect x="252.175" y="291.4" style="fill:#1D1D1B;" width="15.529" height="23.641"/>
	<path style="fill:#1D1D1B;" d="M228.535,62.986v23.642H0v314.988h228.535v23.642h23.641v23.757h15.529v-23.758h197.245v23.757
		h15.529v-23.757H512V62.986H228.535z M496.471,409.728H244.064v-8.113h23.641v-78.69h-15.529v63.161H15.529v-283.93h236.647v63.16
		h15.529V86.628h-23.641v-8.113h252.408V409.728z"/>
	<path style="fill:#1D1D1B;" d="M441.077,165.432v-8.113h7.997V141.79h-94.566v15.529h7.996v8.113H338.63v-47.4h-15.529v62.928
		h133.853v-15.529H441.077z M425.548,157.319v8.113h-15.993v-8.113H425.548z M378.031,157.319h15.993v8.113h-15.993V157.319z"/>
	<path style="fill:#1D1D1B;" d="M362.271,267.879v-63.044h-31.522H315.22h-31.522v63.044h-7.997v15.529h181.252v-15.529H362.271z
		 M346.742,220.362v47.516h-15.993v-47.516L346.742,220.362L346.742,220.362z M299.227,220.362h15.993v47.516h-15.993V220.362z"/>
	<rect x="307.343" y="291.4" style="fill:#1D1D1B;" width="15.529" height="15.762"/>
	<rect x="362.501" y="291.4" style="fill:#1D1D1B;" width="15.529" height="15.762"/>
	<rect x="417.669" y="291.4" style="fill:#1D1D1B;" width="15.529" height="15.762"/>
	<path style="fill:#1D1D1B;" d="M480.478,393.734V94.507H275.701v15.529h189.249v268.17h-15.992v-55.164h-15.762v-7.997h-15.529
		v7.997h-15.762v55.164h-8.113v-55.164H378.03v-7.997h-15.529v7.997h-15.761v55.164h-8.113v-55.164h-15.762v-7.997h-15.529v7.997
		h-15.762v55.164h-15.878v15.529H480.478z M307.107,378.206V338.57H323.1v39.635H307.107z M362.271,378.206V338.57h15.992v39.635
		H362.271z M417.435,378.206V338.57h15.993v39.635H417.435z"/>
	<path style="fill:#1D1D1B;" d="M244.064,377.973H23.642V110.268h220.422V377.973z M39.17,362.444h189.365V125.797H39.17V362.444z"
		/>
</g>
<g>
</g>
<g>
</g>
<g>
</g>
<g>
</g>
<g>
</g>
<g>
</g>
<g>
</g>
<g>
</g>
<g>
</g>
<g>
</g>
<g>
</g>
<g>
</g>
<g>
</g>
<g>
</g>
<g>
</g>
</svg>
