<?xml version="1.0" encoding="iso-8859-1"?>
<!-- Generator: Adobe Illustrator 19.0.0, SVG Export Plug-In . SVG Version: 6.00 Build 0)  -->
<svg version="1.1" id="Layer_1" xmlns="http://www.w3.org/2000/svg" xmlns:xlink="http://www.w3.org/1999/xlink" x="0px" y="0px"
	 viewBox="0 0 512.002 512.002" style="enable-background:new 0 0 512.002 512.002;" xml:space="preserve">
<circle style="fill:#C8546F;" cx="255.996" cy="255.996" r="144.095"/>
<circle style="fill:#9B4573;" cx="255.996" cy="255.996" r="120.083"/>
<rect x="259.486" y="123.399" transform="matrix(-0.7071 -0.7071 0.7071 -0.7071 267.4896 645.7825)" style="fill:#C8546F;" width="16.01" height="288.187"/>
<rect x="7.837" y="231.984" style="fill:#FEC986;" width="168.107" height="48.032"/>
<polygon style="fill:#FEB860;" points="63.873,280.017 7.837,280.017 7.837,231.985 119.91,231.985 "/>
<rect x="175.944" y="231.984" style="fill:#FFFFFF;" width="280.186" height="48.032"/>
<g>
	<rect x="472.305" y="223.98" style="fill:#1D1D1B;" width="15.674" height="64.043"/>
	<rect x="496.328" y="223.98" style="fill:#1D1D1B;" width="15.674" height="64.043"/>
	<path style="fill:#1D1D1B;" d="M463.968,224.148h-59.407c-6.105-28.663-20.233-54.682-41.13-75.579
		c-28.696-28.696-66.849-44.5-107.432-44.5s-78.736,15.804-107.432,44.5c-20.897,20.897-35.025,46.915-41.13,75.579H0v63.706
		h107.438c6.105,28.663,20.232,54.681,41.13,75.579c28.696,28.696,66.849,44.5,107.432,44.5s78.736-15.804,107.432-44.5
		c20.898-20.898,35.025-46.916,41.129-75.579h59.407V224.148z M388.488,224.148h-89.552l58.78-58.78
		C372.763,182.214,383.263,202.268,388.488,224.148z M159.652,159.652c25.735-25.735,59.952-39.909,96.349-39.909
		c33.771,0,65.661,12.21,90.646,34.529l-69.876,69.876H123.512C129.341,199.744,141.709,177.595,159.652,159.652z M261.096,239.822
		l-32.358,32.358h-44.954v-32.358H261.096z M15.674,239.822H168.11v32.358H15.674V239.822z M123.513,287.854h89.552l-58.78,58.78
		C139.237,329.787,128.738,309.733,123.513,287.854z M352.349,352.35c-25.735,25.735-59.952,39.909-96.349,39.909
		c-33.771,0-65.661-12.21-90.646-34.529l69.876-69.876h153.257C382.659,312.257,370.292,334.406,352.349,352.35z M448.294,272.18
		h-197.39l32.358-32.358h165.033v32.358H448.294z"/>
</g>
<g>
</g>
<g>
</g>
<g>
</g>
<g>
</g>
<g>
</g>
<g>
</g>
<g>
</g>
<g>
</g>
<g>
</g>
<g>
</g>
<g>
</g>
<g>
</g>
<g>
</g>
<g>
</g>
<g>
</g>
</svg>
