<?xml version="1.0" encoding="iso-8859-1"?>
<!-- Generator: Adobe Illustrator 19.0.0, SVG Export Plug-In . SVG Version: 6.00 Build 0)  -->
<svg version="1.1" id="Layer_1" xmlns="http://www.w3.org/2000/svg" xmlns:xlink="http://www.w3.org/1999/xlink" x="0px" y="0px"
	 viewBox="0 0 511.999 511.999" style="enable-background:new 0 0 511.999 511.999;" xml:space="preserve">
<path style="fill:#9B4573;" d="M467.074,445.934L467.074,445.934c-13.763,0-24.92-11.156-24.92-24.919v-38.434
	c0-13.763,11.157-24.92,24.92-24.92l0,0c13.762,0,24.919,11.157,24.919,24.92v38.434
	C491.993,434.778,480.836,445.934,467.074,445.934z"/>
<g>
	<circle style="fill:#FEC986;" cx="251.876" cy="33.032" r="24.774"/>
	<circle style="fill:#FEC986;" cx="169.292" cy="33.032" r="24.774"/>
</g>
<g>
	<path style="fill:#C8546F;" d="M185.806,454.193H20.645V154.156c0-43.908,35.925-79.834,79.833-79.834h6.544
		c43.511,0,78.784,35.273,78.784,78.784V454.193z"/>
	<path style="fill:#C8546F;" d="M400.515,454.193h-165.16V153.779c0-43.882,35.573-79.456,79.456-79.456h7.299
		c43.303,0,78.407,35.104,78.407,78.406v301.464H400.515z"/>
</g>
<g>
	<path style="fill:#9B4573;" d="M185.806,162.56v291.632h-49.548V82.58C136.258,82.58,185.806,91.168,185.806,162.56"/>
	<path style="fill:#9B4573;" d="M400.515,162.56v291.632h-49.549V82.58C350.966,82.58,400.515,91.168,400.515,162.56"/>
</g>
<g>
	<rect x="144.515" y="140.39" style="fill:#FEB860;" width="41.292" height="33.032"/>
	<rect x="235.35" y="140.39" style="fill:#FEB860;" width="41.292" height="33.032"/>
	<rect x="20.645" y="206.448" style="fill:#FEB860;" width="165.156" height="49.544"/>
</g>
<rect x="20.645" y="206.448" style="fill:#FEC986;" width="123.865" height="49.544"/>
<rect x="235.35" y="206.448" style="fill:#FEB860;" width="165.156" height="49.544"/>
<g>
	<rect x="235.35" y="206.448" style="fill:#FEC986;" width="123.865" height="49.544"/>
	<rect x="20.645" y="454.198" style="fill:#FEC986;" width="165.156" height="49.544"/>
	<rect x="235.35" y="454.198" style="fill:#FEC986;" width="165.156" height="49.544"/>
</g>
<g>
	<rect x="136.253" y="454.198" style="fill:#FEB860;" width="49.544" height="49.544"/>
	<rect x="350.963" y="454.198" style="fill:#FEB860;" width="49.544" height="49.544"/>
</g>
<g>
	<path style="fill:#1D1D1B;" d="M194.064,511.999H12.388v-66.065h181.676V511.999z M28.903,495.482h148.646V462.45H28.903V495.482z"
		/>
	<path style="fill:#1D1D1B;" d="M408.773,511.999H227.097v-66.065h181.676V511.999z M243.612,495.482h148.646V462.45H243.612
		V495.482z"/>
</g>
<g>
	<rect x="61.935" y="222.962" style="fill:#FFFFFF;" width="16.516" height="16.516"/>
	<rect x="94.971" y="222.962" style="fill:#FFFFFF;" width="16.516" height="16.516"/>
	<rect x="128.001" y="222.962" style="fill:#FFFFFF;" width="16.516" height="16.516"/>
	<rect x="276.642" y="222.962" style="fill:#FFFFFF;" width="16.516" height="16.516"/>
	<rect x="309.671" y="222.962" style="fill:#FFFFFF;" width="16.516" height="16.516"/>
	<rect x="342.711" y="222.962" style="fill:#FFFFFF;" width="16.516" height="16.516"/>
</g>
<g>
	<rect x="61.935" y="280.779" style="fill:#1D1D1B;" width="82.583" height="16.516"/>
	<rect x="61.935" y="313.808" style="fill:#1D1D1B;" width="82.583" height="16.516"/>
</g>
<rect x="86.709" y="346.837" style="fill:#FFFFFF;" width="32.312" height="16.516"/>
<g>
	<rect x="275.928" y="280.779" style="fill:#1D1D1B;" width="82.583" height="16.516"/>
	<rect x="275.928" y="313.808" style="fill:#1D1D1B;" width="82.583" height="16.516"/>
</g>
<rect x="300.695" y="346.837" style="fill:#FFFFFF;" width="33.032" height="16.516"/>
<g>
	<path style="fill:#1D1D1B;" d="M251.87,0c-15.364,0-28.311,10.543-31.988,24.774h-18.608C197.6,10.543,184.654,0,169.29,0
		c-18.214,0-33.032,14.818-33.032,33.032s14.818,33.032,33.032,33.032c15.364,0,28.31-10.543,31.986-24.774h18.608
		c3.677,14.231,16.624,24.774,31.988,24.774c18.214,0,33.031-14.818,33.031-33.032S270.085,0,251.87,0z M169.29,49.548
		c-9.108,0-16.517-7.409-16.517-16.516s7.41-16.516,16.517-16.516s16.516,7.409,16.516,16.516S178.397,49.548,169.29,49.548z
		 M251.87,49.548c-9.1,0-16.505-7.398-16.516-16.496v-0.041c0.012-9.098,7.415-16.496,16.516-16.496
		c9.107,0,16.516,7.409,16.516,16.516S260.977,49.548,251.87,49.548z"/>
	<rect x="202.321" y="470.713" style="fill:#1D1D1B;" width="16.516" height="16.516"/>
	<path style="fill:#1D1D1B;" d="M474.837,347.883V148.645c0-68.303-55.568-123.871-123.87-123.871V41.29
		c59.195,0,107.354,48.159,107.354,107.354v199.238c-14.231,3.677-24.774,16.624-24.774,31.987v41.291
		c0,18.214,14.818,33.032,33.032,33.032s33.031-14.818,33.031-33.032v-41.291C499.611,364.506,489.068,351.559,474.837,347.883z
		 M483.096,421.16c0,9.107-7.41,16.516-16.516,16.516c-9.108,0-16.517-7.409-16.517-16.516V379.87
		c0-9.107,7.41-16.516,16.517-16.516s16.516,7.409,16.516,16.516V421.16z"/>
</g>
<rect x="458.323" y="388.129" style="fill:#FFFFFF;" width="16.515" height="24.774"/>
<g>
	<path style="fill:#1D1D1B;" d="M326.192,66.444V41.291h16.516V24.774H293.16V41.29h16.517v25.153
		c-46.232,4.186-82.58,43.154-82.58,90.46v66.065h-33.033v-66.065c0-47.305-36.348-86.273-82.58-90.46V41.291h16.516V24.774H78.452
		V41.29h16.517v25.153c-46.232,4.187-82.58,43.155-82.58,90.461v280.774h16.516V264.258h148.644v173.419h16.516V239.483h33.033
		v198.193h16.516V264.257h148.644v173.419h16.516V156.903C408.773,109.598,372.425,70.629,326.192,66.444z M177.547,156.903v8.258
		h-24.775v-16.516h24.305C177.379,151.358,177.547,154.11,177.547,156.903z M103.226,82.58c32.296,0,59.833,20.713,70.06,49.548
		h-37.029v49.548h41.29v16.516H28.904v-41.291C28.904,115.921,62.245,82.58,103.226,82.58z M28.904,247.742v-33.032h148.644v33.032
		H28.904z M317.935,82.58c40.981,0,74.322,33.341,74.322,74.323v41.291H243.613v-16.516h41.289V132.13h-37.028
		C258.101,103.294,285.639,82.58,317.935,82.58z M244.082,148.645h24.304v16.516h-24.773v-8.258
		C243.613,154.11,243.781,151.358,244.082,148.645z M243.613,247.742v-33.032h148.644v33.032H243.613z"/>
	<rect x="243.613" y="24.774" style="fill:#1D1D1B;" width="16.515" height="16.516"/>
	<rect x="161.03" y="24.774" style="fill:#1D1D1B;" width="16.515" height="16.516"/>
</g>
<g>
</g>
<g>
</g>
<g>
</g>
<g>
</g>
<g>
</g>
<g>
</g>
<g>
</g>
<g>
</g>
<g>
</g>
<g>
</g>
<g>
</g>
<g>
</g>
<g>
</g>
<g>
</g>
<g>
</g>
</svg>
