<?xml version="1.0" encoding="iso-8859-1"?>
<!-- Generator: Adobe Illustrator 19.0.0, SVG Export Plug-In . SVG Version: 6.00 Build 0)  -->
<svg version="1.1" id="Layer_1" xmlns="http://www.w3.org/2000/svg" xmlns:xlink="http://www.w3.org/1999/xlink" x="0px" y="0px"
	 viewBox="0 0 512 512" style="enable-background:new 0 0 512 512;" xml:space="preserve">
<polyline style="fill:#9B4573;" points="392.12,288.142 392.12,376.22 304.042,376.22 304.042,288.142 392.12,288.142 "/>
<path style="fill:#FEC986;" d="M23.793,360.206c0-84.022,68.114-152.135,152.135-152.135s152.135,68.114,152.135,152.135v16.014
	H23.793V360.206z"/>
<path style="fill:#FEB860;" d="M23.793,364.209c0-59.699,48.396-108.096,108.096-108.096s108.096,48.397,108.096,108.096v11.379
	H23.793V364.209z"/>
<polygon style="fill:#9B4573;" points="392.12,240.099 304.042,240.099 304.042,176.043 280.022,152.021 392.12,152.021 "/>
<rect x="424.148" y="296.146" style="fill:#FEB860;" width="64.057" height="80.068"/>
<rect x="7.78" y="376.215" style="fill:#C8546F;" width="496.436" height="24.024"/>
<path style="fill:#1D1D1B;" d="M512,408.021H0V368.44h512V408.021z M15.559,392.462h480.881v-8.462H15.559V392.462z"/>
<g>
	<rect x="159.919" y="344.422" style="fill:#FFFFFF;" width="112.1" height="15.559"/>
	<rect x="127.887" y="344.422" style="fill:#FFFFFF;" width="16.014" height="15.559"/>
</g>
<g>
	<path style="fill:#1D1D1B;" d="M183.708,200.483v-16.661h8.234v-15.559h-32.028v15.559h8.234v16.661
		c-84.579,4.071-152.135,74.154-152.135,159.723h15.559c0-79.597,64.758-144.355,144.355-144.355s144.355,64.758,144.355,144.355
		h15.559C335.843,274.637,268.287,204.555,183.708,200.483z"/>
	<path style="fill:#1D1D1B;" d="M463.957,240.328v-28.093l20.557-13.705l-8.63-12.945l-27.486,18.324v36.419h-32.028v119.879h15.559
		v-56.277h48.497v56.277h15.559V240.328H463.957z M431.928,288.37v-32.483h16.469v24.249h15.559v-24.249h16.469v32.483H431.928z"/>
	<path style="fill:#1D1D1B;" d="M399.9,247.879H296.262v-68.615l-35.023-35.023H399.9V247.879z M311.822,232.32h72.519v-72.519
		h-85.538l13.019,13.019L311.822,232.32L311.822,232.32z"/>
	<polygon style="fill:#1D1D1B;" points="431.928,223.857 408.134,223.857 408.134,208.298 416.369,208.298 416.369,159.801 
		408.134,159.801 408.134,144.241 431.928,144.241 	"/>
	<polygon style="fill:#1D1D1B;" points="351.857,120.22 351.857,103.979 336.298,103.979 336.298,120.22 304.042,120.22 
		304.042,135.779 384.114,135.779 384.114,120.22 	"/>
	<rect x="312.048" y="256.345" style="fill:#1D1D1B;" width="72.061" height="15.559"/>
	<polygon style="fill:#1D1D1B;" points="399.9,360.206 384.341,360.206 384.341,295.922 328.064,295.922 328.064,280.363 
		399.9,280.363 	"/>
</g>
<g>
</g>
<g>
</g>
<g>
</g>
<g>
</g>
<g>
</g>
<g>
</g>
<g>
</g>
<g>
</g>
<g>
</g>
<g>
</g>
<g>
</g>
<g>
</g>
<g>
</g>
<g>
</g>
<g>
</g>
</svg>
