<?xml version="1.0" encoding="iso-8859-1"?>
<!-- Generator: Adobe Illustrator 19.0.0, SVG Export Plug-In . SVG Version: 6.00 Build 0)  -->
<svg version="1.1" id="Layer_1" xmlns="http://www.w3.org/2000/svg" xmlns:xlink="http://www.w3.org/1999/xlink" x="0px" y="0px"
	 viewBox="0 0 512.001 512.001" style="enable-background:new 0 0 512.001 512.001;" xml:space="preserve">
<g>
	<rect x="32" y="64" style="fill:#9B4573;" width="64" height="112"/>
	<rect x="126.22" y="8.001" style="fill:#9B4573;" width="257.781" height="496.001"/>
</g>
<rect x="126.22" y="8.001" style="fill:#C8546F;" width="209.781" height="496.001"/>
<rect x="160" y="224" style="fill:#FEC986;" width="40" height="80"/>
<g>
	<rect y="464.001" style="fill:#FEB860;" width="128" height="40"/>
	<rect x="384.001" y="464.001" style="fill:#FEB860;" width="128" height="40"/>
</g>
<polygon style="fill:#1D1D1B;" points="207.854,311.853 152.147,311.853 152.147,216.147 207.854,216.147 207.854,239.996 
	192.147,239.996 192.147,231.854 167.854,231.854 167.854,296.146 192.147,296.146 192.147,271.998 207.854,271.998 "/>
<rect x="176" y="248.147" style="fill:#FFFFFF;" width="56" height="15.707"/>
<path style="fill:#1D1D1B;" d="M103.854,183.854H24.147V56.147h79.707V183.854z M39.853,168.147h48.293V71.854H39.853V168.147z"/>
<g>
	<rect x="48" y="144.147" style="fill:#FFFFFF;" width="32" height="15.707"/>
	<rect x="56.147" y="88" style="fill:#FFFFFF;" width="15.707" height="40"/>
</g>
<g>
	<rect x="32" y="192.147" style="fill:#1D1D1B;" width="16" height="15.707"/>
	<rect x="56" y="192.147" style="fill:#1D1D1B;" width="16" height="15.707"/>
	<rect x="80" y="192.147" style="fill:#1D1D1B;" width="16" height="15.707"/>
	<path style="fill:#1D1D1B;" d="M512,471.928v-15.707H391.853V0.148H120.147v456.074H0v15.707h120.147v24.218H0v15.707h511.999
		v-15.707H391.852v-24.219H512z M135.854,496.145V15.854h240.293v480.292H135.854V496.145z"/>
</g>
<g>
</g>
<g>
</g>
<g>
</g>
<g>
</g>
<g>
</g>
<g>
</g>
<g>
</g>
<g>
</g>
<g>
</g>
<g>
</g>
<g>
</g>
<g>
</g>
<g>
</g>
<g>
</g>
<g>
</g>
</svg>
