<?xml version="1.0" encoding="iso-8859-1"?>
<!-- Generator: Adobe Illustrator 19.0.0, SVG Export Plug-In . SVG Version: 6.00 Build 0)  -->
<svg version="1.1" id="Layer_1" xmlns="http://www.w3.org/2000/svg" xmlns:xlink="http://www.w3.org/1999/xlink" x="0px" y="0px"
	 viewBox="0 0 512 512" style="enable-background:new 0 0 512 512;" xml:space="preserve">
<path style="fill:#9B4573;" d="M280.011,183.968c-35.362,0-64.029,28.666-64.029,64.029c0,29.824,20.42,54.812,48.021,61.93
	l-1.151,176.014l15.246,17.07l17.918,0.166V309.927c27.601-7.118,48.021-32.106,48.021-61.93
	C344.04,212.634,315.373,183.968,280.011,183.968z M280.011,272.008c-13.261,0-24.011-10.75-24.011-24.011
	s10.75-24.011,24.011-24.011c13.26,0,24.011,10.75,24.011,24.011C304.022,261.257,293.272,272.008,280.011,272.008z"/>
<rect x="79.921" y="7.889" style="fill:#FEC986;" width="144.062" height="240.107"/>
<rect x="79.921" y="207.984" style="fill:#FEB860;" width="144.062" height="40.023"/>
<g>
	<path style="fill:#1D1D1B;" d="M280.011,279.896c-17.59,0-31.9-14.309-31.9-31.9s14.309-31.9,31.9-31.9s31.9,14.309,31.9,31.9
		S297.601,279.896,280.011,279.896z M280.011,231.875c-8.889,0-16.122,7.233-16.122,16.122c0,8.889,7.233,16.122,16.122,16.122
		c8.889,0,16.122-7.232,16.122-16.122S288.901,231.875,280.011,231.875z"/>
	<rect x="288.01" y="384.17" style="fill:#1D1D1B;" width="24.011" height="15.778"/>
	<rect x="288.01" y="360.156" style="fill:#1D1D1B;" width="24.011" height="15.778"/>
	<rect x="288.01" y="432.198" style="fill:#1D1D1B;" width="24.011" height="15.778"/>
	<rect x="288.01" y="408.184" style="fill:#1D1D1B;" width="24.011" height="15.778"/>
	<rect x="288.01" y="456.201" style="fill:#1D1D1B;" width="24.011" height="15.778"/>
	<polygon style="fill:#1D1D1B;" points="199.975,255.886 72.032,255.886 72.032,0 231.874,0 231.874,31.9 216.096,31.9 
		216.096,15.778 87.81,15.778 87.81,240.109 199.975,240.109 	"/>
	<path style="fill:#1D1D1B;" d="M287.9,176.521v-16.564h-15.778v16.564c-35.957,3.942-64.029,34.487-64.029,71.476
		c0,30.695,19.458,57.737,48.021,67.77v175.605L276.743,512h27.163v-31.9h-15.778v16.122h-4.85l-11.385-11.385V303.813l-5.919-1.526
		c-24.789-6.392-42.103-28.717-42.103-54.291c0-30.955,25.184-56.14,56.14-56.14s56.14,25.185,56.14,56.14
		c0,25.573-17.314,47.898-42.103,54.291l-5.919,1.526v48.233h15.778v-36.281c28.563-10.034,48.021-37.075,48.021-67.77
		C351.929,211.008,323.857,180.463,287.9,176.521z"/>
	<path style="fill:#1D1D1B;" d="M287.9,151.953h-15.778c0-17.59,14.309-31.9,31.9-31.9h104.047c8.889,0,16.122-7.233,16.122-16.123
		V71.918c0-8.89-7.233-16.122-16.122-16.122H199.975V40.018h208.093c17.59,0,31.9,14.309,31.9,31.9v32.014
		c0,17.59-14.309,31.901-31.9,31.901H304.022C295.133,135.833,287.9,143.064,287.9,151.953z"/>
	<rect x="216.094" y="63.914" style="fill:#1D1D1B;" width="15.778" height="120.059"/>
	<rect x="111.939" y="40.023" style="fill:#1D1D1B;" width="56.022" height="15.778"/>
	<rect x="111.939" y="72.031" style="fill:#1D1D1B;" width="56.022" height="15.778"/>
	<rect x="111.939" y="104.05" style="fill:#1D1D1B;" width="24.011" height="15.778"/>
	<rect x="111.939" y="200.084" style="fill:#1D1D1B;" width="80.036" height="15.778"/>
</g>
<g>
</g>
<g>
</g>
<g>
</g>
<g>
</g>
<g>
</g>
<g>
</g>
<g>
</g>
<g>
</g>
<g>
</g>
<g>
</g>
<g>
</g>
<g>
</g>
<g>
</g>
<g>
</g>
<g>
</g>
</svg>
