<?xml version="1.0" encoding="iso-8859-1"?>
<!-- Generator: Adobe Illustrator 19.0.0, SVG Export Plug-In . SVG Version: 6.00 Build 0)  -->
<svg version="1.1" id="Layer_1" xmlns="http://www.w3.org/2000/svg" xmlns:xlink="http://www.w3.org/1999/xlink" x="0px" y="0px"
	 viewBox="0 0 512.007 512.007" style="enable-background:new 0 0 512.007 512.007;" xml:space="preserve">
<rect x="0.005" y="296.003" style="fill:#C8546F;" width="303.996" height="216.004"/>
<g>
	<rect x="24.005" y="327.998" style="fill:#FEC986;" width="248" height="64.001"/>
	<rect x="24.005" y="423.994" style="fill:#FEC986;" width="248" height="64.001"/>
</g>
<rect x="24.005" y="104" style="fill:#9B4573;" width="248" height="159.997"/>
<rect x="48.005" y="128.002" style="fill:#FEC986;" width="199.996" height="112.004"/>
<rect x="304.002" style="fill:#FEB860;" width="208" height="511.997"/>
<g>
	<polygon style="fill:#1D1D1B;" points="376.005,224 376.005,208 344.005,208 344.005,224 352.005,224 352.005,288 344.005,288 
		344.005,304.001 376.005,304.001 376.005,288 368.006,288 368.006,224 	"/>
	<path style="fill:#1D1D1B;" d="M280.005,400h-264v-80.001h264V400z M32.005,384h232v-48h-232V384z"/>
	<path style="fill:#1D1D1B;" d="M280.005,496h-264V416h264V496z M32.005,480.001h232v-48h-232V480.001z"/>
	<rect x="128.007" y="352" style="fill:#1D1D1B;" width="39.999" height="16.001"/>
	<rect x="128.007" y="447.996" style="fill:#1D1D1B;" width="39.999" height="16.001"/>
	<path style="fill:#1D1D1B;" d="M296.004,0v287.584h-39.999V272h24.001V96h-264v176.001h24v15.584H0.005v16.001h295.999v208.416
		h16.001V0H296.004z M32.005,112h232v144h-232V112z M56.005,272h184v15.584h-184V272z"/>
	<path style="fill:#1D1D1B;" d="M256.005,248h-216V120h216V248z M56.005,232h184v-95.999h-184V232z"/>
	<rect x="80.004" y="152.003" style="fill:#1D1D1B;" width="16.001" height="64.001"/>
</g>
<g>
	<rect x="128.007" y="152.003" style="fill:#FFFFFF;" width="16.001" height="16.001"/>
	<rect x="128.007" y="176.005" style="fill:#FFFFFF;" width="16.001" height="16.001"/>
	<rect x="128.007" y="199.996" style="fill:#FFFFFF;" width="16.001" height="16.001"/>
	<rect x="152.009" y="152.003" style="fill:#FFFFFF;" width="16.001" height="16.001"/>
	<rect x="152.009" y="176.005" style="fill:#FFFFFF;" width="16.001" height="16.001"/>
	<rect x="152.009" y="199.996" style="fill:#FFFFFF;" width="16.001" height="16.001"/>
	<rect x="176.01" y="152.003" style="fill:#FFFFFF;" width="16.001" height="16.001"/>
	<rect x="176.01" y="176.005" style="fill:#FFFFFF;" width="16.001" height="16.001"/>
	<rect x="176.01" y="199.996" style="fill:#FFFFFF;" width="16.001" height="16.001"/>
	<rect x="200.002" y="152.003" style="fill:#FFFFFF;" width="16.001" height="16.001"/>
	<rect x="200.002" y="176.005" style="fill:#FFFFFF;" width="16.001" height="16.001"/>
	<rect x="200.002" y="199.996" style="fill:#FFFFFF;" width="16.001" height="16.001"/>
</g>
<g>
</g>
<g>
</g>
<g>
</g>
<g>
</g>
<g>
</g>
<g>
</g>
<g>
</g>
<g>
</g>
<g>
</g>
<g>
</g>
<g>
</g>
<g>
</g>
<g>
</g>
<g>
</g>
<g>
</g>
</svg>
