<?xml version="1.0" encoding="iso-8859-1"?>
<!-- Generator: Adobe Illustrator 19.0.0, SVG Export Plug-In . SVG Version: 6.00 Build 0)  -->
<svg version="1.1" id="Layer_1" xmlns="http://www.w3.org/2000/svg" xmlns:xlink="http://www.w3.org/1999/xlink" x="0px" y="0px"
	 viewBox="0 0 511.994 511.994" style="enable-background:new 0 0 511.994 511.994;" xml:space="preserve">
<rect x="269.864" y="7.833" style="fill:#FEB860;" width="110.255" height="128.04"/>
<path style="fill:#C8546F;" d="M276.089,215.902c0-39.778-32.246-72.023-72.024-72.023s-72.024,32.245-72.024,72.023v16.005h144.048
	V215.902z"/>
<g>
	<rect x="124.038" y="224.07" style="fill:#1D1D1B;" width="160.05" height="15.666"/>
	<rect x="132.215" y="247.913" style="fill:#1D1D1B;" width="15.666" height="32.01"/>
	<rect x="164.225" y="247.913" style="fill:#1D1D1B;" width="15.666" height="96.03"/>
	<rect x="132.215" y="295.923" style="fill:#1D1D1B;" width="15.666" height="16.005"/>
	<rect x="196.235" y="247.913" style="fill:#1D1D1B;" width="15.666" height="32.01"/>
	<rect x="196.235" y="295.923" style="fill:#1D1D1B;" width="15.666" height="128.04"/>
	<rect x="164.225" y="359.954" style="fill:#1D1D1B;" width="15.666" height="32.01"/>
	<rect x="228.245" y="247.913" style="fill:#1D1D1B;" width="15.666" height="64.02"/>
	<rect x="228.245" y="327.933" style="fill:#1D1D1B;" width="15.666" height="48.017"/>
	<rect x="196.235" y="439.974" style="fill:#1D1D1B;" width="15.666" height="16.005"/>
	<rect x="228.245" y="391.964" style="fill:#1D1D1B;" width="15.666" height="40.01"/>
	<rect x="260.255" y="247.913" style="fill:#1D1D1B;" width="15.666" height="24.008"/>
	<path style="fill:#1D1D1B;" d="M324.105,79.688V64.022H196.232v72.412c-40.37,3.949-72.024,38.079-72.024,79.468h15.666
		c0-35.396,28.797-64.191,64.191-64.191s64.191,28.795,64.191,64.191h15.666c0-41.39-31.654-75.52-72.024-79.468V79.688H324.105z"/>
	<polygon style="fill:#1D1D1B;" points="387.956,143.709 260.253,143.709 260.253,87.86 275.919,87.86 275.919,128.043 
		372.29,128.043 372.29,15.666 275.919,15.666 275.919,55.85 260.253,55.85 260.253,0 387.956,0 	"/>
</g>
<g>
	<rect x="284.088" y="24.008" style="fill:#FFFFFF;" width="16.005" height="15.666"/>
	<rect x="348.108" y="24.008" style="fill:#FFFFFF;" width="16.005" height="15.666"/>
	<rect x="284.088" y="104.03" style="fill:#FFFFFF;" width="16.005" height="15.666"/>
	<rect x="348.108" y="104.03" style="fill:#FFFFFF;" width="16.005" height="15.666"/>
</g>
<g>
	<rect x="260.255" y="287.923" style="fill:#1D1D1B;" width="15.666" height="64.02"/>
	<rect x="196.235" y="471.984" style="fill:#1D1D1B;" width="15.666" height="40.01"/>
	<rect x="164.225" y="407.964" style="fill:#1D1D1B;" width="15.666" height="88.03"/>
	<rect x="132.215" y="327.933" style="fill:#1D1D1B;" width="15.666" height="56.019"/>
	<rect x="260.255" y="367.954" style="fill:#1D1D1B;" width="15.666" height="16.005"/>
</g>
<g>
</g>
<g>
</g>
<g>
</g>
<g>
</g>
<g>
</g>
<g>
</g>
<g>
</g>
<g>
</g>
<g>
</g>
<g>
</g>
<g>
</g>
<g>
</g>
<g>
</g>
<g>
</g>
<g>
</g>
</svg>
