<?xml version="1.0" encoding="iso-8859-1"?>
<!-- Generator: Adobe Illustrator 19.0.0, SVG Export Plug-In . SVG Version: 6.00 Build 0)  -->
<svg version="1.1" id="Layer_1" xmlns="http://www.w3.org/2000/svg" xmlns:xlink="http://www.w3.org/1999/xlink" x="0px" y="0px"
	 viewBox="0 0 511.996 511.996" style="enable-background:new 0 0 511.996 511.996;" xml:space="preserve">
<rect x="88.002" y="387.996" style="fill:#C8546F;" width="336.587" height="39.999"/>
<path style="fill:#FEC986;" d="M412.719,387.999H99.28c-37.158,0-67.28-30.122-67.28-67.28v-12.721H480v12.721
	C480,357.878,449.878,387.999,412.719,387.999z"/>
<g>
	<rect y="300.161" style="fill:#1D1D1B;" width="511.996" height="15.674"/>
	<path style="fill:#1D1D1B;" d="M416,395.836H96c-39.61,0-71.837-32.226-71.837-71.837h15.674c0,30.969,25.194,56.163,56.163,56.163
		h320c30.969,0,56.163-25.194,56.163-56.163h15.674C487.836,363.61,455.61,395.836,416,395.836z"/>
	<rect x="88.88" y="412.165" style="fill:#1D1D1B;" width="335.051" height="15.674"/>
	<rect x="104.167" y="188" style="fill:#1D1D1B;" width="15.674" height="64.001"/>
	<rect x="160.164" y="92.004" style="fill:#1D1D1B;" width="15.674" height="119.998"/>
	<rect x="216.161" y="132.004" style="fill:#1D1D1B;" width="15.674" height="112.004"/>
	<rect x="272.168" y="196.004" style="fill:#1D1D1B;" width="15.674" height="79.998"/>
	<rect x="328.165" y="84" style="fill:#1D1D1B;" width="15.674" height="168.001"/>
	<rect x="384.161" y="203.998" style="fill:#1D1D1B;" width="15.674" height="64.001"/>
</g>
<rect x="199.996" y="356.168" style="fill:#FFFFFF;" width="112.004" height="15.674"/>
<g>
</g>
<g>
</g>
<g>
</g>
<g>
</g>
<g>
</g>
<g>
</g>
<g>
</g>
<g>
</g>
<g>
</g>
<g>
</g>
<g>
</g>
<g>
</g>
<g>
</g>
<g>
</g>
<g>
</g>
</svg>
