<?xml version="1.0" encoding="iso-8859-1"?>
<!-- Generator: Adobe Illustrator 19.0.0, SVG Export Plug-In . SVG Version: 6.00 Build 0)  -->
<svg version="1.1" id="Layer_1" xmlns="http://www.w3.org/2000/svg" xmlns:xlink="http://www.w3.org/1999/xlink" x="0px" y="0px"
	 viewBox="0 0 512 512" style="enable-background:new 0 0 512 512;" xml:space="preserve">
<rect x="7.8" y="7.764" style="fill:#C8546F;" width="495.747" height="495.736"/>
<polygon style="fill:#FEC986;" points="503.542,185.142 431.579,185.142 431.579,247.639 367.613,247.639 367.613,311.606 
	303.646,311.606 303.646,375.572 239.679,375.572 239.679,439.539 175.712,439.539 175.712,503.506 503.542,503.506 "/>
<polygon style="fill:#FFFFFF;" points="215.954,103.687 204.924,114.716 220.849,130.641 90.502,130.641 90.502,146.241 
	220.849,146.241 204.924,162.165 215.954,173.196 250.71,138.441 "/>
<path style="fill:#1D1D1B;" d="M0,0.695v510.611h511.331L512,0.695C512,0.695,0,0.695,0,0.695z M15.599,16.294H496.38
	l-0.209,159.579H423.78v63.967h-63.967v63.967h-63.967v63.967H231.88v63.967h-63.967v63.967H15.599V16.294z M183.512,495.706
	v-48.367h63.967v-63.967h63.967v-63.967h63.967v-63.967h63.967v-63.967h56.772l-0.398,304.234H183.512z"/>
<g>
</g>
<g>
</g>
<g>
</g>
<g>
</g>
<g>
</g>
<g>
</g>
<g>
</g>
<g>
</g>
<g>
</g>
<g>
</g>
<g>
</g>
<g>
</g>
<g>
</g>
<g>
</g>
<g>
</g>
</svg>
