<?xml version="1.0" encoding="iso-8859-1"?>
<!-- Generator: Adobe Illustrator 19.0.0, SVG Export Plug-In . SVG Version: 6.00 Build 0)  -->
<svg version="1.1" id="Layer_1" xmlns="http://www.w3.org/2000/svg" xmlns:xlink="http://www.w3.org/1999/xlink" x="0px" y="0px"
	 viewBox="0 0 512 512" style="enable-background:new 0 0 512 512;" xml:space="preserve">
<rect x="7.87" y="7.824" style="fill:#C8546F;" width="495.616" height="495.616"/>
<polygon style="fill:#FEC986;" points="7.87,185.16 79.814,185.16 79.814,247.641 143.766,247.641 143.766,311.592 207.717,311.592 
	207.717,375.543 271.669,375.543 271.669,439.494 335.62,439.494 335.62,503.445 7.87,503.445 "/>
<polygon style="fill:#FFFFFF;" points="421.457,130.609 291.294,130.609 307.109,114.796 295.991,103.679 261.201,138.47 
	295.991,173.261 307.109,162.144 291.294,146.33 421.457,146.33 "/>
<path style="fill:#1D1D1B;" d="M0,0.694l0.669,510.611H512V0.694H0z M15.971,191.551h56.632v63.951h63.952v63.952h63.952v63.951
	h63.951v63.952h63.952v48.23H16.369L15.971,191.551z M496.279,495.584h-152.15v-63.951h-63.952v-63.952h-63.951v-63.951h-63.951
	V239.78H88.324V175.83H15.951L15.742,16.416h480.537V495.584z"/>
<g>
</g>
<g>
</g>
<g>
</g>
<g>
</g>
<g>
</g>
<g>
</g>
<g>
</g>
<g>
</g>
<g>
</g>
<g>
</g>
<g>
</g>
<g>
</g>
<g>
</g>
<g>
</g>
<g>
</g>
</svg>
