<?xml version="1.0" encoding="iso-8859-1"?>
<!-- Generator: Adobe Illustrator 19.0.0, SVG Export Plug-In . SVG Version: 6.00 Build 0)  -->
<svg version="1.1" id="Layer_1" xmlns="http://www.w3.org/2000/svg" xmlns:xlink="http://www.w3.org/1999/xlink" x="0px" y="0px"
	 viewBox="0 0 512 512" style="enable-background:new 0 0 512 512;" xml:space="preserve">
<g>
	<rect x="119.878" y="456.179" style="fill:#9B4573;" width="24.017" height="48.044"/>
	<rect x="368.096" y="456.179" style="fill:#9B4573;" width="24.017" height="48.044"/>
</g>
<rect x="167.922" y="199.945" style="fill:#FEB860;" width="176.156" height="296.262"/>
<rect x="167.922" y="199.945" style="fill:#FEC986;" width="136.117" height="296.262"/>
<rect x="191.939" y="288.028" style="fill:#9B4573;" width="128.112" height="40.036"/>
<rect x="191.939" y="328.067" style="fill:#C8546F;" width="128.112" height="144.133"/>
<rect x="216.195" y="328.067" style="fill:#FFFFFF;" width="15.555" height="24.017"/>
<g>
	<path style="fill:#1D1D1B;" d="M360.322,448.401v24.022h-8.466V192.173H160.143v280.251h-8.466v-24.022H112.1V512h39.576v-24.021
		h8.466v16.014h191.713v-16.014h8.467V512H399.9v-63.599H360.322z M136.122,496.445h-8.466v-32.488h8.466L136.122,496.445
		L136.122,496.445z M336.301,488.437H175.698v-280.71h160.603V488.437z M384.344,496.445h-8.466v-32.488h8.466V496.445z"/>
	<rect x="192.168" y="31.799" style="fill:#1D1D1B;" width="15.555" height="152.139"/>
	<polygon style="fill:#1D1D1B;" points="319.827,23.792 304.272,23.792 304.272,15.555 207.727,15.555 207.727,23.792 
		192.172,23.792 192.172,0 319.827,0 	"/>
	<rect x="304.268" y="31.799" style="fill:#1D1D1B;" width="15.555" height="152.139"/>
	<polygon style="fill:#1D1D1B;" points="287.798,183.936 272.243,183.936 272.243,167.691 239.756,167.691 239.756,183.936 
		224.201,183.936 224.201,152.136 287.798,152.136 	"/>
	<path style="fill:#1D1D1B;" d="M184.165,280.251v199.72h143.67v-199.72H184.165z M312.28,295.806v24.481H199.72v-24.481H312.28z
		 M199.72,464.416V335.842h112.56v128.574H199.72z"/>
	<rect x="223.973" y="224.201" style="fill:#1D1D1B;" width="64.057" height="15.555"/>
</g>
<g>
</g>
<g>
</g>
<g>
</g>
<g>
</g>
<g>
</g>
<g>
</g>
<g>
</g>
<g>
</g>
<g>
</g>
<g>
</g>
<g>
</g>
<g>
</g>
<g>
</g>
<g>
</g>
<g>
</g>
</svg>
