<?xml version="1.0" encoding="iso-8859-1"?>
<!-- Generator: Adobe Illustrator 19.0.0, SVG Export Plug-In . SVG Version: 6.00 Build 0)  -->
<svg version="1.1" id="Layer_1" xmlns="http://www.w3.org/2000/svg" xmlns:xlink="http://www.w3.org/1999/xlink" x="0px" y="0px"
	 viewBox="0 0 512.005 512.005" style="enable-background:new 0 0 512.005 512.005;" xml:space="preserve">
<path style="fill:#C8546F;" d="M280,127.936c0-48.601,39.398-88,87.999-88s88,39.399,88,88v16.001H280V127.936z"/>
<rect y="143.937" style="fill:#FEC986;" width="511.999" height="191.998"/>
<path style="fill:#9B4573;" d="M208,167.936c0-35.346-28.654-64-64-64s-64,28.654-64,64H208z"/>
<rect y="335.935" style="fill:#C8546F;" width="511.999" height="79.998"/>
<rect y="335.935" style="fill:#9B4573;" width="511.999" height="23.999"/>
<rect y="415.933" style="fill:#FEB860;" width="511.999" height="63.996"/>
<rect x="464.005" y="328.076" style="fill:#1D1D1B;" width="48.001" height="15.719"/>
<g>
	<rect x="112.001" y="448.072" style="fill:#FFFFFF;" width="144.004" height="15.719"/>
	<rect x="280.002" y="432.071" style="fill:#FFFFFF;" width="23.999" height="15.719"/>
	<rect x="303.999" y="464.074" style="fill:#FFFFFF;" width="39.999" height="15.719"/>
	<rect x="423.995" y="440.077" style="fill:#FFFFFF;" width="56" height="15.719"/>
	<rect x="367.995" y="440.077" style="fill:#FFFFFF;" width="24" height="15.719"/>
	<rect y="440.077" style="fill:#FFFFFF;" width="39.999" height="15.719"/>
	<rect x="56" y="456.078" style="fill:#FFFFFF;" width="16" height="15.719"/>
	<rect x="16.001" y="264.08" style="fill:#FFFFFF;" width="48.001" height="15.719"/>
	<rect x="72.002" y="264.08" style="fill:#FFFFFF;" width="144.004" height="15.719"/>
</g>
<g>
	<path style="fill:#1D1D1B;" d="M352,328.076H191.859v-24.281h21.761l22.02,14.68l8.719-13.078l-25.98-17.32H16.001v15.719h48.14
		v24.281H0v15.719h352V328.076z M79.859,303.795h96.281v24.281H79.859V303.795z"/>
	<path style="fill:#1D1D1B;" d="M455.859,263.796h16.281v56.141h15.719v-71.859h-47.719v40H375.86v-40h-47.719v71.859h15.719
		v-56.141h16.281v144.333H0v15.719h512v-15.719h-56.141V263.796z M440.141,368.077H375.86v-24.282h64.281V368.077z M440.141,303.795
		v24.281H375.86v-24.281H440.141z M375.859,383.795h64.281v24.334h-64.281V383.795z"/>
	<path style="fill:#1D1D1B;" d="M512,136.077H208.387c-10.656-21.448-31.708-36.849-56.526-39.562v-8.578h-15.719v8.579
		c-24.821,2.713-45.878,18.116-56.535,39.562H0v15.719h73.981c-1.197,5.191-1.84,10.591-1.84,16.141v7.859h64v80.141h15.719v-80.141
		h64v-7.859c0-5.551-0.654-10.949-1.851-16.141h297.991v-15.72H512z M88.408,160.077c3.832-27.25,27.302-48.281,55.593-48.281
		s51.759,21.032,55.592,48.281H88.408z"/>
	<path style="fill:#1D1D1B;" d="M463.859,127.936H448.14c0-44.189-35.951-80.141-80.141-80.141c-44.189,0-80.14,35.951-80.14,80.141
		H272.14c0-52.857,43.002-95.86,95.859-95.86C420.857,32.077,463.859,75.079,463.859,127.936z"/>
</g>
<g>
</g>
<g>
</g>
<g>
</g>
<g>
</g>
<g>
</g>
<g>
</g>
<g>
</g>
<g>
</g>
<g>
</g>
<g>
</g>
<g>
</g>
<g>
</g>
<g>
</g>
<g>
</g>
<g>
</g>
</svg>
