<?xml version="1.0" encoding="iso-8859-1"?>
<!-- Generator: Adobe Illustrator 19.0.0, SVG Export Plug-In . SVG Version: 6.00 Build 0)  -->
<svg version="1.1" id="Layer_1" xmlns="http://www.w3.org/2000/svg" xmlns:xlink="http://www.w3.org/1999/xlink" x="0px" y="0px"
	 viewBox="0 0 511.995 511.995" style="enable-background:new 0 0 511.995 511.995;" xml:space="preserve">
<rect y="203.925" style="fill:#C8546F;" width="511.995" height="143.998"/>
<rect y="203.925" style="fill:#9B4573;" width="511.995" height="24"/>
<rect y="323.931" style="fill:#FEB860;" width="511.995" height="143.998"/>
<g>
	<rect y="316.066" style="fill:#1D1D1B;" width="511.995" height="15.729"/>
	<rect x="367.997" y="196.061" style="fill:#1D1D1B;" width="143.998" height="15.729"/>
	<rect y="196.061" style="fill:#1D1D1B;" width="207.996" height="15.729"/>
</g>
<g>
	<rect x="71.999" y="364.062" style="fill:#FFFFFF;" width="71.999" height="15.729"/>
	<rect x="151.999" y="396.066" style="fill:#FFFFFF;" width="160" height="15.729"/>
	<rect x="112.004" y="428.06" style="fill:#FFFFFF;" width="40.005" height="15.729"/>
	<rect x="439.996" y="396.066" style="fill:#FFFFFF;" width="48" height="15.729"/>
	<rect x="336.003" y="356.061" style="fill:#FFFFFF;" width="120.005" height="15.729"/>
	<rect y="404.067" style="fill:#FFFFFF;" width="24" height="15.729"/>
	<rect x="383.999" y="428.06" style="fill:#FFFFFF;" width="24" height="15.729"/>
</g>
<g>
	<rect x="312.136" y="155.93" style="fill:#1D1D1B;" width="15.729" height="32"/>
	<path style="fill:#1D1D1B;" d="M400,44.066c-30.804,0-55.865,25.06-55.865,55.865v32.135H231.864V99.93
		c0-22.13,18.004-40.135,40.135-40.135s40.135,18.004,40.135,40.135v24h15.729v-24c0-30.804-25.06-55.865-55.865-55.865
		s-55.865,25.06-55.865,55.865v208h15.729v-32.135h112.271v32.135h15.729v-208c0-22.13,18.004-40.135,40.135-40.135
		c22.131,0,40.135,18.004,40.135,40.135v88h15.729v-88C455.865,69.126,430.804,44.066,400,44.066z M231.864,147.795h112.271v48.271
		H231.864V147.795z M231.864,260.065v-48.271h112.271v48.271H231.864z"/>
</g>
<g>
</g>
<g>
</g>
<g>
</g>
<g>
</g>
<g>
</g>
<g>
</g>
<g>
</g>
<g>
</g>
<g>
</g>
<g>
</g>
<g>
</g>
<g>
</g>
<g>
</g>
<g>
</g>
<g>
</g>
</svg>
