<?xml version="1.0" encoding="iso-8859-1"?>
<!-- Generator: Adobe Illustrator 19.0.0, SVG Export Plug-In . SVG Version: 6.00 Build 0)  -->
<svg version="1.1" id="Layer_1" xmlns="http://www.w3.org/2000/svg" xmlns:xlink="http://www.w3.org/1999/xlink" x="0px" y="0px"
	 viewBox="0 0 512 512" style="enable-background:new 0 0 512 512;" xml:space="preserve">
<polygon style="fill:#FFFFFF;" points="440.124,227.993 392.038,131.964 119.962,131.964 68.862,228.159 "/>
<rect x="183.976" y="51.944" style="fill:#9B4573;" width="144.043" height="48.011"/>
<g>
	<rect x="15.933" y="155.969" style="fill:#C8546F;" width="48.011" height="40.012"/>
	<rect x="448.052" y="155.969" style="fill:#C8546F;" width="48.011" height="40.012"/>
</g>
<g>
	<rect x="432.045" y="396.034" style="fill:#9B4573;" width="48.011" height="64.018"/>
	<rect x="31.94" y="396.034" style="fill:#9B4573;" width="48.011" height="64.018"/>
</g>
<rect x="31.94" y="227.991" style="fill:#FEC986;" width="448.126" height="144.043"/>
<rect x="31.94" y="227.991" style="fill:#FEB860;" width="264.075" height="144.043"/>
<rect x="7.93" y="372.034" style="fill:#C8546F;" width="496.137" height="24.006"/>
<g>
	<rect x="63.944" y="268.009" style="fill:#FFFFFF;" width="104.025" height="64.018"/>
	<rect x="344.027" y="268.009" style="fill:#FFFFFF;" width="104.025" height="64.018"/>
</g>
<g>
	<path style="fill:#1D1D1B;" d="M512,403.969H0v-39.866h512V403.969z M15.859,388.11h480.282v-8.147H15.859V388.11z"/>
	<path style="fill:#1D1D1B;" d="M175.904,339.951H56.015v-79.877h119.889V339.951z M71.875,324.092h88.17v-48.159h-88.17V324.092z"
		/>
	<rect x="87.955" y="292.083" style="fill:#1D1D1B;" width="56.015" height="15.859"/>
	<path style="fill:#1D1D1B;" d="M455.984,339.951H336.095v-79.877h119.889L455.984,339.951L455.984,339.951z M351.954,324.092h88.17
		v-48.159h-88.17V324.092z"/>
	<rect x="368.037" y="292.083" style="fill:#1D1D1B;" width="56.015" height="15.859"/>
	<rect x="191.98" y="268.072" style="fill:#1D1D1B;" width="128.036" height="15.859"/>
	<rect x="191.98" y="292.083" style="fill:#1D1D1B;" width="128.036" height="15.859"/>
	<rect x="191.98" y="316.093" style="fill:#1D1D1B;" width="128.036" height="15.859"/>
</g>
<rect x="207.987" y="68.014" style="fill:#FFFFFF;" width="96.032" height="15.859"/>
<g>
	<polygon style="fill:#1D1D1B;" points="87.88,467.988 24.006,467.988 24.006,412.044 39.866,412.044 39.866,452.129 72.02,452.129 
		72.02,412.044 87.88,412.044 	"/>
	<polygon style="fill:#1D1D1B;" points="487.994,467.988 424.12,467.988 424.12,412.044 439.98,412.044 439.98,452.129 
		472.134,452.129 472.134,412.044 487.994,412.044 	"/>
	<path style="fill:#1D1D1B;" d="M503.998,203.912v-55.871h-63.873v62.364l-43.185-86.372h-84.996v-16.149h24.008V44.012h-159.9
		v63.873h24.008v16.149h-84.996l-43.185,86.371v-62.363H8.003v55.871h48.014v16.15h-32.01v135.966h15.859V235.921h432.269v120.106
		h15.859V220.062h-32.009v-16.15H503.998z M455.984,163.901h32.155v24.152h-32.155V163.901z M191.909,59.871h128.182v32.155H191.909
		V59.871z M215.916,107.885h80.168v16.149h-80.168L215.916,107.885L215.916,107.885z M124.862,139.893h262.276l40.084,80.169H84.778
		L124.862,139.893z M23.862,188.053v-24.152h32.155v24.152H23.862z"/>
	
		<rect x="208.076" y="146.024" transform="matrix(-0.7071 -0.7071 0.7071 -0.7071 241.4842 459.9711)" style="fill:#1D1D1B;" width="15.859" height="67.898"/>
	
		<rect x="234.088" y="179.832" transform="matrix(-0.7071 -0.7071 0.7071 -0.7071 275.9858 502.2729)" style="fill:#1D1D1B;" width="15.859" height="28.292"/>
</g>
<g>
</g>
<g>
</g>
<g>
</g>
<g>
</g>
<g>
</g>
<g>
</g>
<g>
</g>
<g>
</g>
<g>
</g>
<g>
</g>
<g>
</g>
<g>
</g>
<g>
</g>
<g>
</g>
<g>
</g>
</svg>
