<?xml version="1.0" encoding="iso-8859-1"?>
<!-- Generator: Adobe Illustrator 19.0.0, SVG Export Plug-In . SVG Version: 6.00 Build 0)  -->
<svg version="1.1" id="Layer_1" xmlns="http://www.w3.org/2000/svg" xmlns:xlink="http://www.w3.org/1999/xlink" x="0px" y="0px"
	 viewBox="0 0 512.007 512.007" style="enable-background:new 0 0 512.007 512.007;" xml:space="preserve">
<g>
	<rect x="432.001" y="208.002" style="fill:#FEB860;" width="64.001" height="23.998"/>
	<rect x="16" y="208.002" style="fill:#FEB860;" width="64.001" height="23.998"/>
	<rect x="160.002" y="96.006" style="fill:#FEB860;" width="192.003" height="32"/>
</g>
<g>
	<path style="fill:#9B4573;" d="M504,208.004h-80v-32c0-22.092,17.908-40,40-40l0,0c22.091,0,40,17.908,40,40L504,208.004
		L504,208.004z"/>
	<path style="fill:#9B4573;" d="M88,208.004H8v-32c0-22.092,17.909-40,40-40l0,0c22.091,0,40,17.908,40,40
		C88,176.004,88,208.004,88,208.004z"/>
</g>
<rect x="119.999" y="200.01" style="fill:#C8546F;" width="271.999" height="207.998"/>
<circle style="fill:#FEC986;" cx="256.004" cy="304.003" r="64.001"/>
<circle style="fill:#9B4573;" cx="256.004" cy="304.003" r="32"/>
<g>
	<path style="fill:#1D1D1B;" d="M256,232.198c-39.593,0-71.805,32.212-71.805,71.805c0,39.594,32.212,71.806,71.805,71.806
		s71.805-32.212,71.805-71.806C327.805,264.41,295.594,232.198,256,232.198z M256,360.199c-30.986,0-56.195-25.21-56.195-56.196
		s25.209-56.195,56.195-56.195c28.336,0,51.828,21.087,55.64,48.39h-16.608c-3.638-18.224-19.755-31.999-39.032-31.999
		c-21.949,0-39.805,17.856-39.805,39.804s17.857,39.805,39.805,39.805c19.277,0,35.394-13.776,39.032-32h16.608
		C307.829,339.111,284.337,360.199,256,360.199z M280.195,304.003c0,13.341-10.854,24.195-24.195,24.195
		c-13.341,0-24.195-10.854-24.195-24.195c0-13.34,10.854-24.194,24.195-24.194C269.341,279.809,280.195,290.663,280.195,304.003z"/>
	<polygon style="fill:#1D1D1B;" points="127.805,207.809 384.195,207.809 384.195,392.004 399.805,392.004 399.805,192.199 
		351.805,192.199 351.805,152.004 336.195,152.004 336.195,192.199 175.805,192.199 175.805,152.004 160.195,152.004 
		160.195,192.199 112.195,192.199 112.195,392.004 127.805,392.004 	"/>
	<polygon style="fill:#1D1D1B;" points="408,400.199 104,400.199 104,415.809 128.195,415.809 128.195,432.004 143.805,432.004 
		143.805,415.809 368.203,415.809 368.203,432.004 383.813,432.004 383.813,415.809 408,415.809 	"/>
</g>
<rect x="248.199" y="296.001" style="fill:#FFFFFF;" width="15.61" height="16"/>
<g>
	<path style="fill:#1D1D1B;" d="M359.806,135.809H152.195v-47.61h207.611V135.809z M167.805,120.199h176.391v-16.39H167.805V120.199
		z"/>
	<rect x="368.198" y="80.003" style="fill:#1D1D1B;" width="15.61" height="64.001"/>
	<rect x="128.2" y="80.003" style="fill:#1D1D1B;" width="15.61" height="64.001"/>
	<rect x="416.006" y="200.197" style="fill:#1D1D1B;" width="96.001" height="15.61"/>
	<rect x="432.001" y="224.195" style="fill:#1D1D1B;" width="64.001" height="15.61"/>
	<rect y="200.197" style="fill:#1D1D1B;" width="96.001" height="15.61"/>
	<path style="fill:#1D1D1B;" d="M471.805,128.847v-24.648H392v15.61h64.196v9.038c-22.658,3.739-40,23.457-40,47.157v16h15.61v-16
		c0-17.753,14.442-32.195,32.195-32.195c17.753,0,32.195,14.442,32.195,32.195v16h15.61v-16
		C511.805,152.303,494.465,132.585,471.805,128.847z"/>
	<path style="fill:#1D1D1B;" d="M40.195,128.847c-22.658,3.739-40,23.457-40,47.157v16h15.61v-16
		c0-17.753,14.442-32.195,32.195-32.195s32.195,14.442,32.195,32.195v16h15.61v-16c0-23.7-17.342-43.419-40-47.157v-9.038H120
		v-15.61H40.195V128.847z"/>
	<rect x="16" y="224.195" style="fill:#1D1D1B;" width="64.001" height="15.61"/>
</g>
<g>
</g>
<g>
</g>
<g>
</g>
<g>
</g>
<g>
</g>
<g>
</g>
<g>
</g>
<g>
</g>
<g>
</g>
<g>
</g>
<g>
</g>
<g>
</g>
<g>
</g>
<g>
</g>
<g>
</g>
</svg>
