<?xml version="1.0" encoding="iso-8859-1"?>
<!-- Generator: Adobe Illustrator 19.0.0, SVG Export Plug-In . SVG Version: 6.00 Build 0)  -->
<svg version="1.1" id="Layer_1" xmlns="http://www.w3.org/2000/svg" xmlns:xlink="http://www.w3.org/1999/xlink" x="0px" y="0px"
	 viewBox="0 0 512 512" style="enable-background:new 0 0 512 512;" xml:space="preserve">
<rect x="7.82" y="79.868" style="fill:#FEC986;" width="496.359" height="240.177"/>
<rect x="7.82" y="288.025" style="fill:#FEB860;" width="496.359" height="32.023"/>
<rect x="111.898" y="239.99" style="fill:#C8546F;" width="72.048" height="192.142"/>
<path style="fill:#1D1D1B;" d="M191.767,439.947h-87.692V232.169h87.692L191.767,439.947L191.767,439.947z M119.715,424.307h56.412
	V247.809h-56.412V424.307z"/>
<g>
	<rect x="127.903" y="264.19" style="fill:#FFFFFF;" width="16.011" height="15.64"/>
	<rect x="151.926" y="264.19" style="fill:#FFFFFF;" width="16.011" height="15.64"/>
	<rect x="127.903" y="296.221" style="fill:#FFFFFF;" width="16.011" height="15.64"/>
	<rect x="151.926" y="296.221" style="fill:#FFFFFF;" width="16.011" height="15.64"/>
	<rect x="127.903" y="328.241" style="fill:#FFFFFF;" width="16.011" height="15.64"/>
	<rect x="151.926" y="328.241" style="fill:#FFFFFF;" width="16.011" height="15.64"/>
	<rect x="127.903" y="360.261" style="fill:#FFFFFF;" width="16.011" height="15.64"/>
	<rect x="151.926" y="360.261" style="fill:#FFFFFF;" width="16.011" height="15.64"/>
	<rect x="135.911" y="392.281" style="fill:#FFFFFF;" width="24.023" height="15.64"/>
	<rect x="384.096" y="280.205" style="fill:#FFFFFF;" width="16.011" height="15.64"/>
	<rect x="416.116" y="280.205" style="fill:#FFFFFF;" width="16.011" height="15.64"/>
	<rect x="448.136" y="280.205" style="fill:#FFFFFF;" width="16.011" height="15.64"/>
</g>
<g>
	<rect x="239.989" y="104.079" style="fill:#1D1D1B;" width="32.023" height="15.64"/>
	<rect x="199.962" y="280.205" style="fill:#1D1D1B;" width="168.119" height="15.64"/>
	<rect x="23.831" y="280.205" style="fill:#1D1D1B;" width="72.048" height="15.64"/>
	<polygon style="fill:#1D1D1B;" points="0,72.053 0,327.866 48.034,327.866 48.034,360.076 63.674,360.076 63.674,327.866 
		95.887,327.866 95.887,312.227 15.64,312.227 15.64,87.693 496.36,87.693 496.36,280.203 480.162,280.203 480.162,295.843 
		496.36,295.843 496.36,312.227 199.958,312.227 199.958,327.866 448.325,327.866 448.325,360.076 463.965,360.076 463.965,327.866 
		512,327.866 512,72.053 	"/>
</g>
<g>
</g>
<g>
</g>
<g>
</g>
<g>
</g>
<g>
</g>
<g>
</g>
<g>
</g>
<g>
</g>
<g>
</g>
<g>
</g>
<g>
</g>
<g>
</g>
<g>
</g>
<g>
</g>
<g>
</g>
</svg>
