<?xml version="1.0" encoding="iso-8859-1"?>
<!-- Generator: Adobe Illustrator 19.0.0, SVG Export Plug-In . SVG Version: 6.00 Build 0)  -->
<svg version="1.1" id="Layer_1" xmlns="http://www.w3.org/2000/svg" xmlns:xlink="http://www.w3.org/1999/xlink" x="0px" y="0px"
	 viewBox="0 0 512 512" style="enable-background:new 0 0 512 512;" xml:space="preserve">
<rect x="7.885" y="163.955" style="fill:#C8546F;" width="488.229" height="184.089"/>
<rect x="416.076" y="163.955" style="fill:#FEB860;" width="88.039" height="184.089"/>
<g>
	<rect x="408.191" y="187.968" style="fill:#1D1D1B;" width="15.77" height="16.008"/>
	<rect x="408.191" y="211.98" style="fill:#1D1D1B;" width="15.77" height="16.008"/>
	<rect x="408.191" y="235.993" style="fill:#1D1D1B;" width="15.77" height="16.008"/>
	<rect x="408.191" y="260.005" style="fill:#1D1D1B;" width="15.77" height="16.008"/>
	<rect x="408.191" y="284.007" style="fill:#1D1D1B;" width="15.77" height="16.008"/>
	<rect x="408.191" y="308.02" style="fill:#1D1D1B;" width="15.77" height="16.008"/>
	<path style="fill:#1D1D1B;" d="M512,355.927V156.072H0v199.856h512V355.927z M496.23,340.157h-72.271v-8.123h-15.77v8.123H15.77
		V171.842h392.419v8.123h15.77v-8.123h72.271V340.157z"/>
</g>
<rect x="39.899" y="188.083" style="fill:#FFFFFF;" width="176.078" height="15.77"/>
<g>
	<rect x="39.899" y="220.096" style="fill:#1D1D1B;" width="176.078" height="15.77"/>
	<rect x="39.899" y="252.12" style="fill:#1D1D1B;" width="80.038" height="15.77"/>
</g>
<g>
	<rect x="39.899" y="300.135" style="fill:#FFFFFF;" width="16.009" height="15.77"/>
	<rect x="71.911" y="300.135" style="fill:#FFFFFF;" width="16.008" height="15.77"/>
	<rect x="103.924" y="300.135" style="fill:#FFFFFF;" width="16.009" height="15.77"/>
	<rect x="135.948" y="300.135" style="fill:#FFFFFF;" width="16.008" height="15.77"/>
	<rect x="167.961" y="300.135" style="fill:#FFFFFF;" width="16.009" height="15.77"/>
	<rect x="199.974" y="300.135" style="fill:#FFFFFF;" width="16.008" height="15.77"/>
	<rect x="440.089" y="188.083" style="fill:#FFFFFF;" width="40.014" height="15.77"/>
</g>
<g>
	<rect x="440.089" y="220.096" style="fill:#1D1D1B;" width="40.014" height="15.77"/>
	<rect x="440.089" y="252.12" style="fill:#1D1D1B;" width="24.011" height="15.77"/>
	<rect x="135.948" y="252.12" style="fill:#1D1D1B;" width="32.014" height="15.77"/>
	<rect x="247.999" y="300.135" style="fill:#1D1D1B;" width="64.029" height="15.77"/>
</g>
<rect x="328.037" y="300.135" style="fill:#FFFFFF;" width="64.029" height="15.77"/>
<g>
</g>
<g>
</g>
<g>
</g>
<g>
</g>
<g>
</g>
<g>
</g>
<g>
</g>
<g>
</g>
<g>
</g>
<g>
</g>
<g>
</g>
<g>
</g>
<g>
</g>
<g>
</g>
<g>
</g>
</svg>
