<?xml version="1.0" encoding="iso-8859-1"?>
<!-- Generator: Adobe Illustrator 19.0.0, SVG Export Plug-In . SVG Version: 6.00 Build 0)  -->
<svg version="1.1" id="Layer_1" xmlns="http://www.w3.org/2000/svg" xmlns:xlink="http://www.w3.org/1999/xlink" x="0px" y="0px"
	 viewBox="0 0 512 512" style="enable-background:new 0 0 512 512;" xml:space="preserve">
<rect x="7.802" y="7.802" style="fill:#FEC986;" width="496.392" height="496.392"/>
<rect x="7.802" y="7.802" style="fill:#C8546F;" width="248.196" height="496.392"/>
<g>
	<path style="fill:#FFFFFF;" d="M128.355,143.706h-0.914c-12.879,0-23.358-10.479-23.358-23.358V79.402
		c0-12.879,10.479-23.358,23.358-23.358h0.914c12.879,0,23.358,10.479,23.358,23.358v40.946
		C151.713,133.227,141.234,143.706,128.355,143.706z M127.44,71.648c-4.275,0-7.754,3.479-7.754,7.754v40.946
		c0,4.275,3.479,7.754,7.754,7.754h0.914c4.275,0,7.754-3.479,7.754-7.754V79.402c0-4.275-3.479-7.754-7.754-7.754H127.44z"/>
	<polygon style="fill:#FFFFFF;" points="199.751,320.051 184.147,320.051 184.147,175.731 71.648,175.731 71.648,320.051 
		56.044,320.051 56.044,160.127 199.751,160.127 	"/>
	<rect x="88.069" y="207.959" style="fill:#FFFFFF;" width="15.604" height="240.196"/>
	<rect x="152.117" y="207.959" style="fill:#FFFFFF;" width="15.604" height="240.196"/>
	<path style="fill:#FFFFFF;" d="M376.603,143.706h-0.914c-12.879,0-23.358-10.479-23.358-23.358V79.402
		c0-12.879,10.479-23.358,23.358-23.358h0.914c12.879,0,23.357,10.479,23.357,23.358v40.946
		C399.96,133.227,389.482,143.706,376.603,143.706z M375.688,71.648c-4.275,0-7.754,3.479-7.754,7.754v40.946
		c0,4.275,3.479,7.754,7.754,7.754h0.914c4.274,0,7.753-3.479,7.753-7.754V79.402c0-4.275-3.479-7.754-7.753-7.754H375.688z"/>
	<polygon style="fill:#FFFFFF;" points="433.655,324.378 400.319,274.375 400.319,175.731 351.873,175.731 351.873,274.375 
		318.536,324.378 305.554,315.723 336.269,269.65 336.269,160.127 415.923,160.127 415.923,269.65 446.638,315.723 	"/>
	<rect x="344.275" y="320.047" style="fill:#FFFFFF;" width="15.604" height="128.098"/>
	<rect x="392.314" y="320.047" style="fill:#FFFFFF;" width="15.604" height="128.098"/>
</g>
<g>
	<rect x="248.196" y="31.821" style="fill:#1D1D1B;" width="15.604" height="448.353"/>
	<path style="fill:#1D1D1B;" d="M512,512H0V0h512V512z M15.604,496.396h480.792V15.604H15.604V496.396z"/>
</g>
<g>
</g>
<g>
</g>
<g>
</g>
<g>
</g>
<g>
</g>
<g>
</g>
<g>
</g>
<g>
</g>
<g>
</g>
<g>
</g>
<g>
</g>
<g>
</g>
<g>
</g>
<g>
</g>
<g>
</g>
</svg>
