<?xml version="1.0" encoding="iso-8859-1"?>
<!-- Generator: Adobe Illustrator 19.0.0, SVG Export Plug-In . SVG Version: 6.00 Build 0)  -->
<svg version="1.1" id="Layer_1" xmlns="http://www.w3.org/2000/svg" xmlns:xlink="http://www.w3.org/1999/xlink" x="0px" y="0px"
	 viewBox="0 0 512 512" style="enable-background:new 0 0 512 512;" xml:space="preserve">
<rect x="324.002" y="159.999" style="fill:#FEB860;" width="32.001" height="343.998"/>
<rect x="324.002" y="8" style="fill:#C8546F;" width="32.001" height="151.999"/>
<g>
	<rect x="132.003" y="8" style="fill:#9B4573;" width="95.999" height="32"/>
	<polygon style="fill:#9B4573;" points="267.999,504 91.998,504 99.998,480.001 259.999,480.001 	"/>
</g>
<rect x="116.003" y="87.999" style="fill:#FEC986;" width="127.999" height="391.998"/>
<rect x="116.003" y="135.999" style="fill:#C8546F;" width="56" height="167.999"/>
<rect x="116.003" y="447.997" style="fill:#FEB860;" width="127.999" height="32"/>
<g>
	<path style="fill:#1D1D1B;" d="M251.998,464.001V80.001H107.999v384.001c0,4.411-3.589,8-8.001,8v16h160.001v-16
		C255.588,472.001,251.998,468.412,251.998,464.001z M123.999,464.001V96h111.999v368.001c0,2.805,0.489,5.496,1.376,8H122.623
		C123.511,469.497,123.999,466.806,123.999,464.001z"/>
	<rect x="92.004" y="495.997" style="fill:#1D1D1B;" width="175.999" height="16"/>
	<rect x="148.003" y="56" style="fill:#1D1D1B;" width="64.001" height="16"/>
	<path style="fill:#1D1D1B;" d="M235.999,48H123.999V0h111.999V48z M139.999,32H220V16h-80.001V32z"/>
</g>
<rect x="140.003" y="439.997" style="fill:#FFFFFF;" width="80" height="16"/>
<g>
	<polygon style="fill:#1D1D1B;" points="179.999,312 131.999,312 131.999,296 163.999,296 163.999,143.999 131.999,143.999 
		131.999,127.999 179.999,127.999 	"/>
	<path style="fill:#1D1D1B;" d="M315.999,0v512H364V0H315.999z M348,16v136h-16.001V16H348z M331.999,496V168H348v328H331.999z"/>
	<rect x="372.002" y="8" style="fill:#1D1D1B;" width="48" height="16"/>
	<rect x="372.002" y="32" style="fill:#1D1D1B;" width="48" height="16"/>
	<rect x="372.002" y="56" style="fill:#1D1D1B;" width="48" height="16"/>
	<rect x="372.002" y="80" style="fill:#1D1D1B;" width="48" height="16"/>
	<rect x="372.002" y="103.999" style="fill:#1D1D1B;" width="48" height="16"/>
	<rect x="372.002" y="127.999" style="fill:#1D1D1B;" width="48" height="16"/>
</g>
<g>
</g>
<g>
</g>
<g>
</g>
<g>
</g>
<g>
</g>
<g>
</g>
<g>
</g>
<g>
</g>
<g>
</g>
<g>
</g>
<g>
</g>
<g>
</g>
<g>
</g>
<g>
</g>
<g>
</g>
</svg>
