<?xml version="1.0" encoding="iso-8859-1"?>
<!-- Generator: Adobe Illustrator 19.0.0, SVG Export Plug-In . SVG Version: 6.00 Build 0)  -->
<svg version="1.1" id="Layer_1" xmlns="http://www.w3.org/2000/svg" xmlns:xlink="http://www.w3.org/1999/xlink" x="0px" y="0px"
	 viewBox="0 0 511.999 511.999" style="enable-background:new 0 0 511.999 511.999;" xml:space="preserve">
<path style="fill:#C8546F;" d="M464.467,95.857c22.13,0,40.071-17.939,40.071-40.071s-17.94-40.071-40.071-40.071L88.246,14.769
	c-44.424,0-80.438,36.013-80.438,80.438s36.013,80.438,80.438,80.438l376.221-0.296c22.13,0,40.071-17.94,40.071-40.072
	c0-22.13-17.94-40.071-40.071-40.071"/>
<g>
	<path style="fill:#9B4573;" d="M101.732,95.206c-9.166,0-16.598-7.431-16.598-16.598s7.432-16.598,16.598-16.598h374.996
		c9.166,0,16.598,7.431,16.598,16.598s-7.432,16.598-16.598,16.598H101.732z"/>
	<path style="fill:#9B4573;" d="M464.467,416.792c22.13,0,40.071-17.94,40.071-40.071c0-22.131-17.94-40.072-40.071-40.072
		l-376.22-0.947c-44.424,0-80.438,36.014-80.438,80.439s36.013,80.437,80.438,80.437l376.22-0.296
		c22.13,0,40.071-17.939,40.071-40.071c0-22.13-17.94-40.071-40.071-40.071"/>
</g>
<path style="fill:#C8546F;" d="M101.732,416.141c-9.166,0-16.598-7.432-16.598-16.598c0-9.168,7.432-16.599,16.598-16.599h374.996
	c9.166,0,16.598,7.431,16.598,16.599c0,9.166-7.432,16.598-16.598,16.598H101.732z"/>
<path style="fill:#FEC986;" d="M47.879,255.551c-22.13,0-40.071,17.94-40.071,40.072c0,22.13,17.94,40.071,40.071,40.071
	l376.22,0.947c44.424,0,80.438-36.013,80.438-80.438s-36.013-80.438-80.438-80.438l-376.22,0.296
	c-22.13,0-40.071,17.94-40.071,40.071c0,22.131,17.94,40.072,40.071,40.072"/>
<path style="fill:#FEB860;" d="M410.614,223.005c9.167,0,16.599,7.432,16.599,16.599c0,9.167-7.432,16.598-16.599,16.598H35.618
	c-9.167,0-16.599-7.431-16.599-16.598c0-9.167,7.432-16.599,16.599-16.599L410.614,223.005L410.614,223.005z"/>
<path style="fill:#1D1D1B;" d="M511.999,135.76c0-16.691-8.598-31.413-21.595-39.969c12.997-8.556,21.595-23.278,21.595-39.969
	c0-26.366-21.45-47.816-47.816-47.816H87.851C39.41,8.007,0,47.417,0,95.858c0,30.448,15.576,57.32,39.173,73.087
	C16.922,173.026,0,192.549,0,215.965c0,16.691,8.598,31.413,21.595,39.969C8.598,264.489,0,279.21,0,295.901
	c0,23.472,17.004,43.032,39.334,47.049C15.649,358.703,0,385.624,0,416.14c0,48.441,39.41,87.852,87.853,87.852l376.33-0.133
	c26.366,0,47.816-21.45,47.816-47.816c0-16.692-8.597-31.414-21.596-39.969c12.999-8.555,21.596-23.277,21.596-39.969
	c0-23.413-16.921-42.938-39.173-47.018c23.596-15.767,39.173-42.64,39.173-73.088c0-30.517-15.649-57.438-39.335-73.192
	C494.996,178.793,511.999,159.231,511.999,135.76z M467.527,424.023c16.418,1.484,28.912,15.222,28.912,32.021
	c0,17.786-14.469,32.255-32.258,32.255l-376.329,0.133c-39.861,0-72.29-32.43-72.29-72.291s32.429-72.29,72.29-72.29h376.333
	c17.786,0,32.255,14.469,32.255,32.255c0,17.024-13.178,31.23-29.912,32.396l-362.662-0.141c-4.54,0-8.234-3.694-8.234-8.234
	c0-4.541,3.694-8.235,8.234-8.235v-15.561c-13.12,0-23.794,10.675-23.794,23.795c0,13.121,10.675,23.794,23.794,23.794
	L467.527,424.023z M408.134,263.779c13.12,0,23.795-10.675,23.795-23.795s-10.675-23.794-23.795-23.794v15.561
	c4.541,0,8.235,3.694,8.235,8.234c0,4.541-3.694,8.235-8.235,8.235L45.541,248.14c-16.729-1.171-29.98-15.154-29.98-32.175
	c0-17.787,14.469-32.256,32.255-32.256h376.334c39.861,0,72.29,32.429,72.29,72.291s-32.429,72.291-72.287,72.291l-376.337-0.133
	c-17.786-0.001-32.255-14.47-32.255-32.257c0-16.795,12.902-30.634,29.316-32.122L408.134,263.779L408.134,263.779z
	 M467.122,103.638c16.413,1.489,29.316,15.326,29.316,32.122c0,17.786-14.469,32.255-32.258,32.255l-376.329,0.133
	c-39.861,0-72.29-32.429-72.29-72.29s32.429-72.291,72.29-72.291h376.333c17.786,0,32.255,14.469,32.255,32.255
	c0,17.021-13.251,31.006-29.98,32.177l-362.594,0.079c-4.54,0-8.234-3.694-8.234-8.235c0-4.541,3.694-8.235,8.234-8.235V56.048
	c-13.12,0-23.794,10.675-23.794,23.795s10.675,23.795,23.794,23.795H467.122z"/>
<g>
</g>
<g>
</g>
<g>
</g>
<g>
</g>
<g>
</g>
<g>
</g>
<g>
</g>
<g>
</g>
<g>
</g>
<g>
</g>
<g>
</g>
<g>
</g>
<g>
</g>
<g>
</g>
<g>
</g>
</svg>
