<?xml version="1.0" encoding="iso-8859-1"?>
<!-- Generator: Adobe Illustrator 19.0.0, SVG Export Plug-In . SVG Version: 6.00 Build 0)  -->
<svg version="1.1" id="Layer_1" xmlns="http://www.w3.org/2000/svg" xmlns:xlink="http://www.w3.org/1999/xlink" x="0px" y="0px"
	 viewBox="0 0 512 512" style="enable-background:new 0 0 512 512;" xml:space="preserve">
<path style="fill:#FEC986;" d="M384.068,504.133H55.892V219.289c0-19.512,15.817-35.328,35.328-35.328h292.848V504.133z"/>
<rect x="55.889" y="480.122" style="fill:#FEB860;" width="328.179" height="24.013"/>
<path style="fill:#9B4573;" d="M440.099,416.086H135.935c0,0,1.86-141.515,0.05-196.794c-0.898-27.463-24.631-35.33-24.631-35.33
	h284.123c24.643,0,44.621,19.978,44.621,44.621L440.099,416.086L440.099,416.086z"/>
<rect x="135.935" y="416.083" style="fill:#C8546F;" width="304.158" height="32.017"/>
<g>
	<path style="fill:#1D1D1B;" d="M452.105,231.85v-15.734c24.35,0,44.16-19.811,44.16-44.161c0-24.35-19.811-44.16-44.16-44.16
		H304.026v-15.734h148.079c33.026,0,59.895,26.868,59.895,59.895S485.131,231.85,452.105,231.85z"/>
	<rect x="159.946" y="408.215" style="fill:#1D1D1B;" width="16.008" height="15.734"/>
	<rect x="183.957" y="408.215" style="fill:#1D1D1B;" width="16.009" height="15.734"/>
	<rect x="207.978" y="408.215" style="fill:#1D1D1B;" width="16.009" height="15.734"/>
	<rect x="231.989" y="408.215" style="fill:#1D1D1B;" width="16.008" height="15.734"/>
	<rect x="256" y="408.215" style="fill:#1D1D1B;" width="16.009" height="15.734"/>
	<rect x="280.011" y="408.215" style="fill:#1D1D1B;" width="16.009" height="15.734"/>
	<rect x="304.022" y="408.215" style="fill:#1D1D1B;" width="16.008" height="15.734"/>
	<rect x="328.043" y="408.215" style="fill:#1D1D1B;" width="16.009" height="15.734"/>
	<rect x="352.054" y="408.215" style="fill:#1D1D1B;" width="16.009" height="15.734"/>
	<rect x="376.065" y="408.215" style="fill:#1D1D1B;" width="16.008" height="15.734"/>
	<rect x="400.075" y="408.215" style="fill:#1D1D1B;" width="16.009" height="15.734"/>
	<rect x="79.91" y="472.255" style="fill:#1D1D1B;" width="16.008" height="15.734"/>
	<rect x="103.921" y="472.255" style="fill:#1D1D1B;" width="16.009" height="15.734"/>
	<rect x="127.932" y="472.255" style="fill:#1D1D1B;" width="16.009" height="15.734"/>
	<rect x="151.943" y="472.255" style="fill:#1D1D1B;" width="16.008" height="15.734"/>
	<rect x="175.953" y="472.255" style="fill:#1D1D1B;" width="16.009" height="15.734"/>
	<rect x="199.975" y="472.255" style="fill:#1D1D1B;" width="16.008" height="15.734"/>
	<rect x="223.986" y="472.255" style="fill:#1D1D1B;" width="16.008" height="15.734"/>
	<rect x="247.996" y="472.255" style="fill:#1D1D1B;" width="16.009" height="15.734"/>
	<rect x="272.007" y="472.255" style="fill:#1D1D1B;" width="16.008" height="15.734"/>
	<rect x="296.018" y="472.255" style="fill:#1D1D1B;" width="16.008" height="15.734"/>
	<rect x="320.039" y="472.255" style="fill:#1D1D1B;" width="16.009" height="15.734"/>
	<rect x="344.05" y="472.255" style="fill:#1D1D1B;" width="16.008" height="15.734"/>
	<path style="fill:#1D1D1B;" d="M447.966,455.971V223.982c0-26.407-21.483-47.888-47.888-47.888H95.914
		c-23.242,0-42.664,16.646-46.984,38.642c-19.063-4.888-33.196-22.215-33.196-42.781c0-24.35,19.811-44.16,44.16-44.16H256
		c35.233,0,63.897-28.664,63.897-63.898C319.897,28.664,291.233,0,256,0s-63.897,28.664-63.897,63.897h15.734
		c0-26.557,21.604-48.162,48.162-48.162s48.162,21.606,48.162,48.162S282.557,112.06,256,112.06H59.895
		C26.868,112.06,0,138.928,0,171.955c0,28.963,20.666,53.187,48.025,58.711V512h343.911v-47.888h-15.734v8.142h-8.142v15.734h8.142
		v8.278H63.759v-8.278h8.142v-15.734h-8.142V231.85h56.168v-15.734h-55.19c3.518-13.939,16.16-24.287,31.177-24.287
		c17.73,0,32.154,14.424,32.154,32.154V455.97h319.898V455.971z M400.076,191.828c17.73,0,32.154,14.424,32.154,32.154v184.236
		h-8.142v15.734h8.142v16.282H143.803v-16.282h8.142v-15.734h-8.142V223.982c0-12.363-4.711-23.649-12.43-32.154H400.076z"/>
</g>
<g>
</g>
<g>
</g>
<g>
</g>
<g>
</g>
<g>
</g>
<g>
</g>
<g>
</g>
<g>
</g>
<g>
</g>
<g>
</g>
<g>
</g>
<g>
</g>
<g>
</g>
<g>
</g>
<g>
</g>
</svg>
