<?xml version="1.0" encoding="iso-8859-1"?>
<!-- Generator: Adobe Illustrator 19.0.0, SVG Export Plug-In . SVG Version: 6.00 Build 0)  -->
<svg version="1.1" id="Layer_1" xmlns="http://www.w3.org/2000/svg" xmlns:xlink="http://www.w3.org/1999/xlink" x="0px" y="0px"
	 viewBox="0 0 512 512" style="enable-background:new 0 0 512 512;" xml:space="preserve">
<g>
	<circle style="fill:#FEC986;" cx="400.099" cy="488.163" r="16.012"/>
	<circle style="fill:#FEC986;" cx="111.901" cy="488.163" r="16.012"/>
</g>
<rect x="47.852" y="432.124" style="fill:#9B4573;" width="416.299" height="32.022"/>
<g>
	<rect x="47.852" y="432.124" style="fill:#C8546F;" width="248.181" height="32.022"/>
	<path style="fill:#C8546F;" d="M400.102,400.102H296.028V116.669c0-27.524,22.52-50.044,50.045-50.044h5.67
		c26.598,0,48.359,21.762,48.359,48.358V400.102z"/>
</g>
<rect x="328.047" y="183.953" style="fill:#FEB860;" width="40.027" height="56.04"/>
<g>
	<rect x="352.071" y="167.941" style="fill:#FEC986;" width="48.038" height="32.023"/>
	<rect x="111.901" y="320.046" style="fill:#FEC986;" width="144.104" height="112.079"/>
</g>
<g>
	<rect x="223.98" y="320.046" style="fill:#9B4573;" width="32.022" height="112.079"/>
	<rect x="111.901" y="320.046" style="fill:#9B4573;" width="32.022" height="112.079"/>
</g>
<g>
	<path style="fill:#1D1D1B;" d="M471.971,424.301h-32.022V61.537C439.949,27.606,412.344,0,378.412,0H133.588
		C99.656,0,72.051,27.606,72.051,61.537v362.765H40.029v47.67h54.4c-3.947,4.255-6.366,9.946-6.366,16.193
		c0,13.143,10.693,23.835,23.835,23.835s23.835-10.693,23.835-23.835c0-6.248-2.419-11.938-6.366-16.193h253.268
		c-3.947,4.255-6.368,9.946-6.368,16.193c0,13.143,10.693,23.835,23.835,23.835s23.835-10.693,23.835-23.835
		c0-6.248-2.419-11.938-6.368-16.193h54.4V424.301z M111.898,496.352c-4.515,0-8.188-3.673-8.188-8.188
		c0-4.515,3.673-8.188,8.188-8.188c4.515,0,8.188,3.673,8.188,8.188C120.086,492.679,116.412,496.352,111.898,496.352z
		 M400.102,496.352c-4.515,0-8.188-3.673-8.188-8.188c0-4.515,3.673-8.188,8.188-8.188c4.515,0,8.188,3.673,8.188,8.188
		C408.29,492.679,404.618,496.352,400.102,496.352z M87.699,61.537c0-25.303,20.586-45.889,45.889-45.889h244.823
		c25.303,0,45.889,20.586,45.889,45.889v362.765H263.824v-112.08h-159.75v112.08H87.699V61.537z M248.176,424.301H119.722v-96.432
		h128.454V424.301z M456.324,456.324H55.676v-16.375h400.647L456.324,456.324L456.324,456.324z"/>
	<polygon style="fill:#1D1D1B;" points="215.79,304.034 200.142,304.034 200.142,287.841 167.756,287.841 167.756,304.034 
		152.108,304.034 152.108,272.193 215.79,272.193 	"/>
	<rect x="136.092" y="336.058" style="fill:#1D1D1B;" width="15.648" height="80.053"/>
	<rect x="216.156" y="336.058" style="fill:#1D1D1B;" width="15.648" height="80.053"/>
	<path style="fill:#1D1D1B;" d="M353.973,56.333V23.835h-15.648v33.009c-28.389,4.667-50.12,29.366-50.12,59.056v292.025h119.722
		V115.901C407.926,84.887,384.218,59.311,353.973,56.333z M392.278,192.136h-32.386v-16.375h32.386V192.136z M360.256,207.783
		v24.381h-24.381v-40.393h8.369v16.012L360.256,207.783L360.256,207.783z M392.278,160.114h-48.034v16.012h-24.017v71.688h55.676
		v-40.029h16.375v184.495h-88.427V115.901c0-24.379,19.834-44.213,44.213-44.213s44.214,19.834,44.214,44.213V160.114z"/>
</g>
<g>
</g>
<g>
</g>
<g>
</g>
<g>
</g>
<g>
</g>
<g>
</g>
<g>
</g>
<g>
</g>
<g>
</g>
<g>
</g>
<g>
</g>
<g>
</g>
<g>
</g>
<g>
</g>
<g>
</g>
</svg>
