<?xml version="1.0" encoding="iso-8859-1"?>
<!-- Generator: Adobe Illustrator 19.0.0, SVG Export Plug-In . SVG Version: 6.00 Build 0)  -->
<svg version="1.1" id="Layer_1" xmlns="http://www.w3.org/2000/svg" xmlns:xlink="http://www.w3.org/1999/xlink" x="0px" y="0px"
	 viewBox="0 0 512 512" style="enable-background:new 0 0 512 512;" xml:space="preserve">
<path style="fill:#9B4573;" d="M121.674,325.272c34.755,0,64.858,19.834,79.666,48.79h1.652v-187.03H81.015v148.024
	C93.217,328.815,107.028,325.272,121.674,325.272z"/>
<g>
	<rect x="357.499" y="333.407" style="fill:#FEB860;" width="32.526" height="65.053"/>
	<rect x="357.499" y="170.764" style="fill:#FEB860;" width="32.526" height="65.053"/>
</g>
<path style="fill:#FEC986;" d="M312.771,398.458h-56.922c-11.228,0-20.33-9.102-20.33-20.33l0,0c0-11.228,9.101-20.329,20.33-20.329
	h56.922c11.228,0,20.33,9.101,20.33,20.329l0,0C333.101,389.355,323.998,398.458,312.771,398.458z"/>
<g>
	<path style="fill:#C8546F;" d="M312.771,357.8h-56.922c-11.228,0-20.33-9.102-20.33-20.33v-0.001
		c0-11.228,9.101-20.329,20.33-20.329h56.922c11.228,0,20.33,9.101,20.33,20.329v0.001C333.101,348.697,323.998,357.8,312.771,357.8
		z"/>
	<path style="fill:#C8546F;" d="M312.771,235.822h-56.922c-11.228,0-20.33-9.102-20.33-20.33l0,0c0-11.228,9.101-20.33,20.33-20.33
		h56.922c11.228,0,20.33,9.102,20.33,20.33l0,0C333.101,226.72,323.998,235.822,312.771,235.822z"/>
</g>
<g>
	<path style="fill:#FEC986;" d="M312.771,195.163h-56.922c-11.228,0-20.33-9.102-20.33-20.33l0,0
		c0-11.228,9.101-20.329,20.33-20.329h56.922c11.228,0,20.33,9.101,20.33,20.329l0,0
		C333.101,186.061,323.998,195.163,312.771,195.163z"/>
	<circle style="fill:#FEC986;" cx="414.42" cy="479.776" r="24.396"/>
</g>
<g>
	<polygon style="fill:#9B4573;" points="446.945,430.985 210.82,430.985 211.123,398.458 446.945,398.458 	"/>
	<rect x="202.987" y="235.817" style="fill:#9B4573;" width="243.959" height="32.526"/>
</g>
<circle style="fill:#FEC986;" cx="121.671" cy="414.723" r="89.448"/>
<circle style="fill:#C8546F;" cx="121.671" cy="414.723" r="56.921"/>
<path style="fill:#1D1D1B;" d="M121.674,479.472c-35.704,0-64.751-29.047-64.751-64.751s29.047-64.751,64.751-64.751
	s64.751,29.047,64.751,64.751S157.378,479.472,121.674,479.472z M121.674,365.628c-27.07,0-49.093,22.023-49.093,49.094
	s22.023,49.094,49.093,49.094s49.093-22.023,49.093-49.094S148.745,365.628,121.674,365.628z"/>
<rect x="113.842" y="406.592" style="fill:#FFFFFF;" width="15.658" height="16.263"/>
<g>
	<rect x="178.895" style="fill:#1D1D1B;" width="15.658" height="170.764"/>
	<rect x="146.369" y="97.579" style="fill:#1D1D1B;" width="15.658" height="73.185"/>
	<rect x="146.369" y="65.053" style="fill:#1D1D1B;" width="15.658" height="24.396"/>
</g>
<g>
	<rect x="105.408" y="211.735" style="fill:#FFFFFF;" width="48.791" height="15.658"/>
	<rect x="105.408" y="236.13" style="fill:#FFFFFF;" width="48.791" height="15.658"/>
</g>
<g>
	<path style="fill:#1D1D1B;" d="M487.605,194.86v-15.658h-64.751v48.791h-25.001v-65.054h-48.185v65.054h-11.674
		c1.876-3.768,2.936-8.013,2.936-12.501c0-7.985-3.348-15.201-8.706-20.33c5.358-5.13,8.706-12.344,8.706-20.33
		c0-15.526-12.632-28.158-28.159-28.158h-56.922c-15.527,0-28.159,12.632-28.159,28.158c0,7.985,3.348,15.201,8.706,20.33
		c-5.358,5.13-8.706,12.344-8.706,20.33c0,4.489,1.062,8.732,2.936,12.501h-19.806v-48.791H73.186v151.209
		c-29.138,16.823-48.791,48.314-48.791,84.31c0,53.641,43.639,97.279,97.279,97.279c45.326,0,83.509-31.162,94.257-73.187h215.054
		v13.334c-4.845-2.915-10.513-4.596-16.567-4.596c-17.768,0-32.225,14.456-32.225,32.224c0,17.768,14.456,32.225,32.225,32.225
		s32.225-14.456,32.225-32.225v-40.962h8.132v-48.184H438.51V276.178h16.264v-48.184H438.51V194.86L487.605,194.86L487.605,194.86z
		 M414.418,496.342c-9.135,0-16.567-7.432-16.567-16.567s7.432-16.566,16.567-16.566s16.567,7.431,16.567,16.566
		S423.553,496.342,414.418,496.342z M365.324,178.597h16.87v49.396h-16.87V178.597z M255.849,162.334h56.922
		c6.894,0,12.501,5.608,12.501,12.5c0,6.894-5.608,12.501-12.501,12.501h-56.922c-6.894,0-12.501-5.608-12.501-12.501
		C243.348,167.942,248.956,162.334,255.849,162.334z M255.849,202.992h56.922c6.894,0,12.501,5.608,12.501,12.501
		s-5.608,12.501-12.501,12.501h-56.922c-6.894,0-12.501-5.608-12.501-12.501S248.956,202.992,255.849,202.992z M88.844,194.86
		h106.319v156.191c-17.85-20.575-44.176-33.608-73.488-33.608c-11.516,0-22.569,2.017-32.83,5.707L88.844,194.86L88.844,194.86z
		 M121.674,496.342c-45.006,0-81.621-36.615-81.621-81.621s36.615-81.62,81.621-81.62s81.62,36.614,81.62,81.62
		S166.68,496.342,121.674,496.342z M215.931,390.629c-1.304-5.098-3.034-10.022-5.111-14.763v-99.688h212.032v114.451h-25.001
		v-65.054h-48.185v65.054h-11.674c1.876-3.768,2.936-8.013,2.936-12.501c0-7.985-3.348-15.2-8.706-20.33
		c5.358-5.128,8.706-12.343,8.706-20.329c0-15.526-12.632-28.159-28.159-28.159h-56.922c-15.527,0-28.159,12.633-28.159,28.159
		c0,7.985,3.348,15.201,8.706,20.329c-5.358,5.131-8.706,12.344-8.706,20.33c0,4.489,1.062,8.732,2.936,12.501L215.931,390.629
		L215.931,390.629z M382.194,341.232v49.396h-16.87v-49.396H382.194z M312.771,349.97h-56.922c-6.894,0-12.501-5.608-12.501-12.5
		c0-6.894,5.608-12.501,12.501-12.501h56.922c6.894,0,12.501,5.608,12.501,12.501C325.272,344.362,319.664,349.97,312.771,349.97z
		 M325.272,378.128c0,6.894-5.608,12.501-12.501,12.501h-56.922c-6.894,0-12.501-5.608-12.501-12.501s5.608-12.501,12.501-12.501
		h56.922C319.664,365.628,325.272,371.235,325.272,378.128z M439.117,406.287v16.869H218.583c0.239-2.781,0.37-5.592,0.37-8.434
		s-0.13-5.654-0.37-8.434h37.266h56.922h36.896h48.185L439.117,406.287L439.117,406.287z M439.117,243.651v16.869H210.82v-16.869
		h45.028h56.922h36.896h48.185H439.117z"/>
	<polygon style="fill:#1D1D1B;" points="398.155,300.574 398.155,284.916 365.931,284.916 365.931,317.14 381.589,317.14 
		381.589,300.574 	"/>
	<polygon style="fill:#1D1D1B;" points="381.589,154.505 365.931,154.505 365.931,122.28 398.155,122.28 398.155,137.938 
		381.589,137.938 	"/>
</g>
<g>
</g>
<g>
</g>
<g>
</g>
<g>
</g>
<g>
</g>
<g>
</g>
<g>
</g>
<g>
</g>
<g>
</g>
<g>
</g>
<g>
</g>
<g>
</g>
<g>
</g>
<g>
</g>
<g>
</g>
</svg>
