<?xml version="1.0" encoding="iso-8859-1"?>
<!-- Generator: Adobe Illustrator 19.0.0, SVG Export Plug-In . SVG Version: 6.00 Build 0)  -->
<svg version="1.1" id="Layer_1" xmlns="http://www.w3.org/2000/svg" xmlns:xlink="http://www.w3.org/1999/xlink" x="0px" y="0px"
	 viewBox="0 0 512.001 512.001" style="enable-background:new 0 0 512.001 512.001;" xml:space="preserve">
<path style="fill:#9B4573;" d="M291.932,239.917c0-26.518,21.497-48.014,48.013-48.014c26.519,0,48.014,21.497,48.014,48.014"/>
<polygon style="fill:#FEC986;" points="275.926,255.922 275.926,175.898 235.914,175.898 139.886,175.898 99.873,175.898 
	99.873,311.94 139.886,311.94 139.886,335.947 235.914,335.947 235.914,295.934 251.919,295.934 275.926,295.934 331.944,295.934 
	331.944,255.922 "/>
<g>
	<rect x="139.889" y="343.947" style="fill:#C8546F;" width="96.029" height="168.05"/>
	<path style="fill:#C8546F;" d="M187.901,127.884L187.901,127.884c-17.679,0-32.011-14.331-32.011-32.01V39.857
		c0-17.679,14.331-32.011,32.01-32.011h0.001c17.677,0,32.01,14.331,32.01,32.011v56.017
		C219.91,113.553,205.578,127.884,187.901,127.884z"/>
</g>
<g>
	<path style="fill:#1D1D1B;" d="M187.9,135.729c-21.976,0-39.855-17.879-39.855-39.856V39.856C148.044,17.879,165.924,0,187.9,0
		c21.977,0,39.856,17.879,39.856,39.856v56.017C227.756,117.85,209.876,135.729,187.9,135.729z M187.9,15.692
		c-13.324,0-24.164,10.84-24.164,24.165v56.017c0,13.325,10.839,24.165,24.164,24.165c13.325,0,24.165-10.84,24.165-24.165V39.857
		C212.065,26.532,201.223,15.692,187.9,15.692z"/>
	<polygon style="fill:#1D1D1B;" points="339.789,303.78 268.081,303.78 268.081,271.928 283.771,271.928 283.771,288.089 
		324.098,288.089 324.098,271.928 339.789,271.928 	"/>
	<polygon style="fill:#1D1D1B;" points="123.88,319.785 92.028,319.785 92.028,168.053 283.771,168.053 283.771,215.91 
		268.081,215.91 268.081,183.744 107.719,183.744 107.719,304.094 123.88,304.094 	"/>
	<polygon style="fill:#1D1D1B;" points="243.759,343.793 132.041,343.793 132.041,199.905 147.732,199.905 147.732,328.102 
		228.068,328.102 228.068,199.905 243.759,199.905 	"/>
	<rect x="132.044" y="351.95" style="fill:#1D1D1B;" width="15.691" height="160.048"/>
	<rect x="228.073" y="351.95" style="fill:#1D1D1B;" width="15.691" height="160.048"/>
	<polygon style="fill:#1D1D1B;" points="195.745,512.001 180.054,512.001 180.054,376.116 203.905,376.116 203.905,391.807 
		195.745,391.807 	"/>
	<rect x="259.925" y="248.076" style="fill:#1D1D1B;" width="160.048" height="15.691"/>
	<path style="fill:#1D1D1B;" d="M347.792,184.619v-16.723h-15.691v16.723c-27.097,3.828-48.013,27.16-48.013,55.298h15.691
		c0-22.149,18.02-40.169,40.168-40.169c22.148,0,40.169,18.02,40.169,40.169h15.691C395.806,211.78,374.89,188.447,347.792,184.619z
		"/>
	<rect x="180.058" y="143.887" style="fill:#1D1D1B;" width="15.691" height="16.005"/>
	<rect x="203.909" y="144.044" style="fill:#1D1D1B;" width="24.007" height="15.691"/>
	<rect x="147.892" y="144.044" style="fill:#1D1D1B;" width="24.007" height="15.691"/>
</g>
<g>
	<rect x="180.058" y="199.904" style="fill:#FFFFFF;" width="15.691" height="16.005"/>
	<rect x="180.058" y="231.914" style="fill:#FFFFFF;" width="15.691" height="16.005"/>
	<rect x="180.058" y="263.923" style="fill:#FFFFFF;" width="15.691" height="16.005"/>
	<rect x="180.058" y="295.933" style="fill:#FFFFFF;" width="15.691" height="16.005"/>
</g>
<g>
</g>
<g>
</g>
<g>
</g>
<g>
</g>
<g>
</g>
<g>
</g>
<g>
</g>
<g>
</g>
<g>
</g>
<g>
</g>
<g>
</g>
<g>
</g>
<g>
</g>
<g>
</g>
<g>
</g>
</svg>
