<?xml version="1.0" encoding="iso-8859-1"?>
<!-- Generator: Adobe Illustrator 19.0.0, SVG Export Plug-In . SVG Version: 6.00 Build 0)  -->
<svg version="1.1" id="Layer_1" xmlns="http://www.w3.org/2000/svg" xmlns:xlink="http://www.w3.org/1999/xlink" x="0px" y="0px"
	 viewBox="0 0 512.001 512.001" style="enable-background:new 0 0 512.001 512.001;" xml:space="preserve">
<g>
	<path style="fill:#C8546F;" d="M55.899,147.946c22.102,0,40.02-17.918,40.02-40.021h64.033c0,22.102,17.918,40.021,40.02,40.021
		H55.899z"/>
	<path style="fill:#C8546F;" d="M504.124,468.107H322.786v-94.764c0,0,34.194-17.293,61.278-17.293
		c31.214,0,49.655,14.138,62.716,25.66c8.881,7.835,26.185,7.573,36.339,1.48l21.005-11.131L504.124,468.107L504.124,468.107z"/>
</g>
<path style="fill:#FEC986;" d="M504.124,277.295H322.786v96.049c1.05-0.516,33.496-17.293,61.278-17.293
	c30.359,0,48.874,13.621,62.716,25.66c10.021,8.716,25.078,8.518,36.339,1.48l21.005-11.131L504.124,277.295L504.124,277.295z"/>
<g>
	<rect x="432.087" y="364.052" style="fill:#FFFFFF;" width="48.023" height="48.024"/>
	<rect x="360.051" y="332.035" style="fill:#FFFFFF;" width="48.024" height="48.023"/>
</g>
<rect x="55.896" y="43.893" style="fill:#9B4573;" width="144.071" height="40.019"/>
<rect x="7.875" y="171.961" style="fill:#FEC986;" width="240.122" height="296.143"/>
<path style="fill:#C8546F;" d="M31.887,332.038v112.056h192.097V332.038c0,0-52.816,35.516-96.049,0S31.887,332.038,31.887,332.038z
	"/>
<g>
	<path style="fill:#1D1D1B;" d="M255.872,475.982H0v-311.9h255.872V475.982z M15.751,460.231h224.37V179.834H15.751V460.231z"/>
	<path style="fill:#1D1D1B;" d="M207.848,91.79H48.023V36.018h159.823V91.79H207.848z M63.774,76.038h128.321V51.769H63.774V76.038z
		"/>
	<path style="fill:#1D1D1B;" d="M239.993,140.07h-40.021c-17.724,0-32.144-14.42-32.144-32.145v-7.876H88.044v7.876
		c0,17.724-14.42,32.145-32.144,32.145H15.879v15.751h224.113V140.07z M103.148,115.801h49.575
		c1.536,9.249,5.734,17.61,11.775,24.269H91.373C97.414,133.411,101.611,125.05,103.148,115.801z"/>
	<path style="fill:#1D1D1B;" d="M231.86,451.97H24.011V327.843l3.48-2.341c0.588-0.395,14.613-9.728,34.38-14.444
		c26.835-6.402,51.409-1.252,71.063,14.893c38.259,31.43,86.176-0.127,86.654-0.449l12.271-8.252V451.97H231.86z M39.762,436.219
		h176.346v-90.957c-5.82,2.709-13.408,5.68-22.109,7.755c-26.833,6.403-51.409,1.252-71.063-14.893
		c-32.281-26.52-71.438-8.197-83.174-1.63C39.762,336.494,39.762,436.219,39.762,436.219z"/>
</g>
<g>
	<polygon style="fill:#FFFFFF;" points="223.856,235.99 208.105,235.99 208.105,211.849 175.96,211.849 175.96,196.098 
		223.856,196.098 	"/>
	<rect x="208.105" y="251.998" style="fill:#FFFFFF;" width="15.751" height="48.024"/>
</g>
<g>
	<rect x="336.036" y="428.212" style="fill:#1D1D1B;" width="152.073" height="15.751"/>
	<path style="fill:#1D1D1B;" d="M312.157,268.135v207.849h199.844V268.135H312.157z M496.249,283.886v84.827
		c-1.589,1.637-4.376,4.14-8.26,6.323v-18.856h-63.776v1.33c-2.671-1.345-5.434-2.53-8.26-3.586v-29.76h-63.776v27.679
		c-9.681,2.249-18.05,5.161-24.268,7.649v-75.606h168.339V283.886z M472.238,371.93v32.273h-32.273V371.93H472.238z
		 M400.201,339.914v32.272h-32.273v-32.272H400.201z M327.908,460.231V376.61c4.82-2.187,13.494-5.749,24.268-8.547v19.875h63.776
		v-16.919c2.87,1.376,5.628,2.947,8.26,4.713v44.222h63.776v-27.658c3.057-1.092,5.811-2.416,8.26-3.832v71.768H327.908V460.231z"/>
</g>
<g>
</g>
<g>
</g>
<g>
</g>
<g>
</g>
<g>
</g>
<g>
</g>
<g>
</g>
<g>
</g>
<g>
</g>
<g>
</g>
<g>
</g>
<g>
</g>
<g>
</g>
<g>
</g>
<g>
</g>
</svg>
